<svg width="50px" height="50px" viewBox="0 0 2.25 2.25" xmlns="http://www.w3.org/2000/svg" xmlns:xlink="http://www.w3.org/1999/xlink" aria-hidden="true" role="img" class="iconify iconify--twemoji" preserveAspectRatio="xMidYMid meet"><path fill="#31373D" d="M2.125 0.188H0.78V0.07c0 -0.065 -0.046 -0.09 -0.103 -0.054L0.043 0.416c-0.057 0.036 -0.058 0.095 -0.002 0.133l0.638 0.433c0.055 0.038 0.1 0.015 0.1 -0.051V0.813H2.125a0.125 0.125 0 0 0 0.125 -0.125V0.313a0.125 0.125 0 0 0 -0.125 -0.125M0.002 1.637c0 -0.045 0.031 -0.071 0.075 -0.071H0.258c0.099 0 0.178 0.066 0.178 0.167 0 0.066 -0.027 0.111 -0.088 0.139v0.002c0.081 0.011 0.144 0.079 0.144 0.161 0 0.134 -0.089 0.205 -0.22 0.205h-0.195c-0.044 0 -0.076 -0.027 -0.076 -0.072v-0.531zm0.142 0.196h0.074c0.046 0 0.077 -0.027 0.077 -0.075 0 -0.045 -0.035 -0.067 -0.077 -0.067H0.144zm0 0.282h0.112c0.051 0 0.089 -0.029 0.089 -0.082 0 -0.044 -0.034 -0.075 -0.1 -0.075H0.144zm0.576 -0.482c0.016 -0.043 0.053 -0.079 0.101 -0.079 0.05 0 0.085 0.033 0.101 0.079l0.186 0.515c0.006 0.015 0.008 0.028 0.008 0.035 0 0.037 -0.03 0.063 -0.065 0.063 -0.04 0 -0.06 -0.021 -0.069 -0.049l-0.028 -0.089H0.689l-0.028 0.088c-0.009 0.029 -0.029 0.05 -0.068 0.05 -0.038 0 -0.07 -0.028 -0.07 -0.066 0 -0.015 0.005 -0.026 0.007 -0.031zm0.011 0.344h0.18l-0.088 -0.275h-0.002zm0.711 -0.422c0.069 0 0.204 0.023 0.204 0.106 0 0.034 -0.024 0.064 -0.059 0.064 -0.039 0 -0.065 -0.033 -0.145 -0.033 -0.117 0 -0.178 0.099 -0.178 0.215 0 0.113 0.062 0.209 0.178 0.209 0.08 0 0.112 -0.04 0.151 -0.04 0.043 0 0.063 0.043 0.063 0.064 0 0.091 -0.143 0.112 -0.213 0.112 -0.192 0 -0.326 -0.152 -0.326 -0.348 0 -0.197 0.133 -0.348 0.326 -0.348m0.279 0.076c0 -0.039 0.028 -0.07 0.071 -0.07 0.041 0 0.071 0.026 0.071 0.07v0.205l0.233 -0.248c0.01 -0.011 0.028 -0.026 0.055 -0.026 0.036 0 0.07 0.027 0.07 0.068 0 0.025 -0.015 0.044 -0.046 0.076l-0.179 0.176 0.219 0.228c0.023 0.023 0.04 0.044 0.04 0.072 0 0.044 -0.035 0.065 -0.074 0.065 -0.028 0 -0.045 -0.016 -0.072 -0.044l-0.245 -0.265v0.241c0 0.037 -0.028 0.068 -0.071 0.068 -0.041 0 -0.071 -0.026 -0.071 -0.068v-0.547z"/></svg>