<svg xmlns="http://www.w3.org/2000/svg" viewBox="0 0 25 25" xml:space="preserve" width="25" height="25"><path d="M12.5 8.071c2.225 0 4.034 -1.81 4.034 -4.036C16.535 1.81 14.725 0 12.5 0c-2.225 0 -4.035 1.81 -4.035 4.035 0 2.225 1.81 4.036 4.035 4.036m9.461 7.636h-0.11l-4.981 -6.412a1.698 1.698 0 0 0 -1.394 -0.727H9.523a1.698 1.698 0 0 0 -1.394 0.727L3.148 15.707h-0.11c-0.628 0 -1.139 0.511 -1.139 1.139v7.014c0 0.628 0.511 1.139 1.139 1.139h18.923c0.628 0 1.139 -0.511 1.139 -1.139V16.846c0 -0.628 -0.511 -1.139 -1.139 -1.139m-13.597 -1.294v1.294h-1.038zm8.27 0 1.038 1.294H16.635zm5.178 9.299H3.187V16.995h18.626z"/><path d="M8.734 22.954c0.438 0 0.864 -0.132 1.23 -0.381a0.352 0.352 0 1 0 -0.396 -0.582c-0.249 0.17 -0.538 0.259 -0.834 0.259 -0.864 0 -1.567 -0.758 -1.567 -1.691s0.703 -1.691 1.567 -1.691c0.271 0 0.539 0.076 0.773 0.22a0.352 0.352 0 1 0 0.368 -0.6c-0.345 -0.212 -0.74 -0.324 -1.142 -0.324 -1.253 0 -2.272 1.074 -2.272 2.395s1.019 2.395 2.272 2.395m3.716 0c0.438 0 0.864 -0.132 1.23 -0.381a0.352 0.352 0 1 0 -0.396 -0.582c-0.249 0.17 -0.538 0.259 -0.834 0.259 -0.752 0 -1.382 -0.575 -1.533 -1.338h2.378a0.352 0.352 0 1 0 0 -0.704H10.917c0.151 -0.764 0.781 -1.338 1.533 -1.338 0.271 0 0.539 0.076 0.773 0.22a0.352 0.352 0 0 0 0.368 -0.6c-0.345 -0.212 -0.74 -0.324 -1.142 -0.324 -1.253 0 -2.272 1.074 -2.272 2.395s1.019 2.395 2.272 2.395m3.817 0c1.253 0 2.272 -1.074 2.272 -2.395s-1.019 -2.395 -2.272 -2.395 -2.272 1.074 -2.272 2.395 1.019 2.395 2.272 2.395m0 -4.086c0.864 0 1.567 0.758 1.567 1.691s-0.703 1.691 -1.567 1.691c-0.864 0 -1.567 -0.758 -1.567 -1.691 0 -0.932 0.703 -1.691 1.567 -1.691"/></svg>