<svg height="50px" width="50px" version="1.1" xmlns="http://www.w3.org/2000/svg" xmlns:xlink="http://www.w3.org/1999/xlink" viewBox="0 0 4 4" xml:space="preserve"><style type="text/css">.st0{fill:#76C2AF;}
	.st1{opacity:0.2;}
	.st2{fill:#231F20;}
	.st3{fill:#FFFFFF;}
	.st4{fill:#4F5D73;}
	.st5{fill:#C75C5C;}</style><g id="Layer_1"><g><path class="st0" cx="32" cy="32" r="32" d="M4 2A2 2 0 0 1 2 4A2 2 0 0 1 0 2A2 2 0 0 1 4 2z"/></g><g class="st1"><g><path class="st2" d="M2.875 2.813c0 0.138 -0.113 0.25 -0.25 0.25H1.375c-0.138 0 -0.25 -0.113 -0.25 -0.25V1.563c0 -0.138 0.113 -0.25 0.25 -0.25h1.25c0.138 0 0.25 0.113 0.25 0.25z"/></g></g><g><g><path class="st3" d="M1.375 2.813c-0.069 0 -0.125 -0.056 -0.125 -0.125V1.438c0 -0.069 0.056 -0.125 0.125 -0.125h1.25c0.069 0 0.125 0.056 0.125 0.125v1.25c0 0.069 -0.056 0.125 -0.125 0.125z"/></g><g><path class="st4" d="M2.625 1.438v1.25H1.375V1.438zm0 -0.25H1.375c-0.138 0 -0.25 0.113 -0.25 0.25v1.25c0 0.138 0.113 0.25 0.25 0.25h1.25c0.138 0 0.25 -0.113 0.25 -0.25V1.438c0 -0.138 -0.113 -0.25 -0.25 -0.25"/></g></g><g class="st1"><g><path class="st2" d="M2.031 2.563c-0.037 0 -0.075 -0.019 -0.1 -0.05l-0.381 -0.5c-0.044 -0.056 -0.031 -0.131 0.025 -0.175s0.131 -0.031 0.175 0.025l0.263 0.344c0.144 -0.263 0.456 -0.738 0.956 -1.056 0.056 -0.037 0.138 -0.019 0.175 0.037s0.019 0.138 -0.037 0.175c-0.637 0.412 -0.95 1.125 -0.956 1.131 -0.019 0.044 -0.056 0.069 -0.1 0.075 -0.013 -0.006 -0.019 -0.006 -0.019 -0.006"/></g></g><g><path class="st5" d="M2.031 2.438c-0.037 0 -0.075 -0.019 -0.1 -0.05l-0.381 -0.5c-0.044 -0.056 -0.031 -0.131 0.025 -0.175s0.131 -0.031 0.175 0.025l0.263 0.344c0.144 -0.263 0.456 -0.738 0.956 -1.056 0.056 -0.037 0.138 -0.019 0.175 0.037s0.019 0.138 -0.037 0.175c-0.637 0.412 -0.95 1.125 -0.956 1.131 -0.019 0.044 -0.056 0.069 -0.1 0.075 -0.013 -0.006 -0.019 -0.006 -0.019 -0.006"/></g></g><g id="Layer_2"/></svg>