<svg fill="#fff" xmlns="http://www.w3.org/2000/svg" width="40px" height="40px" viewBox="0 0 3.25 3.25" enable-background="new 0 0 52 52" xml:space="preserve"><path d="m1.938 1.587 0.813 -0.819c0.037 -0.037 0.037 -0.094 0 -0.131l-0.125 -0.131c-0.037 -0.037 -0.094 -0.037 -0.131 0L1.675 1.325c-0.025 0.025 -0.063 0.025 -0.087 0L0.769 0.5c-0.037 -0.037 -0.094 -0.037 -0.131 0l-0.131 0.131c-0.037 0.037 -0.037 0.094 0 0.131l0.819 0.819c0.025 0.025 0.025 0.063 0 0.087L0.5 2.494c-0.037 0.037 -0.037 0.094 0 0.131l0.131 0.131c0.037 0.037 0.094 0.037 0.131 0L1.581 1.938c0.025 -0.025 0.063 -0.025 0.087 0l0.819 0.819c0.037 0.037 0.094 0.037 0.131 0L2.75 2.625c0.037 -0.037 0.037 -0.094 0 -0.131L1.938 1.675c-0.025 -0.025 -0.025 -0.063 0 -0.087"/></svg>