<svg width="25px" height="25px" viewBox="0 0 2 2" xmlns="http://www.w3.org/2000/svg" xmlns:xlink="http://www.w3.org/1999/xlink" aria-hidden="true" role="img" class="iconify iconify--emojione-monotone" preserveAspectRatio="xMidYMid meet"><path d="M1.851 1.164c0.066 -0.05 0.083 -0.092 0.085 -0.096a0.031 0.031 0 0 0 0.002 -0.011v-0.173c0 -0.186 -0.349 -0.309 -0.738 -0.34L1.773 0.224a0.072 0.072 0 0 0 0.035 -0.045 0.073 0.073 0 0 0 -0.008 -0.057l-0.014 -0.024A0.074 0.074 0 0 0 1.723 0.063c-0.01 0 -0.02 0.003 -0.03 0.007l0 -0.001 -0.004 0.002c-0.001 0.001 -0.002 0.001 -0.003 0.001L1 0.472 0.314 0.072A0.073 0.073 0 0 0 0.277 0.063c-0.026 0 -0.05 0.014 -0.064 0.036l-0.014 0.024a0.073 0.073 0 0 0 -0.008 0.056 0.073 0.073 0 0 0 0.035 0.045l0.574 0.319C0.411 0.575 0.063 0.697 0.063 0.883v0.173q0 0.006 0.002 0.011c0.002 0.004 0.019 0.046 0.085 0.096v0.145l-0.021 0.019C0.085 1.369 0.063 1.414 0.063 1.461v0.173a0.031 0.031 0 0 0 0.002 0.011c0.002 0.004 0.019 0.046 0.085 0.096v0.052c0 0.016 0.038 0.029 0.085 0.029 0.019 0 0.036 -0.002 0.05 -0.006 0.082 0.035 0.195 0.066 0.347 0.086v0.006c0 0.016 0.038 0.029 0.085 0.029 0.037 0 0.068 -0.008 0.08 -0.019 0.063 0.004 0.13 0.006 0.204 0.006s0.141 -0.002 0.204 -0.006c0.012 0.011 0.043 0.019 0.08 0.019 0.047 0 0.085 -0.013 0.085 -0.029v-0.006c0.152 -0.02 0.265 -0.052 0.347 -0.086 0.014 0.003 0.031 0.006 0.05 0.006 0.047 0 0.085 -0.013 0.085 -0.029v-0.052c0.066 -0.05 0.083 -0.091 0.085 -0.096q0.002 -0.005 0.002 -0.011v-0.173c0 -0.045 -0.022 -0.089 -0.066 -0.131l-0.021 -0.02zM1.709 0.112a0.028 0.028 0 0 1 0.038 0.01l0.014 0.024a0.027 0.027 0 0 1 -0.01 0.038L0.642 0.801c-0.007 0.013 -0.02 0.027 -0.038 0.037 -0.016 0.009 -0.033 0.014 -0.048 0.014 -0.016 0 -0.028 -0.005 -0.034 -0.016 -0.012 -0.02 0.006 -0.052 0.04 -0.071 0.016 -0.009 0.033 -0.014 0.048 -0.014l0.003 0 0.32 -0.187h0l0.067 -0.039zm-0.185 0.688c-0.003 -0.011 -0.009 -0.022 -0.016 -0.032 0.143 0.036 0.251 0.087 0.304 0.147 -0.051 0.113 -0.371 0.227 -0.813 0.227S0.239 1.028 0.187 0.915c0.053 -0.059 0.162 -0.111 0.304 -0.147 -0.007 0.01 -0.013 0.021 -0.016 0.032 -0.006 0.021 -0.003 0.042 0.007 0.059 0.014 0.024 0.041 0.038 0.074 0.038 0.023 0 0.048 -0.007 0.07 -0.02a0.147 0.147 0 0 0 0.047 -0.042l0.221 -0.123A2.438 2.438 0 0 1 1 0.71c0.036 0 0.071 0.001 0.105 0.003l0.221 0.123c0.012 0.016 0.028 0.031 0.047 0.042 0.022 0.013 0.047 0.02 0.07 0.02 0.033 0 0.059 -0.014 0.073 -0.038 0.01 -0.017 0.013 -0.038 0.007 -0.059m-0.046 0.036c-0.006 0.01 -0.019 0.016 -0.034 0.016 -0.015 0 -0.032 -0.005 -0.048 -0.014 -0.018 -0.01 -0.031 -0.023 -0.038 -0.037l-0.311 -0.173 0.066 -0.037 0.274 0.16 0.003 0c0.015 0 0.032 0.005 0.048 0.014 0.034 0.019 0.051 0.051 0.04 0.071M0.249 0.184a0.027 0.027 0 0 1 -0.01 -0.038l0.014 -0.024a0.028 0.028 0 0 1 0.038 -0.01l0.664 0.387 -0.069 0.04zm0.581 0.387 -0.058 0.034c-0.359 0.034 -0.622 0.145 -0.622 0.278 0 0.16 0.381 0.289 0.851 0.289 0.47 0 0.851 -0.129 0.851 -0.289 0 -0.133 -0.264 -0.244 -0.622 -0.278l-0.058 -0.034c0.42 0.028 0.737 0.157 0.737 0.312 0 0.072 -0.068 0.138 -0.184 0.192 -0.019 0.004 -0.033 0.01 -0.039 0.017 -0.166 0.067 -0.411 0.109 -0.684 0.109 -0.273 0 -0.518 -0.042 -0.684 -0.109 -0.006 -0.007 -0.02 -0.013 -0.039 -0.017 -0.115 -0.053 -0.184 -0.12 -0.184 -0.192 0 -0.155 0.317 -0.284 0.737 -0.312m0.532 0.633c0.118 -0.018 0.227 -0.045 0.318 -0.079v0.09c0 0.002 0.001 0.003 0.001 0.004 -0.076 0.03 -0.178 0.057 -0.313 0.075v-0.079c0 -0.004 -0.002 -0.008 -0.006 -0.011m-0.164 0.019v0.087c-0.061 0.004 -0.127 0.006 -0.198 0.006s-0.137 -0.002 -0.198 -0.006v-0.087c0.066 0.005 0.132 0.008 0.198 0.008s0.133 -0.003 0.198 -0.008m-0.561 -0.019c-0.004 0.003 -0.006 0.007 -0.006 0.011v0.079c-0.135 -0.018 -0.237 -0.045 -0.313 -0.074a0.013 0.013 0 0 0 0.001 -0.005V1.125c0.091 0.035 0.2 0.061 0.318 0.079M0.093 1.057v-0.082c0.025 0.036 0.064 0.069 0.114 0.098 -0.034 0.004 -0.058 0.015 -0.058 0.027v0.025c-0.045 -0.039 -0.057 -0.068 -0.057 -0.068m0.083 0.6c-0.016 0.005 -0.026 0.012 -0.026 0.021v0.025c-0.045 -0.039 -0.057 -0.068 -0.057 -0.068V1.552c0.019 0.028 0.048 0.054 0.083 0.078zm0 -0.064c-0.053 -0.04 -0.083 -0.085 -0.083 -0.132 0 -0.039 0.02 -0.076 0.057 -0.111v0.111c0 0.025 0.009 0.048 0.026 0.071zm0.113 0.19c-0.009 0.004 -0.027 0.008 -0.055 0.008s-0.046 -0.005 -0.055 -0.008V1.731a0.25 0.25 0 0 0 0.055 0.006c0.019 0 0.038 -0.002 0.055 -0.006zm-0.083 -0.106V1.243c0.009 0.001 0.018 0.002 0.028 0.002s0.019 -0.001 0.028 -0.002v0.434c0 0.008 -0.013 0.015 -0.028 0.015s-0.028 -0.007 -0.028 -0.015m0.083 -0.472c-0.009 0.004 -0.027 0.008 -0.055 0.008s-0.046 -0.005 -0.055 -0.008v-0.052a0.25 0.25 0 0 0 0.055 0.006c0.019 0 0.038 -0.002 0.055 -0.006zm0.342 0.588v0.079c-0.135 -0.018 -0.237 -0.045 -0.313 -0.074a0.013 0.013 0 0 0 0.001 -0.005v-0.09c0.091 0.035 0.2 0.061 0.318 0.079 -0.004 0.003 -0.006 0.007 -0.006 0.011m0.026 -0.038c-0.133 -0.019 -0.25 -0.048 -0.342 -0.086 -0.004 -0.005 -0.012 -0.009 -0.023 -0.012v-0.036c0.09 0.045 0.216 0.082 0.365 0.104zm0.113 0.144c-0.009 0.004 -0.027 0.008 -0.055 0.008s-0.046 -0.005 -0.055 -0.008v-0.052a0.25 0.25 0 0 0 0.055 0.006c0.019 0 0.038 -0.002 0.055 -0.006zm-0.083 -0.106V1.358a0.234 0.234 0 0 0 0.057 0v0.435c0 0.008 -0.013 0.015 -0.028 0.015s-0.028 -0.007 -0.028 -0.015m0.083 -0.472c-0.009 0.004 -0.027 0.008 -0.055 0.008s-0.046 -0.005 -0.055 -0.008v-0.052a0.25 0.25 0 0 0 0.055 0.006 0.25 0.25 0 0 0 0.055 -0.006zm0.427 0.567c-0.061 0.004 -0.127 0.006 -0.198 0.006s-0.138 -0.002 -0.198 -0.006v-0.087c0.066 0.005 0.132 0.008 0.198 0.008s0.133 -0.003 0.198 -0.008zm0.026 -0.12c-0.072 0.006 -0.147 0.01 -0.225 0.01s-0.153 -0.004 -0.225 -0.01v-0.029c0.072 0.007 0.147 0.011 0.225 0.011s0.153 -0.004 0.225 -0.011zm0.113 0.13c-0.009 0.004 -0.027 0.008 -0.055 0.008s-0.046 -0.005 -0.055 -0.008v-0.052a0.25 0.25 0 0 0 0.055 0.006c0.019 0 0.038 -0.002 0.055 -0.006zm-0.083 -0.106V1.358a0.231 0.231 0 0 0 0.057 0v0.435c0 0.008 -0.013 0.015 -0.028 0.015s-0.028 -0.007 -0.028 -0.015m0.083 -0.472c-0.009 0.004 -0.027 0.008 -0.055 0.008s-0.046 -0.005 -0.055 -0.008v-0.052a0.25 0.25 0 0 0 0.055 0.006c0.019 0 0.038 -0.002 0.055 -0.006zm0.03 0.551v-0.079c0 -0.004 -0.002 -0.008 -0.006 -0.011 0.118 -0.018 0.227 -0.045 0.318 -0.079v0.09c0 0.002 0.001 0.003 0.001 0.005 -0.076 0.03 -0.178 0.057 -0.313 0.074m0.338 -0.215c-0.01 0.003 -0.018 0.008 -0.023 0.012 -0.093 0.037 -0.21 0.067 -0.342 0.086v-0.03c0.149 -0.022 0.275 -0.059 0.365 -0.104zm0.113 0.126c-0.009 0.004 -0.027 0.008 -0.055 0.008s-0.046 -0.005 -0.055 -0.008V1.731c0.017 0.004 0.036 0.006 0.055 0.006s0.038 -0.002 0.055 -0.006zm-0.083 -0.106V1.243c0.009 0.001 0.018 0.002 0.028 0.002s0.019 -0.001 0.028 -0.002v0.434c0 0.008 -0.013 0.015 -0.028 0.015s-0.028 -0.007 -0.028 -0.015m0.083 -0.472c-0.009 0.004 -0.027 0.008 -0.055 0.008s-0.046 -0.005 -0.055 -0.008v-0.052c0.017 0.004 0.036 0.006 0.055 0.006s0.038 -0.002 0.055 -0.006zm0.087 0.429s-0.011 0.029 -0.057 0.068v-0.025c0 -0.008 -0.01 -0.015 -0.026 -0.021v-0.027c0.035 -0.024 0.064 -0.05 0.083 -0.078zm0 -0.173c0 0.047 -0.03 0.092 -0.083 0.132v-0.061c0.017 -0.023 0.026 -0.047 0.026 -0.071v-0.109c0.036 0.034 0.057 0.071 0.057 0.109m-0.114 -0.388c0.05 -0.029 0.09 -0.062 0.114 -0.098v0.082s-0.011 0.029 -0.057 0.068v-0.025c0 -0.013 -0.024 -0.023 -0.058 -0.027" fill="#000000"/></svg>