<?xml version="1.0" encoding="iso-8859-1"?>
<!-- Generator: Adobe Illustrator 19.0.0, SVG Export Plug-In . SVG Version: 6.00 Build 0)  -->
<!-- License: CC0. Made by SVG Repo: https://www.svgrepo.com/svg/264987/error -->
<svg version="1.1" id="Layer_1" xmlns="http://www.w3.org/2000/svg" xmlns:xlink="http://www.w3.org/1999/xlink" x="0px" y="0px"
	 viewBox="0 0 472.615 472.615" style="enable-background:new 0 0 472.615 472.615;" xml:space="preserve">
<g>
	<g>
		<path d="M236.308,98.428c-21.717,0-39.385,17.663-39.385,39.385v68.923c0,21.721,17.668,39.385,39.385,39.385
			s39.385-17.664,39.385-39.385v-68.923C275.692,116.091,258.024,98.428,236.308,98.428z"/>
	</g>
</g>
<g>
	<g>
		<polygon points="66.851,206.736 118.154,206.736 118.154,123.37 		"/>
	</g>
</g>
<g>
	<g>
		<polygon points="332.698,206.736 384,206.736 384,123.37 		"/>
	</g>
</g>
<g>
	<g>
		<path d="M0,0v324.89h472.615V0H0z M167.385,226.428h-29.538v39.385h-19.692v-39.385H49.231c-3.567,0-6.856-1.933-8.596-5.038
			c-1.741-3.115-1.659-6.933,0.211-9.971l78.769-128c2.303-3.75,6.808-5.51,11.068-4.308c4.235,1.192,7.163,5.067,7.163,9.471
			v118.154h29.538V226.428z M295.385,206.736c0,32.577-26.5,59.077-59.077,59.077s-59.077-26.5-59.077-59.077v-68.923
			c0-32.577,26.5-59.077,59.077-59.077s59.077,26.5,59.077,59.077V206.736z M433.231,226.428h-29.538v39.385H384v-39.385h-68.923
			c-3.567,0-6.856-1.933-8.596-5.038c-1.741-3.115-1.659-6.933,0.211-9.971l78.769-128c2.298-3.75,6.799-5.51,11.068-4.308
			c4.235,1.192,7.163,5.067,7.163,9.471v118.154h29.538V226.428z"/>
	</g>
</g>
<g>
	<g>
		<polygon points="472.615,393.846 472.615,344.582 0,344.582 0,393.846 147.692,393.846 147.692,452.923 108.308,452.923 
			108.308,472.615 364.308,472.615 364.308,452.923 324.923,452.923 324.923,393.846 		"/>
	</g>
</g>
</svg>
