<?xml version="1.0" ?><svg data-name="Layer 1" id="Layer_1" viewBox="0 0 512 512" xmlns="http://www.w3.org/2000/svg"><path d="M485.34,475H470.08V441.71a66.06,66.06,0,0,0-20.58-47.92,5.29,5.29,0,0,0-.52-.54l-.16-.11A66.33,66.33,0,0,0,425,379a44,44,0,0,0,22.7-38.44V288.79l6.86-3.42v23.21a5.1,5.1,0,0,0,10.2,0V277.12a4.73,4.73,0,0,0,0-.65l0-.16a3.21,3.21,0,0,0-.11-.52s0-.07,0-.11c-.07-.2-.14-.41-.23-.61l0-.06c-.08-.17-.17-.34-.26-.5a.75.75,0,0,1-.07-.12,5.09,5.09,0,0,0-.81-1l-.1-.09a4.78,4.78,0,0,0-.5-.39h0a5.88,5.88,0,0,0-.6-.35h0l-18.1-9V209.79a5.09,5.09,0,0,0-3-4.64l-193.9-89v-8.51c5.09-1.86,17.26-4.51,32.59,4.32,21.28,12.26,39.52-1.3,46.19-10.18a5.06,5.06,0,0,0,1-3.06V31.94a5.1,5.1,0,0,0-9.17-3.06c-.57.75-14.1,18.34-33,7.47C263.72,24.28,245.11,35,238.18,42.3a5.1,5.1,0,0,0-1.39,3.5v70.39l-193.91,89a5.1,5.1,0,0,0-3,4.64V475H26.66a5.1,5.1,0,1,0,0,10.2H485.34a5.1,5.1,0,0,0,0-10.2ZM247,48c4.1-3.48,16.67-12,32.59-2.84,14.74,8.49,28,4.59,37-1.56V96.92c-3.54,4-15.78,15.55-31.93,6.24-10-5.78-19.12-7.54-26.49-7.54A44.54,44.54,0,0,0,247,97Zm191.4,349.6-34.57,39.69-34.57-39.68a55.89,55.89,0,0,1,69.14,0Zm-34.57-23.39a33.75,33.75,0,0,1-33.71-33.72v-3.79h67.42v3.79A33.76,33.76,0,0,1,403.82,374.24Zm33.71-47.71H370.11V293.89l31.43,15.68a5.09,5.09,0,0,0,2.28.54,5,5,0,0,0,2.27-.54l31.44-15.68Zm-33.71-27.21-44.46-22.2,44.46-22.19,31,15.47a5.07,5.07,0,0,0,3.74,1.87l9.72,4.85ZM50.11,213.06l191.78-88,191.78,88v45.37l-27.58-13.76a5.13,5.13,0,0,0-4.55,0l-55.87,27.89a5.09,5.09,0,0,0,0,9.12l14.24,7.11v51.73A44,44,0,0,0,382.61,379a66.29,66.29,0,0,0-23.7,14.09l-.25.2a4.07,4.07,0,0,0-.54.56,66.06,66.06,0,0,0-20.56,47.9V475H291.09V312.85A36.93,36.93,0,0,0,254.2,276h-.64a36.92,36.92,0,0,0-36.88,36.89V475H179.6V312.85A36.93,36.93,0,0,0,142.71,276h-.64a36.93,36.93,0,0,0-36.89,36.89V475H50.11ZM115.38,475V312.85a26.72,26.72,0,0,1,26.69-26.69h.64a26.72,26.72,0,0,1,26.69,26.69V475Zm111.5,0V312.85a26.71,26.71,0,0,1,26.68-26.69h.64a26.72,26.72,0,0,1,26.69,26.69V475Zm120.88,0V441.71a55.82,55.82,0,0,1,14.06-37.07L400,448.44a5.12,5.12,0,0,0,7.69,0l38.16-43.8a55.82,55.82,0,0,1,14.06,37.07V475H347.76Z"/><path d="M241.89,239.21A43.86,43.86,0,1,0,198,195.35,43.91,43.91,0,0,0,241.89,239.21Zm0-77.51a33.66,33.66,0,1,1-33.66,33.65A33.69,33.69,0,0,1,241.89,161.7Z"/><path d="M241.89,200.45h17a5.1,5.1,0,1,0,0-10.2H247V173.1a5.1,5.1,0,0,0-10.2,0v22.25A5.1,5.1,0,0,0,241.89,200.45Z"/></svg>