<svg version="1.1" id="Layer_1" xmlns="http://www.w3.org/2000/svg" xmlns:xlink="http://www.w3.org/1999/xlink" x="0px" y="0px" viewBox="0 0 50 50" style="enable-background:new 0 0 512 512;" xml:space="preserve" width="50" height="50"><g><path x="471.149" y="8.17" style="fill:#F1ECDE;" width="32.681" height="495.66" d="M46.011 0.798H49.202V49.202H46.011V0.798z"/><path style="fill:#F1ECDE;" points="503.83,8.17 503.83,503.83 471.149,503.83 438.468,256 471.149,8.17 	" d="M49.202 0.798L49.202 49.202L46.011 49.202L42.819 25L46.011 0.798Z"/></g><path style="fill:#E2D8BD;" points="471.149,8.17 471.149,503.83 438.468,503.83 405.787,256 438.468,8.17 " d="M46.011 0.798L46.011 49.202L42.819 49.202L39.628 25L42.819 0.798Z"/><path style="fill:#F1ECDE;" points="438.468,8.17 438.468,503.83 405.787,503.83 373.106,256 405.787,8.17 " d="M42.819 0.798L42.819 49.202L39.628 49.202L36.436 25L39.628 0.798Z"/><path style="fill:#F16831;" d="M39.628 0.798v48.404H2.394c-0.881 0 -1.596 -0.715 -1.596 -1.596s0.715 -1.596 1.596 -1.596V3.989c-0.881 0 -1.596 -0.715 -1.596 -1.596s0.715 -1.596 1.596 -1.596z"/><path style="fill:#FCD197;" d="M36.436 7.181v35.638c-1.763 0 -3.192 1.429 -3.192 3.192H8.777c0 -1.763 -1.429 -3.192 -3.192 -3.192V7.181c1.763 0 3.192 -1.429 3.192 -3.192h24.468c0 1.763 1.429 3.192 3.192 3.192"/><path style="fill:#68615B;" d="M27.959 21.042H14.062c-1.308 1.568 -2.094 3.586 -2.094 5.787 0 4.994 4.049 9.043 9.043 9.043s9.043 -4.049 9.043 -9.043c0 -2.201 -0.787 -4.219 -2.094 -5.787"/><g><path style="fill:#440852;" d="m13.733 33.447 -0.861 2.126a0.798 0.798 0 1 0 1.479 0.599l0.634 -1.567c1.666 1.294 3.757 2.065 6.025 2.065s4.358 -0.771 6.025 -2.065l0.634 1.567a0.798 0.798 0 0 0 0.74 0.499 0.798 0.798 0 0 0 0.739 -1.098l-0.861 -2.126c1.592 -1.749 2.563 -4.072 2.563 -6.617 0 -1.831 -0.515 -3.622 -1.467 -5.167a0.798 0.798 0 0 0 -0.501 -1.419H15.958v-2.394c0 -2.786 2.267 -5.053 5.053 -5.053s5.053 2.267 5.053 5.053v1.064a0.798 0.798 0 0 0 0.798 0.798 0.798 0.798 0 0 0 0.798 -0.798v-1.064c0 -3.666 -2.983 -6.649 -6.649 -6.649s-6.649 2.983 -6.649 6.649v2.394h-1.223a0.798 0.798 0 0 0 -0.501 1.419c-0.952 1.544 -1.467 3.335 -1.467 5.167 0 2.545 0.971 4.868 2.563 6.617m7.277 1.627c-4.546 0 -8.245 -3.699 -8.245 -8.245a8.256 8.256 0 0 1 1.681 -4.99h13.127a8.257 8.257 0 0 1 1.681 4.99c0 4.546 -3.699 8.245 -8.245 8.245"/><path style="fill:#440852;" d="M46.809 46.011V3.989a0.798 0.798 0 0 0 -0.798 -0.798 0.798 0.798 0 0 0 -0.798 0.798v42.021a0.798 0.798 0 0 0 0.798 0.798 0.798 0.798 0 0 0 0.798 -0.798"/><path style="fill:#440852;" d="M42.819 46.808a0.798 0.798 0 0 0 0.798 -0.798V3.989a0.798 0.798 0 0 0 -0.798 -0.798 0.798 0.798 0 0 0 -0.798 0.798v42.021a0.798 0.798 0 0 0 0.798 0.798"/><path style="fill:#440852;" d="M39.628 0H2.394C1.074 0 0 1.074 0 2.394c0 1.04 0.667 1.928 1.596 2.257v40.699C0.667 45.679 0 46.566 0 47.606 0 48.926 1.074 50 2.394 50h37.234a0.798 0.798 0 0 0 0.798 -0.798V0.798A0.798 0.798 0 0 0 39.628 0m-0.798 48.404H2.394c-0.44 0 -0.798 -0.358 -0.798 -0.798s0.358 -0.798 0.798 -0.798a0.798 0.798 0 0 0 0.798 -0.798V3.989a0.798 0.798 0 0 0 -0.798 -0.798c-0.44 0 -0.798 -0.358 -0.798 -0.798s0.358 -0.798 0.798 -0.798h36.436z"/><path style="fill:#440852;" d="M49.202 0h-6.383c-0.441 0 -0.798 0.357 -0.798 0.798s0.357 0.798 0.798 0.798h5.585v46.809h-5.585c-0.441 0 -0.798 0.357 -0.798 0.798s0.357 0.798 0.798 0.798h6.383a0.798 0.798 0 0 0 0.798 -0.798V0.798A0.798 0.798 0 0 0 49.202 0"/><path style="fill:#440852;" d="M5.585 43.617c1.32 0 2.394 1.074 2.394 2.394a0.798 0.798 0 0 0 0.798 0.798h24.468a0.798 0.798 0 0 0 0.798 -0.798c0 -1.32 1.074 -2.394 2.394 -2.394a0.798 0.798 0 0 0 0.798 -0.798V7.181a0.798 0.798 0 0 0 -0.798 -0.798c-1.32 0 -2.394 -1.074 -2.394 -2.394a0.798 0.798 0 0 0 -0.798 -0.798H8.777a0.798 0.798 0 0 0 -0.798 0.798c0 1.32 -1.074 2.394 -2.394 2.394a0.798 0.798 0 0 0 -0.798 0.798v35.638a0.798 0.798 0 0 0 0.798 0.798m0.798 -35.718c1.561 -0.318 2.793 -1.551 3.111 -3.111h23.033c0.318 1.561 1.551 2.793 3.111 3.111v34.203c-1.561 0.318 -2.793 1.551 -3.111 3.111H9.494c-0.318 -1.561 -1.551 -2.793 -3.111 -3.111V7.899z"/></g></svg>