<svg width="50px" height="50px" viewBox="0 -0.604 24.115 24.115" xmlns="http://www.w3.org/2000/svg"><defs><style>.a{fill:#fcd8d7;}.b{fill:#f8b1af;}.c{fill:#211715;}.d{fill:#ffffff;}.e{fill:#3f88c9;}.f{fill:#79c6e0;}.g{fill:#ffda71;}.h{fill:#bd957a;}.i{fill:#f2635f;}</style></defs><path class="a" d="M22.775 5.092a1.063 1.063 0 0 0 -0.079 0.329 1.031 1.031 0 0 0 0.102 0.45 1.113 1.113 0 0 0 0.391 0.408c0.117 0.067 0.409 0.182 0.605 0.144 0.208 -0.225 0.218 -0.582 0.169 -0.884 -0.044 -0.273 -0.327 -0.574 -0.565 -0.715 -0.085 0.152 -0.146 0.287 -0.227 0.426 -0.071 -0.03 -0.253 -0.101 -0.396 -0.158"/><path class="a" d="M1.456 2.741a1.5 1.5 0 0 1 0.284 -0.15 0.981 0.981 0 0 1 0.439 -0.011 0.929 0.929 0 0 1 0.398 0.206c0.099 0.081 0.238 0.266 0.249 0.456 -0.158 0.245 -0.432 0.46 -0.721 0.485 -0.263 0.023 -0.565 -0.163 -0.75 -0.35 0.12 -0.114 0.23 -0.201 0.339 -0.308 -0.044 -0.059 -0.152 -0.209 -0.238 -0.328"/><path class="b" d="M0.164 7.033a1.206 1.206 0 0 1 -0.029 -0.436 0.784 0.784 0 0 1 0.16 -0.426c0.292 -0.398 0.727 -0.491 1.195 -0.498a0.188 0.188 0 0 1 0.069 0.008c0.141 0.053 0.209 0.415 0.228 0.543a1.289 1.289 0 0 1 -0.054 0.629c-0.122 0.335 -0.441 0.609 -0.777 0.73 -0.071 -0.212 -0.09 -0.432 -0.123 -0.654 -0.165 0.021 -0.457 0.095 -0.668 0.104"/><path class="b" d="M22.113 2.382a1.719 1.719 0 0 1 -0.001 0.367 1.125 1.125 0 0 1 -0.224 0.449 1.063 1.063 0 0 1 -0.421 0.292c-0.135 0.056 -0.397 0.098 -0.594 0.008 -0.163 -0.291 -0.234 -0.682 -0.105 -0.988 0.117 -0.277 0.467 -0.483 0.755 -0.571 0.051 0.182 0.08 0.34 0.13 0.508 0.083 -0.013 0.293 -0.042 0.46 -0.065"/><path class="b" d="M4.307 1.394a2.294 2.294 0 0 1 0.107 -0.478c0.076 -0.193 0.284 -0.412 0.421 -0.52A1.419 1.419 0 0 1 5.469 0.136c0.192 -0.034 0.545 -0.013 0.776 0.161 0.128 0.426 0.107 0.956 -0.149 1.318 -0.232 0.328 -0.748 0.495 -1.148 0.525 -0.013 -0.252 -0.006 -0.467 -0.022 -0.699 -0.112 -0.007 -0.394 -0.031 -0.617 -0.048"/><path class="c" d="M1.519 2.849a0.9 0.9 0 0 1 0.334 -0.157 0.838 0.838 0 0 1 0.353 0.024c0.226 0.068 0.473 0.277 0.495 0.526l0.017 -0.063c-0.135 0.204 -0.356 0.395 -0.608 0.423 -0.249 0.028 -0.499 -0.146 -0.667 -0.313v0.177c0.111 -0.105 0.229 -0.202 0.339 -0.308a0.126 0.126 0 0 0 0.02 -0.151c-0.081 -0.108 -0.159 -0.219 -0.239 -0.329a0.129 0.129 0 0 0 -0.171 -0.045 0.126 0.126 0 0 0 -0.045 0.171c0.08 0.109 0.157 0.22 0.239 0.328l0.019 -0.151c-0.11 0.106 -0.228 0.203 -0.339 0.308a0.127 0.127 0 0 0 0 0.177c0.181 0.179 0.419 0.339 0.675 0.378 0.268 0.041 0.523 -0.07 0.727 -0.238a1.087 1.087 0 0 0 0.266 -0.3c0.061 -0.114 -0.037 -0.307 -0.098 -0.404a1.002 1.002 0 0 0 -0.632 -0.443 1.181 1.181 0 0 0 -0.417 -0.007 1.113 1.113 0 0 0 -0.394 0.182c-0.135 0.087 -0.01 0.303 0.126 0.216"/><path class="c" d="M0.285 7a0.889 0.889 0 0 1 0.168 -0.826 1.14 1.14 0 0 1 0.699 -0.351 2 2 0 0 1 0.196 -0.02c0.031 -0.002 0.063 -0.003 0.094 -0.004 0.015 0 0.033 0.001 0.048 -0.001 0.036 -0.005 0.01 -0.008 0.027 0.002 -0.009 -0.005 0.015 0.017 0.017 0.02a0.375 0.375 0 0 1 0.036 0.065 0.956 0.956 0 0 1 0.051 0.153c0.069 0.262 0.087 0.547 -0.018 0.803 -0.119 0.29 -0.392 0.514 -0.681 0.621l0.154 0.087a4 4 0 0 1 -0.123 -0.654 0.124 0.124 0 0 0 -0.12 -0.092c-0.223 0.03 -0.443 0.092 -0.668 0.104 -0.16 0.009 -0.161 0.259 0 0.25 0.227 -0.012 0.444 -0.075 0.668 -0.104l-0.121 -0.092a4 4 0 0 0 0.123 0.654 0.126 0.126 0 0 0 0.154 0.087c0.333 -0.123 0.643 -0.358 0.805 -0.68 0.158 -0.313 0.159 -0.671 0.08 -1.006 -0.031 -0.13 -0.073 -0.277 -0.165 -0.378 -0.113 -0.123 -0.292 -0.093 -0.442 -0.079 -0.336 0.03 -0.665 0.128 -0.917 0.362a1.063 1.063 0 0 0 -0.304 0.471A1.3 1.3 0 0 0 0.044 7.066c0.041 0.155 0.282 0.089 0.241 -0.066"/><path class="c" d="M21.988 2.382c0.013 0.147 0.026 0.303 -0.025 0.443a0.956 0.956 0 0 1 -0.232 0.36c-0.193 0.182 -0.533 0.317 -0.793 0.206l0.045 0.045a1.13 1.13 0 0 1 -0.065 -0.91c0.099 -0.251 0.4 -0.391 0.64 -0.465l-0.154 -0.087c0.046 0.169 0.081 0.34 0.13 0.508a0.129 0.129 0 0 0 0.154 0.087c0.153 -0.024 0.306 -0.044 0.459 -0.065a0.126 0.126 0 0 0 0.087 -0.154 0.128 0.128 0 0 0 -0.154 -0.087c-0.153 0.022 -0.307 0.041 -0.46 0.065l0.154 0.087c-0.049 -0.168 -0.084 -0.339 -0.13 -0.508a0.127 0.127 0 0 0 -0.154 -0.087c-0.256 0.079 -0.521 0.21 -0.691 0.423 -0.183 0.23 -0.219 0.554 -0.184 0.838a1.363 1.363 0 0 0 0.128 0.44c0.072 0.145 0.28 0.161 0.427 0.156a1.132 1.132 0 0 0 0.79 -0.369 1.306 1.306 0 0 0 0.243 -0.414c0.058 -0.162 0.049 -0.342 0.034 -0.51 -0.013 -0.159 -0.264 -0.161 -0.25 0"/><path class="c" d="M4.428 1.427c0.028 -0.209 0.06 -0.428 0.18 -0.606a1.306 1.306 0 0 1 0.434 -0.412c0.338 -0.187 0.813 -0.241 1.14 -0.003l-0.057 -0.075C6.239 0.725 6.24 1.219 5.981 1.56c-0.228 0.302 -0.675 0.426 -1.034 0.455l0.125 0.125c-0.012 -0.233 -0.007 -0.466 -0.022 -0.699a0.128 0.128 0 0 0 -0.125 -0.125c-0.206 -0.013 -0.412 -0.032 -0.618 -0.048 -0.16 -0.013 -0.16 0.237 0 0.25 0.206 0.016 0.411 0.035 0.618 0.048l-0.125 -0.125c0.015 0.233 0.011 0.466 0.022 0.699a0.126 0.126 0 0 0 0.125 0.125c0.362 -0.029 0.741 -0.134 1.033 -0.358 0.313 -0.24 0.449 -0.627 0.464 -1.012a1.956 1.956 0 0 0 -0.067 -0.586c-0.027 -0.101 -0.097 -0.147 -0.188 -0.191A1.119 1.119 0 0 0 5.898 0.022 1.472 1.472 0 0 0 4.794 0.271a1.656 1.656 0 0 0 -0.427 0.464c-0.114 0.188 -0.151 0.412 -0.179 0.626a0.129 0.129 0 0 0 0.087 0.154 0.126 0.126 0 0 0 0.153 -0.087"/><path class="c" d="M22.667 5.029a1.056 1.056 0 0 0 -0.097 0.445 1.169 1.169 0 0 0 0.105 0.427 1.113 1.113 0 0 0 0.584 0.549 1.319 1.319 0 0 0 0.391 0.103 0.379 0.379 0 0 0 0.207 -0.021 0.469 0.469 0 0 0 0.142 -0.184c0.134 -0.258 0.139 -0.582 0.081 -0.862 -0.066 -0.321 -0.347 -0.605 -0.619 -0.769a0.127 0.127 0 0 0 -0.171 0.045c-0.078 0.141 -0.147 0.286 -0.227 0.426l0.141 -0.057c-0.131 -0.055 -0.264 -0.106 -0.397 -0.158a0.126 0.126 0 0 0 -0.154 0.087 0.128 0.128 0 0 0 0.087 0.154c0.132 0.053 0.265 0.104 0.397 0.158a0.125 0.125 0 0 0 0.141 -0.057c0.08 -0.139 0.149 -0.285 0.227 -0.426l-0.171 0.045c0.222 0.134 0.456 0.365 0.506 0.63 0.047 0.25 0.044 0.572 -0.135 0.772l0.055 -0.032c-0.133 0.022 -0.287 -0.032 -0.409 -0.083a0.919 0.919 0 0 1 -0.325 -0.238 0.781 0.781 0 0 1 -0.145 -0.827 0.129 0.129 0 0 0 -0.045 -0.171 0.126 0.126 0 0 0 -0.172 0.045"/><path class="d" d="M19.469 11.096c-0.018 -0.007 -0.248 -0.117 -0.26 -0.121 -0.176 -0.098 -0.214 -0.247 -0.236 -0.38a2.25 2.25 0 0 1 -0.019 -0.125c0.435 -0.198 0.782 -0.755 0.844 -0.911 0.011 -0.032 0.036 -0.097 0.056 -0.172l0.031 0.009a0.206 0.206 0 0 0 0.207 -0.048 0.688 0.688 0 0 0 0.177 -0.232 1.077 1.077 0 0 0 0.11 -0.571 0.359 0.359 0 0 0 -0.037 -0.144 0.254 0.254 0 0 0 -0.183 -0.121 0.269 0.269 0 0 0 -0.215 0.063 0.259 0.259 0 0 1 -0.235 0.024 0.146 0.146 0 0 1 -0.083 -0.139 1.675 1.675 0 0 0 -0.368 -0.815c-0.07 -0.081 -0.191 -0.195 -0.29 -0.226l-0.054 -0.017a3.313 3.313 0 0 1 -0.367 0.15c-0.095 0.033 -0.22 0.057 -0.289 -0.004 -0.066 -0.057 -0.039 -0.161 -0.117 -0.207a0.265 0.265 0 0 0 -0.191 -0.004c-0.667 0.167 -1.069 0.572 -1.317 1.087a0.263 0.263 0 0 1 -0.228 0.173 0.24 0.24 0 0 1 -0.108 -0.023 0.269 0.269 0 0 0 -0.215 -0.063 0.254 0.254 0 0 0 -0.183 0.121 0.359 0.359 0 0 0 -0.037 0.144 1.077 1.077 0 0 0 0.11 0.571 0.684 0.684 0 0 0 0.177 0.232 0.258 0.258 0 0 0 0.233 0.074l0.046 -0.013a1.938 1.938 0 0 0 0.384 0.652 1.706 1.706 0 0 0 0.613 0.452c-0.003 0.023 -0.007 0.05 -0.013 0.081 -0.023 0.133 -0.061 0.282 -0.236 0.38 -0.013 0.004 -0.242 0.113 -0.261 0.121 0 0 0.231 1.077 1.246 1.077s1.31 -1.077 1.31 -1.077"/><path class="d" d="M21.733 15.377a2.375 2.375 0 0 0 0.163 0.338 4.563 4.563 0 0 0 0.577 0.658c0.156 0.146 0.336 0.313 0.329 0.526a0.156 0.156 0 0 1 -0.152 0.171c-0.138 0.018 -0.271 -0.047 -0.391 -0.117a3.275 3.275 0 0 1 -0.401 -0.277c-0.029 0.138 -0.188 0.203 -0.326 0.186a0.196 0.196 0 0 1 -0.163 -0.171c-0.028 -0.146 -0.049 -0.278 -0.06 -0.34 -0.013 -0.067 -0.038 -0.219 -0.057 -0.285l-0.133 -0.618"/><path class="d" d="M14.637 15.377a2.375 2.375 0 0 1 -0.163 0.338 4.563 4.563 0 0 1 -0.577 0.658c-0.156 0.146 -0.336 0.313 -0.329 0.526a0.156 0.156 0 0 0 0.152 0.171c0.138 0.018 0.271 -0.047 0.391 -0.117a3.275 3.275 0 0 0 0.401 -0.277c0.029 0.138 0.188 0.203 0.326 0.186a0.196 0.196 0 0 0 0.163 -0.171c0.028 -0.146 0.049 -0.278 0.06 -0.34 0.013 -0.067 0.038 -0.219 0.057 -0.285l0.133 -0.618"/><path class="d" d="M16.986 22.444a1.587 1.587 0 0 1 -0.298 0.231 0.994 0.994 0 0 1 -0.581 0.097 0.609 0.609 0 0 1 -0.293 -0.115 0.417 0.417 0 0 1 -0.16 -0.289c-0.013 -0.166 0.077 -0.323 0.183 -0.44 0.247 -0.275 0.507 -0.545 0.732 -0.841a0.117 0.117 0 0 1 0.139 -0.044c0.131 0.057 0.289 0.055 0.475 0.059a0.721 0.721 0 0 0 0.464 -0.162c0.143 -0.109 0.169 0.374 0.173 0.477 0.005 0.163 0.029 0.378 -0.086 0.499 -0.083 0.087 -0.226 0.147 -0.327 0.205a2.288 2.288 0 0 0 -0.421 0.324"/><path class="d" d="M19.53 22.444a1.55 1.55 0 0 0 0.291 0.231 0.947 0.947 0 0 0 0.566 0.097 0.585 0.585 0 0 0 0.286 -0.115 0.419 0.419 0 0 0 0.156 -0.289c0.012 -0.166 -0.075 -0.323 -0.178 -0.44 -0.24 -0.275 -0.494 -0.545 -0.714 -0.841a0.113 0.113 0 0 0 -0.136 -0.044c-0.128 0.057 -0.281 0.055 -0.463 0.059a0.692 0.692 0 0 1 -0.452 -0.162c-0.139 -0.109 -0.165 0.374 -0.168 0.477 -0.005 0.163 -0.029 0.378 0.084 0.499 0.081 0.087 0.22 0.147 0.319 0.205a2.237 2.237 0 0 1 0.41 0.324"/><path class="d" d="M16.656 20.939c0.028 -0.265 0.036 -0.846 0.043 -1.306 0.32 0.003 0.816 0.003 1.134 0.001l-0.004 0.043c-0.027 0.248 -0.1 0.844 -0.142 1.23a0.74 0.74 0 0 1 -0.503 0.193c-0.216 -0.004 -0.394 0 -0.536 -0.091 0.003 -0.02 0.006 -0.044 0.009 -0.071"/><path class="d" d="M19.817 20.982c-0.032 -0.225 -0.064 -0.862 -0.071 -1.327v-0.021c-0.329 0.002 -0.795 0.002 -1.089 0 0.002 0.027 0.004 0.044 0.004 0.044 0.024 0.223 0.062 0.755 0.099 1.145 0.16 0.166 0.344 0.283 0.579 0.278 0.193 -0.004 0.355 -0.001 0.487 -0.071a0.75 0.75 0 0 1 -0.008 -0.049"/><path class="c" d="M16.898 22.356c-0.15 0.139 -0.296 0.246 -0.501 0.287 -0.188 0.037 -0.453 0.019 -0.571 -0.154 -0.123 -0.181 0.016 -0.38 0.139 -0.516 0.164 -0.181 0.331 -0.36 0.49 -0.546q0.057 -0.067 0.113 -0.136 0.028 -0.034 0.055 -0.069c0.01 -0.013 0.035 -0.06 0.052 -0.064 -0.02 0.005 0.018 0.013 0.023 0.015a0.563 0.563 0 0 0 0.065 0.02 1.1 1.1 0 0 0 0.176 0.026c0.215 0.018 0.428 0.017 0.626 -0.079a0.9 0.9 0 0 0 0.127 -0.076c0.039 -0.028 0.02 -0.011 0.015 -0.016l-0.018 0.002a0.073 0.073 0 0 1 -0.055 -0.022c0.016 0.004 -0.007 -0.014 0.003 0.005 0.017 0.031 -0.008 -0.024 0.006 0.013a0.625 0.625 0 0 1 0.025 0.095 1.9 1.9 0 0 1 0.029 0.298 1.087 1.087 0 0 1 -0.008 0.298c-0.024 0.099 -0.1 0.144 -0.185 0.191a3.125 3.125 0 0 0 -0.299 0.175 3.188 3.188 0 0 0 -0.307 0.255c-0.119 0.109 0.059 0.286 0.177 0.177a2.394 2.394 0 0 1 0.325 -0.262c0.097 -0.063 0.205 -0.108 0.302 -0.171a0.502 0.502 0 0 0 0.216 -0.257 0.931 0.931 0 0 0 0.031 -0.341c-0.007 -0.173 -0.008 -0.829 -0.333 -0.687a1.25 1.25 0 0 0 -0.124 0.079 0.606 0.606 0 0 1 -0.163 0.067 1.25 1.25 0 0 1 -0.391 0.007c-0.113 -0.009 -0.225 -0.081 -0.338 -0.049 -0.126 0.036 -0.205 0.19 -0.284 0.285 -0.185 0.221 -0.387 0.426 -0.575 0.644 -0.173 0.2 -0.282 0.471 -0.154 0.724 0.136 0.27 0.47 0.358 0.75 0.33a1.137 1.137 0 0 0 0.431 -0.127 1.625 1.625 0 0 0 0.307 -0.242c0.119 -0.109 -0.058 -0.286 -0.177 -0.177"/><path class="c" d="M16.574 19.629c-0.004 0.26 -0.007 0.52 -0.015 0.78a12.875 12.875 0 0 1 -0.013 0.333 4.875 4.875 0 0 1 -0.009 0.142q-0.002 0.026 -0.005 0.053l-0.003 0.029c-0.002 0.021 0.004 -0.029 0 0.003a0.129 0.129 0 0 0 0.087 0.154 0.126 0.126 0 0 0 0.154 -0.087 5.188 5.188 0 0 0 0.04 -0.605c0.008 -0.267 0.012 -0.534 0.016 -0.801 0.002 -0.161 -0.248 -0.161 -0.25 0Z"/><path class="c" d="M17.704 19.677c-0.046 0.421 -0.1 0.841 -0.146 1.262a0.126 0.126 0 0 0 0.125 0.125 0.128 0.128 0 0 0 0.125 -0.125c0.046 -0.421 0.1 -0.841 0.146 -1.262a0.126 0.126 0 0 0 -0.125 -0.125 0.128 0.128 0 0 0 -0.125 0.125"/><path class="c" d="M19.441 22.532c0.178 0.169 0.362 0.307 0.61 0.353 0.254 0.048 0.565 0.018 0.752 -0.181s0.185 -0.479 0.051 -0.708a2.031 2.031 0 0 0 -0.25 -0.31c-0.093 -0.105 -0.187 -0.209 -0.278 -0.316s-0.18 -0.213 -0.264 -0.325a0.313 0.313 0 0 0 -0.144 -0.124 0.275 0.275 0 0 0 -0.191 0.015 1.125 1.125 0 0 1 -0.346 0.037 0.602 0.602 0 0 1 -0.331 -0.075c-0.079 -0.046 -0.146 -0.123 -0.246 -0.096a0.236 0.236 0 0 0 -0.145 0.161 1.406 1.406 0 0 0 -0.064 0.418c-0.011 0.223 -0.034 0.489 0.152 0.651a2.313 2.313 0 0 0 0.335 0.207 2.188 2.188 0 0 1 0.361 0.291c0.117 0.111 0.294 -0.066 0.177 -0.177a2.531 2.531 0 0 0 -0.536 -0.399c-0.072 -0.039 -0.166 -0.08 -0.209 -0.154a0.459 0.459 0 0 1 -0.036 -0.234 3 3 0 0 1 0.023 -0.371 1.125 1.125 0 0 1 0.03 -0.141c0.001 -0.002 0.012 -0.042 0.005 -0.015 0.008 -0.031 0.007 -0.003 0.001 -0.008l0.006 -0.006a0.075 0.075 0 0 1 -0.056 0.022c-0.03 0 -0.043 -0.014 -0.004 0.014 0.185 0.135 0.382 0.168 0.607 0.162a1.5 1.5 0 0 0 0.279 -0.027 1 1 0 0 1 0.115 -0.038c-0.02 0.001 0.011 0.024 0.021 0.037 0.025 0.031 0.048 0.063 0.073 0.094 0.144 0.183 0.298 0.357 0.453 0.53 0.13 0.147 0.34 0.327 0.314 0.547 -0.029 0.241 -0.309 0.301 -0.509 0.287 -0.238 -0.017 -0.409 -0.141 -0.575 -0.299 -0.117 -0.111 -0.294 0.066 -0.177 0.177"/><path class="c" d="M19.62 19.655q0.006 0.39 0.028 0.779c0.011 0.198 0.021 0.398 0.05 0.595a0.126 0.126 0 0 0 0.154 0.087 0.128 0.128 0 0 0 0.087 -0.154 0.125 0.125 0 0 1 -0.003 -0.021q-0.003 -0.027 -0.006 -0.054 -0.007 -0.066 -0.012 -0.131a13.313 13.313 0 0 1 -0.022 -0.342q-0.02 -0.379 -0.026 -0.759c-0.003 -0.161 -0.253 -0.161 -0.25 0Z"/><path class="c" d="M18.535 19.678c0.047 0.435 0.068 0.873 0.115 1.309a0.129 0.129 0 0 0 0.125 0.125 0.126 0.126 0 0 0 0.125 -0.125c-0.047 -0.436 -0.068 -0.874 -0.115 -1.309a0.129 0.129 0 0 0 -0.125 -0.125 0.126 0.126 0 0 0 -0.125 0.125"/><path class="e" d="M16.828 19.634c-0.207 -0.001 -0.37 -0.004 -0.423 -0.007 -0.022 -0.165 0.013 -0.453 -0.004 -0.713v-0.16c0.088 0.006 0.17 0.011 0.239 0.012 0.435 0.009 1.621 0.046 1.639 0.046 0.366 0 0.974 -0.011 1.522 -0.029a4.5 4.5 0 0 0 0.321 -0.023l-0.004 0.155c-0.018 0.261 0.017 0.548 -0.004 0.713 -0.163 0.011 -1.372 0.009 -1.67 0.005 -0.004 -0.013 -0.007 -0.023 -0.007 -0.023 -0.035 -0.101 -0.068 -0.371 -0.098 -0.645h-0.157c-0.031 0.274 -0.063 0.544 -0.098 0.645 0 0 -0.003 0.01 -0.007 0.023 -0.201 0.003 -0.818 0.005 -1.247 0.002"/><path class="f" d="M14.501 15.252q-0.056 -0.029 -0.111 -0.061c0.252 -0.621 0.478 -1.335 0.73 -1.956 0.181 -0.445 0.36 -0.967 0.624 -1.368s0.907 -0.722 1.395 -0.849a1.497 1.497 0 0 0 2.054 -0.049c0.534 0.192 1.136 0.539 1.403 0.944 0.264 0.401 0.448 0.877 0.629 1.321 0.252 0.621 0.478 1.335 0.73 1.956a3.35 3.35 0 0 1 -1.173 0.406l-0.237 0.045c0.039 0.264 0.081 0.542 0.126 0.828 0.104 0.665 0.263 1.37 0.329 2.058a0.072 0.072 0 0 1 -0.057 0.091 6.206 6.206 0 0 1 -1.142 0.165c-0.548 0.019 -1.155 0.029 -1.522 0.029 -0.018 0 -1.204 -0.037 -1.639 -0.046 -0.326 -0.007 -0.931 -0.072 -1.153 -0.162a0.159 0.159 0 0 1 -0.083 -0.134c0.013 -0.439 0.087 -0.805 0.146 -1.245 0.068 -0.509 0.151 -1.067 0.23 -1.582 -0.111 -0.023 -0.217 -0.045 -0.217 -0.045a3.35 3.35 0 0 1 -1.063 -0.345"/><path class="d" d="M19.653 11.167a4.188 4.188 0 0 0 -0.461 -0.198 1.496 1.496 0 0 1 -2.053 0.049 3.25 3.25 0 0 0 -0.599 0.225 1.712 1.712 0 0 0 0.496 0.761l0.009 0.004a0.662 0.662 0 0 0 0.168 0.106 0.703 0.703 0 0 0 0.544 -0.019 1.363 1.363 0 0 0 0.402 -0.283 1.356 1.356 0 0 0 0.402 0.283 0.703 0.703 0 0 0 0.544 0.019 0.65 0.65 0 0 0 0.176 -0.114l-0.002 0.004a1.711 1.711 0 0 0 0.5 -0.772q-0.061 -0.033 -0.124 -0.065"/><path class="c" d="M16.276 18.914c0.014 0.237 -0.023 0.477 0.004 0.713a0.129 0.129 0 0 0 0.125 0.125c0.26 0.017 0.524 0.008 0.784 0.008 0.295 0 0.59 0.001 0.885 -0.003a0.128 0.128 0 0 0 0.12 -0.092c0.072 -0.223 0.084 -0.469 0.11 -0.701a0.126 0.126 0 0 0 -0.125 -0.125 0.128 0.128 0 0 0 -0.125 0.125c-0.024 0.211 -0.036 0.432 -0.101 0.635l0.121 -0.092c-0.295 0.004 -0.59 0.004 -0.885 0.003 -0.261 0 -0.524 0.009 -0.784 -0.008l0.125 0.125c-0.028 -0.236 0.01 -0.476 -0.004 -0.713 -0.01 -0.16 -0.26 -0.161 -0.25 0"/><path class="c" d="M19.992 18.914c-0.014 0.237 0.023 0.477 -0.004 0.713l0.125 -0.125c-0.26 0.017 -0.524 0.008 -0.784 0.008 -0.295 0 -0.59 0.001 -0.885 -0.003l0.121 0.092c-0.065 -0.203 -0.077 -0.424 -0.101 -0.635a0.129 0.129 0 0 0 -0.125 -0.125 0.126 0.126 0 0 0 -0.125 0.125c0.026 0.232 0.038 0.478 0.11 0.701a0.129 0.129 0 0 0 0.12 0.092c0.295 0.004 0.59 0.004 0.885 0.003 0.26 0 0.524 0.009 0.784 -0.008a0.129 0.129 0 0 0 0.125 -0.125c0.028 -0.236 -0.01 -0.476 0.004 -0.713 0.01 -0.161 -0.24 -0.16 -0.25 0"/><path class="c" d="M15.869 13.988c-0.054 0.595 -0.143 1.184 -0.233 1.774 -0.093 0.608 -0.174 1.218 -0.264 1.827 -0.022 0.147 -0.043 0.295 -0.06 0.442a2.4 2.4 0 0 0 -0.031 0.462c0.021 0.247 0.313 0.281 0.505 0.314a8.438 8.438 0 0 0 1.202 0.094q0.554 0.015 1.107 0.032c0.361 0.011 0.722 0.001 1.083 -0.007 0.29 -0.006 0.583 -0.007 0.872 -0.034a7 7 0 0 0 0.747 -0.112 1.563 1.563 0 0 0 0.17 -0.039c0.135 -0.044 0.163 -0.143 0.15 -0.273 -0.033 -0.319 -0.083 -0.637 -0.138 -0.953 -0.109 -0.623 -0.216 -1.246 -0.31 -1.871 -0.077 -0.517 -0.149 -1.035 -0.236 -1.55a12.75 12.75 0 0 0 -0.05 -0.279c-0.031 -0.158 -0.272 -0.091 -0.241 0.067 0.198 1.021 0.303 2.058 0.486 3.082 0.054 0.305 0.112 0.609 0.161 0.915 0.024 0.147 0.045 0.294 0.063 0.442q0.007 0.059 0.013 0.118c0.002 0.019 -0.001 0.086 0.01 0.097 0.013 0.013 0.022 -0.039 0.027 -0.036a0.125 0.125 0 0 0 -0.03 0.008 6.313 6.313 0 0 1 -1.367 0.159c-0.422 0.012 -0.848 0.031 -1.271 0.019q-0.466 -0.013 -0.931 -0.028c-0.358 -0.01 -0.718 -0.009 -1.075 -0.044a3.606 3.606 0 0 1 -0.613 -0.1 0.294 0.294 0 0 1 -0.079 -0.028c-0.025 -0.04 -0.002 -0.135 0.002 -0.181a6.25 6.25 0 0 1 0.045 -0.438q0.12 -0.877 0.252 -1.753c0.086 -0.572 0.179 -1.142 0.244 -1.717q0.023 -0.204 0.042 -0.409a0.126 0.126 0 0 0 -0.125 -0.125 0.128 0.128 0 0 0 -0.125 0.125Z"/><path class="c" d="M16.092 7.586a1.941 1.941 0 0 1 0.83 -1.415 2.036 2.036 0 0 1 1.208 -0.372 2.144 2.144 0 0 1 0.713 0.117 2.031 2.031 0 0 1 0.301 0.135 2.375 2.375 0 0 1 0.344 0.228c0.041 0.036 0.102 0.095 0.142 0.135a1.875 1.875 0 0 1 0.262 0.331 1.977 1.977 0 0 1 0.284 0.957 2.656 2.656 0 0 1 -0.037 0.576 0.269 0.269 0 0 0 -0.159 0.037l-0.077 0.045a0.251 0.251 0 0 1 -0.167 0.034 0.129 0.129 0 0 1 -0.075 -0.064 0.438 0.438 0 0 1 -0.036 -0.108 1.673 1.673 0 0 0 -0.352 -0.791 0.45 0.45 0 0 0 -0.145 -0.219 0.25 0.25 0 0 0 -0.203 -0.047 3.313 3.313 0 0 1 -0.377 0.155c-0.095 0.033 -0.22 0.057 -0.289 -0.004 -0.066 -0.057 -0.039 -0.161 -0.117 -0.207a0.265 0.265 0 0 0 -0.191 -0.004c-0.667 0.167 -1.069 0.572 -1.317 1.087 0 0 -0.067 0.136 -0.154 0.156a0.65 0.65 0 0 1 -0.182 -0.006 0.263 0.263 0 0 0 -0.163 -0.065c0.013 0.12 -0.061 -0.317 -0.049 -0.575q0.003 -0.06 0.008 -0.117"/><path class="c" d="M16.946 11.216c0.089 -0.036 0.174 -0.08 0.261 -0.12l0.02 -0.009c0.016 -0.007 -0.034 0.014 -0.022 0.009s0.024 -0.01 0.036 -0.016a0.537 0.537 0 0 0 0.117 -0.087 0.566 0.566 0 0 0 0.135 -0.216 1.094 1.094 0 0 0 0.05 -0.232 0.138 0.138 0 0 0 -0.013 -0.096 0.125 0.125 0 0 0 -0.228 0.03 1.313 1.313 0 0 1 -0.038 0.194c-0.004 0.014 -0.009 0.027 -0.014 0.041a0.063 0.063 0 0 0 -0.004 0.01c0 0.001 0.011 -0.025 0.005 -0.013 -0.004 0.008 -0.007 0.016 -0.011 0.023a0.438 0.438 0 0 1 -0.025 0.042c-0.003 0.004 -0.018 0.025 -0.006 0.009s-0.007 0.008 -0.011 0.012c-0.011 0.013 -0.024 0.024 -0.036 0.035 -0.017 0.015 0.017 -0.011 -0.003 0.003q-0.013 0.009 -0.028 0.018c-0.023 0.014 -0.001 0.002 0.007 0a0.156 0.156 0 0 0 -0.033 0.014q-0.008 0.004 -0.016 0.007c-0.042 0.019 -0.083 0.038 -0.124 0.058l-0.071 0.033c-0.015 0.007 -0.076 0.033 -0.015 0.008a0.138 0.138 0 0 0 -0.075 0.058 0.128 0.128 0 0 0 -0.013 0.096 0.126 0.126 0 0 0 0.154 0.087Z"/><path class="c" d="M18.829 10.47c0.021 0.163 0.043 0.333 0.146 0.467a0.537 0.537 0 0 0 0.099 0.098 0.5 0.5 0 0 0 0.063 0.043 0.25 0.25 0 0 0 0.04 0.018c0.007 0.002 -0.039 -0.017 -0.021 -0.009 0.041 0.019 0.083 0.038 0.124 0.058s0.084 0.041 0.126 0.059a0.138 0.138 0 0 0 0.096 0.013 0.125 0.125 0 0 0 0.03 -0.229c-0.047 -0.02 -0.092 -0.043 -0.138 -0.065q-0.043 -0.02 -0.085 -0.04l-0.027 -0.013a0.313 0.313 0 0 0 -0.036 -0.015c-0.01 0.002 0.027 0.015 0.013 0.003a0.313 0.313 0 0 0 -0.03 -0.019q-0.017 -0.013 0.002 0.002a0.5 0.5 0 0 1 -0.014 -0.012c-0.013 -0.012 -0.044 -0.034 -0.049 -0.051q0.016 0.021 0.004 0.005a0.438 0.438 0 0 1 -0.009 -0.014q-0.009 -0.014 -0.017 -0.028c-0.002 -0.004 -0.011 -0.028 -0.014 -0.029q0.011 0.027 0.003 0.008 -0.003 -0.007 -0.005 -0.015a0.75 0.75 0 0 1 -0.03 -0.117q-0.007 -0.036 -0.013 -0.073 -0.003 -0.019 -0.006 -0.039l-0.003 -0.018q0.004 0.029 0.001 0.009a0.128 0.128 0 0 0 -0.125 -0.125c-0.061 0.003 -0.134 0.056 -0.125 0.125Z"/><path class="c" d="M20.03 8.431a0.139 0.139 0 0 1 0.202 0.033 0.34 0.34 0 0 1 0.024 0.15 0.9 0.9 0 0 1 -0.013 0.181 0.956 0.956 0 0 1 -0.128 0.338 0.469 0.469 0 0 1 -0.101 0.118 0.092 0.092 0 0 1 -0.098 0.026c-0.156 -0.042 -0.222 0.2 -0.066 0.241 0.198 0.053 0.352 -0.074 0.46 -0.228a1.15 1.15 0 0 0 0.187 -0.519c0.021 -0.173 0.021 -0.392 -0.119 -0.518a0.398 0.398 0 0 0 -0.525 0.002 0.126 0.126 0 0 0 0 0.177 0.128 0.128 0 0 0 0.177 0Z"/><path class="c" d="M19.752 9.229a0.881 0.881 0 0 1 -0.059 0.252c-0.005 0.015 -0.011 0.03 -0.016 0.045 -0.007 0.021 0.014 -0.026 0.002 -0.006 -0.01 0.017 -0.017 0.035 -0.026 0.052a2.15 2.15 0 0 1 -0.197 0.303c-0.177 0.229 -0.412 0.467 -0.706 0.532 -0.157 0.034 -0.091 0.276 0.066 0.241 0.347 -0.076 0.625 -0.349 0.836 -0.621 0.18 -0.233 0.337 -0.495 0.35 -0.797 0.007 -0.161 -0.243 -0.161 -0.25 0Z"/><path class="c" d="M16.385 8.254a0.398 0.398 0 0 0 -0.525 -0.002c-0.144 0.129 -0.14 0.355 -0.118 0.532a1.134 1.134 0 0 0 0.196 0.52c0.111 0.153 0.277 0.282 0.476 0.238a0.125 0.125 0 1 0 -0.067 -0.241c-0.084 0.019 -0.174 -0.092 -0.215 -0.154a0.944 0.944 0 0 1 -0.136 -0.344 0.9 0.9 0 0 1 -0.015 -0.178 0.356 0.356 0 0 1 0.024 -0.162 0.139 0.139 0 0 1 0.202 -0.033 0.128 0.128 0 0 0 0.177 0 0.126 0.126 0 0 0 0 -0.177Z"/><path class="c" d="M16.238 9.194a2.069 2.069 0 0 0 0.475 0.946c0.25 0.283 0.584 0.518 0.965 0.572a0.129 0.129 0 0 0 0.154 -0.087 0.126 0.126 0 0 0 -0.087 -0.154c-0.655 -0.093 -1.139 -0.725 -1.266 -1.343 -0.032 -0.158 -0.273 -0.091 -0.241 0.066Z"/><path class="c" d="M20.262 8.297c0.091 -0.56 0.035 -1.153 -0.277 -1.639a2.165 2.165 0 0 0 -1.289 -0.917 2.314 2.314 0 0 0 -1.599 0.176 2.156 2.156 0 0 0 -0.878 0.846 2.081 2.081 0 0 0 -0.247 0.78 2.744 2.744 0 0 0 0.035 0.754 0.126 0.126 0 0 0 0.154 0.087 0.128 0.128 0 0 0 0.087 -0.154c-0.065 -0.402 -0.056 -0.82 0.113 -1.197a1.9 1.9 0 0 1 0.691 -0.801c0.815 -0.534 1.969 -0.359 2.594 0.384 0.375 0.446 0.466 1.052 0.375 1.614a0.129 0.129 0 0 0 0.087 0.154 0.126 0.126 0 0 0 0.154 -0.087Z"/><path class="c" d="M19.022 6.974a3.188 3.188 0 0 1 -0.336 0.161c-0.091 0.037 -0.214 0.103 -0.316 0.094 -0.037 -0.003 -0.029 -0.001 -0.041 -0.035a0.425 0.425 0 0 0 -0.061 -0.135c-0.081 -0.101 -0.21 -0.104 -0.327 -0.08a1.994 1.994 0 0 0 -1.052 0.605 2.313 2.313 0 0 0 -0.364 0.546c-0.07 0.144 0.145 0.271 0.216 0.126a1.887 1.887 0 0 1 0.699 -0.806 1.738 1.738 0 0 1 0.568 -0.229 0.175 0.175 0 0 1 0.057 -0.006c0.016 0.003 0.009 0 0.011 0.002 0.011 0.012 0.014 0.048 0.019 0.063a0.375 0.375 0 0 0 0.031 0.072 0.29 0.29 0 0 0 0.267 0.128 1.15 1.15 0 0 0 0.374 -0.107 3.75 3.75 0 0 0 0.382 -0.181c0.141 -0.077 0.015 -0.293 -0.126 -0.216Z"/><path class="c" d="M19.169 7.501a1.75 1.75 0 0 1 0.119 0.17 1.75 1.75 0 0 1 0.101 0.188 1.5 1.5 0 0 1 0.066 0.178 1.563 1.563 0 0 1 0.047 0.207 0.125 0.125 0 0 0 0.154 0.087 0.129 0.129 0 0 0 0.087 -0.154 1.827 1.827 0 0 0 -0.397 -0.854 0.125 0.125 0 0 0 -0.177 0 0.129 0.129 0 0 0 0 0.177Z"/><path class="c" d="M16.233 8.45a0.321 0.321 0 0 0 0.153 0.039 0.306 0.306 0 0 0 0.127 -0.02 0.388 0.388 0 0 0 0.138 -0.087 0.444 0.444 0 0 0 0.088 -0.127 0.135 0.135 0 0 0 0.013 -0.096 0.128 0.128 0 0 0 -0.058 -0.075 0.126 0.126 0 0 0 -0.096 -0.013 0.122 0.122 0 0 0 -0.075 0.057 0.394 0.394 0 0 1 -0.043 0.073l0.02 -0.025a0.3 0.3 0 0 1 -0.049 0.05l0.025 -0.02a0.25 0.25 0 0 1 -0.055 0.033l0.03 -0.013a0.25 0.25 0 0 1 -0.056 0.015l0.033 -0.004a0.237 0.237 0 0 1 -0.063 0l0.033 0.004a0.244 0.244 0 0 1 -0.058 -0.014l0.03 0.013a0.063 0.063 0 0 1 -0.011 -0.006 0.125 0.125 0 0 0 -0.184 0.141 0.139 0.139 0 0 0 0.057 0.075Z"/><path class="c" d="M19.5 8.228a0.279 0.279 0 0 0 0.14 0.245 0.385 0.385 0 0 0 0.364 -0.022 0.126 0.126 0 0 0 0.045 -0.171 0.128 0.128 0 0 0 -0.171 -0.045q-0.016 0.008 -0.032 0.016l0.03 -0.013a0.362 0.362 0 0 1 -0.085 0.025l0.033 -0.004a0.25 0.25 0 0 1 -0.065 0l0.033 0.004a0.188 0.188 0 0 1 -0.04 -0.011l0.03 0.013a0.188 0.188 0 0 1 -0.039 -0.022l0.025 0.02a0.15 0.15 0 0 1 -0.025 -0.025l0.02 0.025a0.15 0.15 0 0 1 -0.018 -0.03l0.013 0.03a0.188 0.188 0 0 1 -0.011 -0.041l0.004 0.033a0.25 0.25 0 0 1 -0.002 -0.025 0.131 0.131 0 0 0 -0.037 -0.088 0.125 0.125 0 0 0 -0.213 0.089"/><path class="c" d="M18.935 7.307q0.012 0.004 0.024 0.009l-0.03 -0.013a0.512 0.512 0 0 1 0.108 0.066l-0.025 -0.02a1.106 1.106 0 0 1 0.157 0.15 0.125 0.125 0 0 0 0.213 -0.088 0.139 0.139 0 0 0 -0.037 -0.088 1.125 1.125 0 0 0 -0.138 -0.135 0.637 0.637 0 0 0 -0.207 -0.123 0.126 0.126 0 0 0 -0.154 0.087 0.128 0.128 0 0 0 0.087 0.154Z"/><path class="c" d="M17.801 9.773a0.623 0.623 0 0 0 0.744 0 0.125 0.125 0 0 0 -0.177 -0.177c-0.005 0.005 -0.023 0.019 -0.003 0.003s-0.003 0.001 -0.009 0.005a0.313 0.313 0 0 1 -0.023 0.013c-0.005 0.003 -0.011 0.005 -0.016 0.007 0.006 -0.004 0.029 -0.011 0.009 -0.004a0.531 0.531 0 0 1 -0.075 0.021c-0.009 0.002 -0.031 0.011 -0.001 0.001a0.1 0.1 0 0 1 -0.023 0.002 0.688 0.688 0 0 1 -0.106 0 0.188 0.188 0 0 0 -0.028 -0.003c0.012 -0.001 0.022 0.003 0.003 0a0.463 0.463 0 0 1 -0.076 -0.02c-0.01 -0.004 -0.026 -0.014 0.006 0.003 -0.004 -0.002 -0.009 -0.004 -0.013 -0.006a0.313 0.313 0 0 1 -0.025 -0.014c-0.006 -0.004 -0.012 -0.009 -0.018 -0.013 0.036 0.022 0.017 0.014 0.007 0.004a0.125 0.125 0 0 0 -0.177 0.177Z"/><path class="c" d="M18.111 8.989a1.625 1.625 0 0 1 0.039 0.177l-0.004 -0.033a0.106 0.106 0 0 1 0.001 0.024l0.004 -0.033a0.063 0.063 0 0 1 -0.003 0.011l0.013 -0.03a0.063 0.063 0 0 1 -0.004 0.007l0.019 -0.025a0.037 0.037 0 0 1 -0.006 0.006l0.025 -0.02a0.125 0.125 0 0 1 -0.014 0.007l0.03 -0.013a0.106 0.106 0 0 1 -0.024 0.007l0.033 -0.004a0.094 0.094 0 0 1 -0.022 0l0.033 0.004c-0.008 -0.001 -0.017 -0.003 -0.025 -0.004a0.094 0.094 0 0 0 -0.05 -0.002 0.094 0.094 0 0 0 -0.046 0.015 0.125 0.125 0 0 0 -0.045 0.171 0.119 0.119 0 0 0 0.075 0.057c0.022 0.003 0.044 0.009 0.066 0.009a0.216 0.216 0 0 0 0.101 -0.025 0.154 0.154 0 0 0 0.083 -0.1 0.237 0.237 0 0 0 -0.001 -0.104 1.938 1.938 0 0 0 -0.037 -0.169 0.125 0.125 0 0 0 -0.154 -0.087 0.127 0.127 0 0 0 -0.075 0.057 0.131 0.131 0 0 0 -0.013 0.096Z"/><path class="c" d="M17.219 8.515c-0.029 0.094 -0.01 0.31 0.168 0.328 0.235 -0.001 0.248 -0.263 0.168 -0.385 -0.065 -0.101 -0.256 -0.142 -0.336 0.057"/><path class="c" d="M19.094 8.515c0.029 0.094 0.01 0.31 -0.168 0.328 -0.235 -0.001 -0.248 -0.263 -0.168 -0.385 0.065 -0.101 0.255 -0.142 0.336 0.057"/><path class="c" d="M17.05 11.107a1.621 1.621 0 0 0 2.151 0.025c0.123 -0.104 -0.054 -0.28 -0.177 -0.177a1.388 1.388 0 0 1 -1.797 -0.024c-0.12 -0.106 -0.298 0.07 -0.177 0.177"/><path class="c" d="M17.106 10.898c-0.591 0.156 -1.216 0.474 -1.537 1.015a6.669 6.669 0 0 0 -0.445 0.975c-0.135 0.343 -0.271 0.685 -0.396 1.032 -0.149 0.414 -0.293 0.83 -0.458 1.238a0.125 0.125 0 0 0 0.057 0.141 3.506 3.506 0 0 0 1.203 0.418 0.129 0.129 0 0 0 0.154 -0.087 0.126 0.126 0 0 0 -0.087 -0.154 3.319 3.319 0 0 1 -1.143 -0.393l0.057 0.141c0.277 -0.685 0.505 -1.388 0.778 -2.075a10.063 10.063 0 0 1 0.401 -0.94 1.844 1.844 0 0 1 0.243 -0.383 1.688 1.688 0 0 1 0.316 -0.271 3.031 3.031 0 0 1 0.924 -0.417c0.155 -0.041 0.089 -0.282 -0.066 -0.241Z"/><path class="c" d="M19.176 11.096a3.763 3.763 0 0 1 0.848 0.436 2.125 2.125 0 0 1 0.334 0.284 1.837 1.837 0 0 1 0.251 0.36 7.813 7.813 0 0 1 0.434 0.941 25.938 25.938 0 0 1 0.373 0.979c0.136 0.378 0.269 0.757 0.419 1.129l0.057 -0.141a3.319 3.319 0 0 1 -1.143 0.393 0.126 0.126 0 0 0 -0.087 0.154 0.128 0.128 0 0 0 0.154 0.087 3.506 3.506 0 0 0 1.203 -0.418 0.126 0.126 0 0 0 0.057 -0.141c-0.278 -0.688 -0.503 -1.395 -0.781 -2.083a9 9 0 0 0 -0.442 -0.978 2.356 2.356 0 0 0 -0.272 -0.408 2.188 2.188 0 0 0 -0.338 -0.306 3.862 3.862 0 0 0 -0.999 -0.527c-0.151 -0.056 -0.216 0.186 -0.066 0.241Z"/><path class="c" d="M16.449 11.364c0.13 0.334 0.365 0.71 0.7 0.859 0.4 0.178 0.809 -0.046 1.097 -0.322h-0.177c0.171 0.164 0.373 0.314 0.61 0.364a0.775 0.775 0 0 0 0.689 -0.175L19.172 11.938l-0.002 0.004a0.126 0.126 0 0 0 0.196 0.151 1.831 1.831 0 0 0 0.498 -0.729 0.126 0.126 0 0 0 -0.087 -0.154 0.128 0.128 0 0 0 -0.154 0.087 1.569 1.569 0 0 1 -0.434 0.619l0.196 0.151 0.002 -0.004a0.126 0.126 0 0 0 -0.196 -0.151c-0.31 0.265 -0.696 0.05 -0.945 -0.189a0.128 0.128 0 0 0 -0.177 0c-0.212 0.203 -0.54 0.419 -0.839 0.261 -0.252 -0.133 -0.438 -0.425 -0.54 -0.688a0.129 0.129 0 0 0 -0.154 -0.087 0.126 0.126 0 0 0 -0.087 0.154Z"/><path class="g" d="M17.781 15.842c-0.667 -1.074 -1.357 -3.255 -1.492 -4.559 0.076 -0.069 0.453 -0.274 0.55 -0.274 0.09 1.076 0.91 3.731 1.502 4.528"/><path class="c" d="M17.889 15.779c-0.313 -0.505 -0.542 -1.062 -0.746 -1.619a15.25 15.25 0 0 1 -0.568 -1.931 8.5 8.5 0 0 1 -0.162 -0.947l-0.037 0.088c0.019 -0.016 -0.016 0.008 0 -0.001a0.25 0.25 0 0 0 0.024 -0.017c0.02 -0.014 0.041 -0.027 0.062 -0.039 0.048 -0.029 0.098 -0.056 0.147 -0.083a1.938 1.938 0 0 1 0.138 -0.067 0.688 0.688 0 0 1 0.066 -0.025c0.007 -0.002 0.015 -0.004 0.022 -0.006 0.031 -0.009 -0.023 0 0.002 -0.001l-0.125 -0.125c0.053 0.612 0.216 1.219 0.385 1.806a15.438 15.438 0 0 0 0.718 2.021 4.037 4.037 0 0 0 0.416 0.763 0.129 0.129 0 0 0 0.171 0.045 0.126 0.126 0 0 0 0.045 -0.171 3.688 3.688 0 0 1 -0.361 -0.644c-0.138 -0.297 -0.258 -0.602 -0.369 -0.91a17.313 17.313 0 0 1 -0.601 -2.028 6.594 6.594 0 0 1 -0.154 -0.884 0.127 0.127 0 0 0 -0.125 -0.125c-0.14 0.006 -0.283 0.093 -0.403 0.159a1.75 1.75 0 0 0 -0.175 0.106 0.256 0.256 0 0 0 -0.079 0.071 0.225 0.225 0 0 0 -0.008 0.144 9.75 9.75 0 0 0 0.199 1.097 14.981 14.981 0 0 0 0.762 2.36 7.75 7.75 0 0 0 0.539 1.084c0.084 0.137 0.301 0.011 0.216 -0.126Z"/><path class="g" d="M18.139 17.36a0.366 0.366 0 0 1 -0.108 -0.108c-0.13 -0.204 -0.279 -0.798 -0.274 -1.226 0.002 -0.157 0.168 -0.377 0.356 -0.433 0.75 -0.221 1.314 -0.305 2.047 -0.518a0.287 0.287 0 0 1 0.324 0.13c0.14 0.177 0.26 0.384 0.338 0.781 0.06 0.308 0.026 0.967 -0.272 1.063a11.813 11.813 0 0 1 -1.831 0.399l-0.083 0.007a0.786 0.786 0 0 1 -0.496 -0.095"/><path class="c" d="M17.939 15.567a0.494 0.494 0 0 0 -0.241 0.214 0.599 0.599 0 0 0 -0.073 0.357 3.419 3.419 0 0 0 0.117 0.731c0.048 0.178 0.104 0.396 0.239 0.53 0.168 0.168 0.432 0.199 0.657 0.18a7.688 7.688 0 0 0 0.788 -0.126c0.287 -0.055 0.573 -0.119 0.855 -0.197 0.209 -0.058 0.418 -0.095 0.536 -0.294a1.25 1.25 0 0 0 0.141 -0.554A1.906 1.906 0 0 0 20.563 15.116a0.126 0.126 0 0 0 -0.177 0 0.128 0.128 0 0 0 0 0.177 1.621 1.621 0 0 1 0.325 0.939 1.5 1.5 0 0 1 -0.055 0.474 0.55 0.55 0 0 1 -0.079 0.166 0.156 0.156 0 0 1 -0.053 0.048 0.875 0.875 0 0 1 -0.123 0.042 11.188 11.188 0 0 1 -1.458 0.325c-0.196 0.032 -0.408 0.078 -0.605 0.028a0.352 0.352 0 0 1 -0.203 -0.117 0.688 0.688 0 0 1 -0.083 -0.173 3.081 3.081 0 0 1 -0.158 -0.665 1.512 1.512 0 0 1 -0.021 -0.344 0.284 0.284 0 0 1 0.059 -0.135 0.362 0.362 0 0 1 0.073 -0.071c0.149 -0.056 0.085 -0.298 -0.066 -0.241Z"/><path class="c" d="m19.384 16.064 0.212 -0.044a0.125 0.125 0 0 0 0.03 -0.228l-0.03 -0.013a0.125 0.125 0 0 0 -0.066 0l-0.212 0.044a0.125 0.125 0 0 0 -0.03 0.229l0.03 0.013a0.125 0.125 0 0 0 0.067 0Z"/><path class="c" d="M19.002 16.65c0.248 -0.055 0.495 -0.112 0.739 -0.185a6.063 6.063 0 0 0 0.355 -0.12 1.75 1.75 0 0 0 0.369 -0.167 0.825 0.825 0 0 0 0.244 -0.227 0.575 0.575 0 0 0 0.056 -0.329 0.9 0.9 0 0 0 -0.2 -0.463 0.544 0.544 0 0 0 -0.203 -0.182c-0.124 -0.057 -0.234 -0.024 -0.36 0.011 -0.265 0.074 -0.532 0.138 -0.8 0.2 -0.264 0.061 -0.528 0.121 -0.79 0.19 -0.201 0.053 -0.658 0.119 -0.518 0.433a3.188 3.188 0 0 0 0.371 0.66c0.179 0.23 0.472 0.236 0.736 0.18 0.157 -0.033 0.091 -0.274 -0.067 -0.241 -0.17 0.036 -0.368 0.049 -0.483 -0.104a2.875 2.875 0 0 1 -0.287 -0.506 0.938 0.938 0 0 0 -0.048 -0.102c0.001 0 0.042 0.124 -0.002 0.016 0.025 0.061 -0.011 0.006 0.001 0.011a0.5 0.5 0 0 0 0.065 -0.024q0.176 -0.051 0.353 -0.097c0.223 -0.058 0.447 -0.109 0.671 -0.161 0.219 -0.051 0.439 -0.101 0.656 -0.158q0.09 -0.023 0.18 -0.048a0.781 0.781 0 0 1 0.166 -0.045 0.189 0.189 0 0 1 0.136 0.086 0.781 0.781 0 0 1 0.167 0.309 0.487 0.487 0 0 1 0.006 0.115 0.625 0.625 0 0 1 -0.007 0.07 0.313 0.313 0 0 1 -0.008 0.043c0.004 -0.012 0.007 -0.013 0 -0.001a0.553 0.553 0 0 1 -0.172 0.156 1.675 1.675 0 0 1 -0.348 0.153q-0.163 0.059 -0.329 0.109c-0.236 0.07 -0.476 0.125 -0.716 0.179 -0.158 0.035 -0.091 0.276 0.066 0.241"/><path class="c" d="M14.53 15.314a2.225 2.225 0 0 1 -0.18 0.36 3.75 3.75 0 0 1 -0.284 0.348c-0.099 0.109 -0.204 0.21 -0.31 0.312a1.219 1.219 0 0 0 -0.243 0.293 0.5 0.5 0 0 0 -0.055 0.372c0.045 0.151 0.199 0.207 0.344 0.197a0.959 0.959 0 0 0 0.421 -0.165 3.625 3.625 0 0 0 0.377 -0.267l-0.209 -0.055c0.071 0.274 0.493 0.393 0.669 0.151 0.083 -0.114 0.086 -0.279 0.109 -0.413 0.02 -0.116 0.037 -0.235 0.068 -0.349 0.042 -0.155 -0.199 -0.222 -0.241 -0.066 -0.048 0.176 -0.069 0.36 -0.101 0.54 -0.013 0.07 -0.01 0.164 -0.098 0.168a0.153 0.153 0 0 1 -0.166 -0.097 0.127 0.127 0 0 0 -0.209 -0.055 3.125 3.125 0 0 1 -0.302 0.213c-0.097 0.06 -0.204 0.132 -0.319 0.146 -0.042 0.005 -0.097 0.013 -0.108 -0.035a0.219 0.219 0 0 1 0.016 -0.114 0.7 0.7 0 0 1 0.18 -0.243 7.063 7.063 0 0 0 0.492 -0.515 2.475 2.475 0 0 0 0.224 -0.297 3.313 3.313 0 0 0 0.14 -0.301 0.129 0.129 0 0 0 -0.045 -0.171 0.126 0.126 0 0 0 -0.171 0.045"/><path class="c" d="M21.625 15.44c0.045 0.096 0.08 0.197 0.133 0.289a2.313 2.313 0 0 0 0.222 0.298 7 7 0 0 0 0.501 0.526 0.716 0.716 0 0 1 0.178 0.237 0.229 0.229 0 0 1 0.018 0.12c-0.011 0.044 -0.054 0.039 -0.095 0.036 -0.117 -0.009 -0.224 -0.079 -0.321 -0.139a3.125 3.125 0 0 1 -0.314 -0.221 0.127 0.127 0 0 0 -0.209 0.055 0.154 0.154 0 0 1 -0.166 0.097c-0.088 -0.003 -0.085 -0.099 -0.098 -0.168 -0.032 -0.179 -0.054 -0.364 -0.101 -0.54 -0.042 -0.155 -0.283 -0.089 -0.241 0.066 0.03 0.111 0.047 0.226 0.067 0.339 0.024 0.138 0.026 0.307 0.111 0.423 0.176 0.242 0.599 0.123 0.669 -0.151l-0.209 0.055a3.625 3.625 0 0 0 0.377 0.267 0.959 0.959 0 0 0 0.421 0.165c0.145 0.01 0.298 -0.046 0.344 -0.197a0.5 0.5 0 0 0 -0.055 -0.372 1.219 1.219 0 0 0 -0.243 -0.293c-0.106 -0.101 -0.211 -0.203 -0.31 -0.312a3.75 3.75 0 0 1 -0.284 -0.348 2.225 2.225 0 0 1 -0.18 -0.36 0.126 0.126 0 0 0 -0.171 -0.045 0.128 0.128 0 0 0 -0.045 0.171"/><path class="g" d="M15.626 7.664a0.239 0.239 0 0 1 0.083 -0.19 1.631 1.631 0 0 1 0.378 -0.249q0.001 -0.004 0.002 -0.007a2.094 2.094 0 0 1 0.618 -0.969A1.981 1.981 0 0 1 18.1 5.753c0.217 0.013 0.421 0.01 0.632 0.08 0.189 0.063 0.426 0.147 0.592 0.264a2.219 2.219 0 0 1 0.752 1.011 0.625 0.625 0 0 1 0.028 0.088 1.725 1.725 0 0 1 0.44 0.279 0.234 0.234 0 0 1 0.081 0.206 0.206 0.206 0 0 1 -0.089 0.175c-0.353 0.237 -1.567 0.366 -2.41 0.366 -0.861 0 -2.056 -0.129 -2.409 -0.366a0.206 0.206 0 0 1 -0.089 -0.175q-0.001 -0.008 -0.002 -0.016"/><path class="c" d="M17.871 5.824c-0.293 0.126 -0.476 0.45 -0.558 0.744a4.2 4.2 0 0 0 -0.143 0.901c-0.008 0.161 0.242 0.16 0.25 0a3.981 3.981 0 0 1 0.124 -0.797c0.065 -0.248 0.198 -0.523 0.453 -0.632a0.126 0.126 0 0 0 0.045 -0.171 0.128 0.128 0 0 0 -0.171 -0.045Z"/><path class="c" d="M18.214 6.013c0.196 0.097 0.313 0.354 0.388 0.552a2.519 2.519 0 0 1 0.171 0.914c-0.001 0.161 0.249 0.161 0.25 0a2.712 2.712 0 0 0 -0.196 -1.023c-0.097 -0.242 -0.239 -0.537 -0.486 -0.659 -0.144 -0.071 -0.271 0.145 -0.126 0.216"/><path class="c" d="M20.104 7.334c0.107 0.054 0.493 0.227 0.384 0.397a0.338 0.338 0 0 1 -0.144 0.084 2 2 0 0 1 -0.218 0.07 6.656 6.656 0 0 1 -1.24 0.183 10.313 10.313 0 0 1 -1.322 0.013 7.813 7.813 0 0 1 -1.302 -0.163c-0.157 -0.036 -0.328 -0.073 -0.458 -0.156a0.123 0.123 0 0 1 -0.014 -0.192 1.25 1.25 0 0 1 0.359 -0.237c0.143 -0.073 0.017 -0.289 -0.126 -0.216 -0.224 0.114 -0.552 0.286 -0.516 0.583a0.347 0.347 0 0 0 0.177 0.281 1.225 1.225 0 0 0 0.219 0.096c0.438 0.153 0.922 0.197 1.381 0.234a10.438 10.438 0 0 0 1.508 0.013c0.48 -0.031 0.973 -0.077 1.437 -0.208 0.18 -0.051 0.447 -0.124 0.506 -0.328a0.395 0.395 0 0 0 -0.093 -0.394 1.531 1.531 0 0 0 -0.409 -0.276c-0.143 -0.073 -0.27 0.143 -0.126 0.216Z"/><path class="c" d="M19.551 7.268a3.087 3.087 0 0 1 -0.491 0.108q-0.337 0.055 -0.678 0.079a6.963 6.963 0 0 1 -1.262 -0.047 3.938 3.938 0 0 1 -0.511 -0.08c-0.156 -0.039 -0.223 0.202 -0.067 0.241a3.938 3.938 0 0 0 0.463 0.075q0.329 0.041 0.661 0.061a6.531 6.531 0 0 0 1.359 -0.072 3.438 3.438 0 0 0 0.594 -0.124c0.152 -0.051 0.086 -0.293 -0.067 -0.241Z"/><path class="c" d="M20.259 7.298a2.3 2.3 0 0 0 -0.487 -0.954 1.875 1.875 0 0 0 -0.425 -0.383 2.469 2.469 0 0 0 -0.538 -0.235c-0.222 -0.075 -0.448 -0.085 -0.68 -0.098a2.063 2.063 0 0 0 -0.561 0.044 2.156 2.156 0 0 0 -1.025 0.556 2.209 2.209 0 0 0 -0.612 1.103c-0.034 0.157 0.206 0.224 0.241 0.066a1.946 1.946 0 0 1 1.332 -1.451 1.738 1.738 0 0 1 0.503 -0.074 2.775 2.775 0 0 1 0.578 0.047 1.791 1.791 0 0 1 0.926 0.504 2.047 2.047 0 0 1 0.507 0.939c0.036 0.157 0.277 0.09 0.241 -0.067"/><path class="g" d="M17.959 5.428a0.287 0.287 0 0 0 -0.145 0.27 0.225 0.225 0 0 0 0.063 0.152 0.269 0.269 0 0 0 0.233 0.073c0.124 -0.019 0.232 -0.057 0.273 -0.143a0.276 0.276 0 0 0 -0.022 -0.293c-0.107 -0.148 -0.307 -0.123 -0.402 -0.059"/><path class="c" d="M17.896 5.32a0.413 0.413 0 0 0 -0.207 0.389 0.367 0.367 0 0 0 0.346 0.34 0.575 0.575 0 0 0 0.25 -0.041 0.366 0.366 0 0 0 0.205 -0.163 0.419 0.419 0 0 0 0.036 -0.304 0.409 0.409 0 0 0 -0.168 -0.228 0.439 0.439 0 0 0 -0.462 0.006 0.125 0.125 0 1 0 0.126 0.216 0.25 0.25 0 0 1 0.023 -0.014c0.005 -0.003 0.011 -0.005 0.015 -0.008 -0.03 0.017 -0.021 0.008 -0.01 0.005 0.021 -0.007 0.044 -0.01 0.064 -0.017 -0.032 0.01 -0.02 0.002 -0.007 0.001q0.007 -0.001 0.013 -0.001a0.313 0.313 0 0 1 0.037 0c0.006 0 0.011 0.002 0.017 0.002 -0.034 -0.001 -0.02 -0.003 -0.009 -0.001q0.019 0.005 0.037 0.01c0.025 0.007 -0.026 -0.014 -0.004 -0.002 0.004 0.002 0.009 0.004 0.013 0.007 0.006 0.004 0.013 0.008 0.019 0.011 0.022 0.013 -0.017 -0.015 -0.004 -0.004a0.375 0.375 0 0 1 0.028 0.027l0.003 0.003q0.013 0.015 -0.004 -0.006c0.006 0.003 0.011 0.017 0.015 0.023 0.003 0.004 0.013 0.019 0.013 0.024 0.001 -0.01 -0.007 -0.02 -0.002 -0.005 0.003 0.009 0.006 0.017 0.008 0.026 0.001 0.002 0.008 0.031 0.003 0.01 -0.005 -0.02 0 0.007 0 0.01v0.023c-0.001 0.011 0.005 0.026 0.001 -0.001a0.087 0.087 0 0 1 -0.006 0.029 0.1 0.1 0 0 1 -0.009 0.029c0.014 -0.018 0.003 -0.005 -0.001 0.003 -0.003 0.005 -0.006 0.01 -0.009 0.015 -0.011 0.021 0.016 -0.015 0.005 -0.006 -0.004 0.004 -0.008 0.009 -0.013 0.013 -0.003 0.003 -0.021 0.016 -0.004 0.004 0.019 -0.013 -0.003 0.001 -0.005 0.003 -0.006 0.004 -0.013 0.008 -0.02 0.012 -0.002 0.001 -0.021 0.009 -0.021 0.01 0 -0.004 0.027 -0.011 0.003 -0.002q-0.02 0.007 -0.041 0.013a0.625 0.625 0 0 1 -0.043 0.01q-0.011 0.002 -0.023 0.004l-0.018 0.003 0.014 -0.002a0.169 0.169 0 0 1 -0.052 0.002c-0.027 -0.002 0.003 -0.001 0.003 0.001l-0.02 -0.004a0.375 0.375 0 0 1 -0.019 -0.005c-0.003 -0.001 -0.027 -0.01 -0.006 -0.002s-0.001 -0.001 -0.004 -0.003a0.25 0.25 0 0 1 -0.02 -0.011q-0.006 -0.004 -0.013 -0.008c-0.018 -0.012 0.021 0.018 0.01 0.008 -0.006 -0.006 -0.013 -0.011 -0.019 -0.018l-0.003 -0.003q-0.013 -0.015 0.004 0.005c-0.004 -0.001 -0.01 -0.015 -0.012 -0.018 -0.003 -0.005 -0.01 -0.014 -0.01 -0.019q0.01 0.025 0.003 0.006a0.125 0.125 0 0 1 -0.004 -0.013 0.1 0.1 0 0 0 -0.004 -0.02q0.004 0.03 0.002 0.01v-0.008c0 -0.018 0.003 -0.035 0.004 -0.052 -0.001 0.035 -0.002 0.012 0 0.003q0.002 -0.011 0.005 -0.021c0.003 -0.01 0.004 -0.013 0.006 -0.02 0.006 -0.021 -0.013 0.026 -0.003 0.006 0.006 -0.011 0.012 -0.022 0.019 -0.033 0.01 -0.016 -0.007 0.009 -0.009 0.01 0.006 -0.005 0.011 -0.013 0.017 -0.019 0.009 -0.009 0.019 -0.018 0.029 -0.026 0.008 -0.007 0.014 -0.005 -0.009 0.007a0.25 0.25 0 0 0 0.024 -0.017 0.125 0.125 0 0 0 -0.126 -0.216Z"/><path class="d" d="M5.802 8.17a1.169 1.169 0 0 1 -0.321 0.118s-0.063 0.008 -0.112 0.014a0.275 0.275 0 0 0 -0.154 -0.023 0.254 0.254 0 0 0 -0.183 0.121 0.359 0.359 0 0 0 -0.037 0.144 1.075 1.075 0 0 0 0.11 0.571 0.684 0.684 0 0 0 0.177 0.232 0.258 0.258 0 0 0 0.233 0.074l0.046 -0.013a1.938 1.938 0 0 0 0.384 0.652 1.706 1.706 0 0 0 0.613 0.452c-0.003 0.023 -0.007 0.05 -0.013 0.081 -0.023 0.133 -0.061 0.282 -0.236 0.38 -0.013 0.004 -0.242 0.113 -0.261 0.121 0 0 0.121 1.059 1.176 1.059s1.38 -1.059 1.38 -1.059c-0.018 -0.007 -0.248 -0.117 -0.26 -0.121 -0.176 -0.098 -0.214 -0.247 -0.236 -0.38a2.438 2.438 0 0 1 -0.019 -0.125c0.435 -0.198 0.782 -0.754 0.844 -0.91 0.011 -0.032 0.036 -0.097 0.055 -0.172l0.031 0.009a0.206 0.206 0 0 0 0.207 -0.048 0.684 0.684 0 0 0 0.177 -0.232 1.075 1.075 0 0 0 0.11 -0.571 0.356 0.356 0 0 0 -0.037 -0.144 0.254 0.254 0 0 0 -0.183 -0.121 0.269 0.269 0 0 0 -0.13 0.013l-0.078 -0.044c-0.092 -0.053 -0.32 -0.196 -0.401 -0.255q-0.035 -0.021 -0.069 -0.043 -0.029 -0.02 -0.058 -0.04c-0.286 -0.204 -0.52 -0.49 -0.603 -0.754 -0.252 0.295 -0.612 0.5 -0.884 0.511 -0.072 0.012 0.036 -0.275 0.089 -0.408 -0.416 0.274 -0.914 0.69 -1.356 0.911"/><path class="c" d="M5.802 8.17a1.169 1.169 0 0 1 -0.321 0.118s-0.063 0.008 -0.112 0.014a0.256 0.256 0 0 0 -0.102 -0.024c0.012 0.119 -0.061 -0.318 -0.049 -0.576A1.941 1.941 0 0 1 6.056 6.171a2.038 2.038 0 0 1 1.208 -0.372 2.144 2.144 0 0 1 0.713 0.117 2.025 2.025 0 0 1 0.301 0.135 2.356 2.356 0 0 1 0.344 0.228c0.041 0.036 0.102 0.095 0.142 0.135a1.887 1.887 0 0 1 0.262 0.331 1.975 1.975 0 0 1 0.284 0.957 2.644 2.644 0 0 1 -0.035 0.562l-0.002 0.014a0.269 0.269 0 0 0 -0.112 0.014c-0.045 -0.025 -0.078 -0.044 -0.078 -0.044 -0.092 -0.053 -0.32 -0.196 -0.401 -0.255q-0.035 -0.021 -0.069 -0.043 -0.029 -0.02 -0.058 -0.04c-0.286 -0.204 -0.52 -0.49 -0.603 -0.754 -0.252 0.295 -0.612 0.5 -0.884 0.511 -0.072 0.012 0.036 -0.275 0.089 -0.408 -0.416 0.274 -0.914 0.69 -1.356 0.911"/><path class="d" d="M10.844 15.377a2.375 2.375 0 0 0 0.163 0.338 4.563 4.563 0 0 0 0.577 0.658c0.156 0.146 0.336 0.313 0.329 0.526a0.156 0.156 0 0 1 -0.152 0.171c-0.138 0.018 -0.271 -0.047 -0.391 -0.117a3.275 3.275 0 0 1 -0.401 -0.277c-0.029 0.138 -0.188 0.203 -0.326 0.186a0.196 0.196 0 0 1 -0.163 -0.171c-0.028 -0.146 -0.049 -0.278 -0.06 -0.34 -0.013 -0.067 -0.038 -0.219 -0.057 -0.285l-0.133 -0.618"/><path class="d" d="M3.748 15.377a2.375 2.375 0 0 1 -0.163 0.338 4.563 4.563 0 0 1 -0.577 0.658c-0.156 0.146 -0.336 0.313 -0.329 0.526A0.156 0.156 0 0 0 2.831 17.069c0.138 0.018 0.271 -0.047 0.391 -0.117a3.275 3.275 0 0 0 0.401 -0.277c0.028 0.138 0.188 0.203 0.326 0.186a0.196 0.196 0 0 0 0.163 -0.171c0.028 -0.146 0.049 -0.278 0.06 -0.34 0.013 -0.067 0.038 -0.219 0.057 -0.285l0.133 -0.618"/><path class="d" d="M6.121 22.444a1.581 1.581 0 0 1 -0.298 0.231 0.994 0.994 0 0 1 -0.581 0.097 0.609 0.609 0 0 1 -0.293 -0.115 0.416 0.416 0 0 1 -0.16 -0.289c-0.013 -0.166 0.077 -0.323 0.183 -0.44 0.247 -0.275 0.507 -0.545 0.732 -0.841a0.117 0.117 0 0 1 0.139 -0.044c0.131 0.057 0.288 0.055 0.475 0.059a0.721 0.721 0 0 0 0.464 -0.162c0.143 -0.109 0.169 0.374 0.173 0.477 0.005 0.163 0.029 0.378 -0.086 0.499 -0.083 0.087 -0.226 0.147 -0.327 0.205a2.288 2.288 0 0 0 -0.421 0.324"/><path class="d" d="M8.665 22.444a1.55 1.55 0 0 0 0.291 0.231 0.947 0.947 0 0 0 0.566 0.097 0.586 0.586 0 0 0 0.286 -0.115 0.42 0.42 0 0 0 0.156 -0.289c0.012 -0.166 -0.075 -0.323 -0.178 -0.44 -0.24 -0.275 -0.494 -0.545 -0.714 -0.841a0.113 0.113 0 0 0 -0.136 -0.044c-0.128 0.057 -0.281 0.055 -0.463 0.059a0.692 0.692 0 0 1 -0.452 -0.162c-0.139 -0.109 -0.165 0.374 -0.168 0.477 -0.005 0.163 -0.029 0.378 0.084 0.499 0.081 0.087 0.22 0.147 0.319 0.205a2.237 2.237 0 0 1 0.41 0.324"/><path class="d" d="M5.792 20.939c0.028 -0.265 0.036 -0.846 0.043 -1.306 0.32 0.003 0.816 0.003 1.134 0.001l-0.004 0.043c-0.027 0.248 -0.1 0.844 -0.142 1.23a0.74 0.74 0 0 1 -0.503 0.193c-0.216 -0.004 -0.394 0 -0.536 -0.091 0.003 -0.02 0.006 -0.044 0.009 -0.071"/><path class="d" d="M8.945 20.982c-0.032 -0.225 -0.064 -0.862 -0.071 -1.327v-0.021c-0.329 0.002 -0.795 0.002 -1.089 0 0.002 0.027 0.004 0.044 0.004 0.044 0.024 0.223 0.062 0.755 0.099 1.145 0.16 0.166 0.344 0.283 0.579 0.278 0.193 -0.004 0.355 -0.001 0.487 -0.071a0.75 0.75 0 0 1 -0.008 -0.049"/><path class="h" d="M5.004 9.541a0.304 0.304 0 0 1 0.231 -0.236 0.5 0.5 0 0 0 0.048 0.044 0.258 0.258 0 0 0 0.233 0.074l0.046 -0.013a1.938 1.938 0 0 0 0.384 0.652q0.068 0.076 0.141 0.143c-0.169 0.194 -0.313 0.313 -0.61 0.344 -0.3 0.032 -0.606 -0.079 -0.81 -0.185a0.594 0.594 0 0 0 0.306 -0.264 0.475 0.475 0 0 0 0.044 -0.131c0.019 -0.072 -0.011 -0.148 -0.02 -0.223a0.563 0.563 0 0 1 0.009 -0.205"/><path class="i" d="M5.304 19.123q0.026 -0.192 0.057 -0.384c0.153 0.015 0.3 0.024 0.413 0.027 0.435 0.009 1.621 0.046 1.639 0.046 0.366 0 0.974 -0.011 1.522 -0.029 0.128 -0.004 0.262 -0.016 0.392 -0.031 0.029 0.214 0.056 0.44 0.08 0.684 0 0 0.001 0.01 0.002 0.019l-0.013 0.014c-0.061 0.068 -0.506 0.131 -0.896 0.15 -0.397 0.019 -0.838 0.021 -1.103 0.021 -0.232 0 -0.776 -0.014 -1.181 -0.044 -0.416 -0.031 -0.835 -0.06 -0.954 -0.131l0.003 -0.029q0.018 -0.156 0.04 -0.312"/><path class="b" d="M3.626 15.252q-0.056 -0.029 -0.111 -0.061c0.252 -0.621 0.478 -1.335 0.73 -1.956 0.181 -0.445 0.36 -0.967 0.624 -1.368s0.907 -0.722 1.395 -0.849a1.497 1.497 0 0 0 2.054 -0.049c0.534 0.192 1.136 0.539 1.403 0.944 0.264 0.401 0.448 0.877 0.629 1.321 0.252 0.621 0.478 1.335 0.73 1.956a3.35 3.35 0 0 1 -1.173 0.406l-0.237 0.045c0.039 0.264 0.081 0.542 0.126 0.828 0.104 0.665 0.263 1.37 0.329 2.058a0.072 0.072 0 0 1 -0.057 0.091 6.206 6.206 0 0 1 -1.142 0.165c-0.548 0.019 -1.155 0.029 -1.522 0.029 -0.018 0 -1.204 -0.037 -1.639 -0.046 -0.326 -0.007 -0.931 -0.072 -1.153 -0.162a0.159 0.159 0 0 1 -0.083 -0.134c0.013 -0.439 0.087 -0.805 0.146 -1.245 0.068 -0.509 0.151 -1.067 0.23 -1.582 -0.111 -0.023 -0.217 -0.045 -0.217 -0.045a3.35 3.35 0 0 1 -1.063 -0.345"/><path class="d" d="M8.778 11.167a4.188 4.188 0 0 0 -0.461 -0.198 1.496 1.496 0 0 1 -2.053 0.049 3.25 3.25 0 0 0 -0.599 0.225 1.712 1.712 0 0 0 0.496 0.761l0.009 0.004a0.662 0.662 0 0 0 0.168 0.106 0.703 0.703 0 0 0 0.544 -0.019 1.363 1.363 0 0 0 0.402 -0.283 1.356 1.356 0 0 0 0.402 0.283 0.703 0.703 0 0 0 0.544 0.019 0.65 0.65 0 0 0 0.176 -0.114l-0.002 0.004a1.711 1.711 0 0 0 0.5 -0.772q-0.061 -0.033 -0.124 -0.065"/><path class="c" d="M5.207 9.182c-0.253 0.065 -0.364 0.308 -0.338 0.554a0.875 0.875 0 0 1 0.026 0.199 0.323 0.323 0 0 1 -0.066 0.153 0.547 0.547 0 0 1 -0.226 0.167 0.126 0.126 0 0 0 0 0.216c0.281 0.145 0.6 0.238 0.919 0.196a0.931 0.931 0 0 0 0.37 -0.122 1.269 1.269 0 0 0 0.282 -0.252c0.106 -0.12 -0.07 -0.298 -0.177 -0.177 -0.139 0.158 -0.284 0.274 -0.498 0.304 -0.265 0.037 -0.537 -0.045 -0.77 -0.165v0.216c0.21 -0.099 0.383 -0.27 0.414 -0.51 0.016 -0.122 -0.044 -0.24 -0.023 -0.363a0.198 0.198 0 0 1 0.154 -0.174c0.156 -0.04 0.09 -0.281 -0.066 -0.241"/><path class="c" d="M5.004 13.988c-0.054 0.595 -0.143 1.184 -0.233 1.774 -0.093 0.608 -0.174 1.218 -0.264 1.827 -0.022 0.147 -0.043 0.295 -0.06 0.442a2.394 2.394 0 0 0 -0.031 0.462c0.021 0.247 0.313 0.281 0.505 0.314a8.438 8.438 0 0 0 1.202 0.094q0.554 0.015 1.107 0.032c0.361 0.011 0.722 0.001 1.083 -0.007 0.29 -0.006 0.583 -0.007 0.872 -0.034a7.063 7.063 0 0 0 0.747 -0.112 1.563 1.563 0 0 0 0.17 -0.039c0.135 -0.044 0.163 -0.143 0.15 -0.273 -0.033 -0.319 -0.083 -0.637 -0.138 -0.953 -0.109 -0.623 -0.216 -1.246 -0.31 -1.871 -0.077 -0.517 -0.149 -1.035 -0.237 -1.55a12.063 12.063 0 0 0 -0.05 -0.279c-0.031 -0.158 -0.272 -0.091 -0.241 0.067 0.198 1.021 0.303 2.058 0.486 3.082 0.054 0.305 0.112 0.609 0.161 0.915 0.024 0.147 0.045 0.294 0.063 0.442q0.007 0.059 0.013 0.118c0.002 0.019 -0.001 0.086 0.01 0.097 0.013 0.013 0.022 -0.039 0.027 -0.036a0.125 0.125 0 0 0 -0.03 0.008 6.313 6.313 0 0 1 -1.367 0.159c-0.422 0.012 -0.848 0.031 -1.271 0.019q-0.466 -0.013 -0.931 -0.028c-0.358 -0.01 -0.718 -0.009 -1.075 -0.044a3.606 3.606 0 0 1 -0.613 -0.1 0.294 0.294 0 0 1 -0.079 -0.028c-0.025 -0.04 -0.002 -0.135 0.002 -0.181 0.009 -0.146 0.026 -0.293 0.045 -0.438q0.12 -0.877 0.252 -1.753c0.086 -0.572 0.179 -1.142 0.244 -1.717q0.023 -0.204 0.042 -0.409a0.126 0.126 0 0 0 -0.125 -0.125 0.128 0.128 0 0 0 -0.125 0.125Z"/><path class="c" d="M6.081 11.216c0.089 -0.036 0.174 -0.08 0.261 -0.12l0.02 -0.009c0.016 -0.007 -0.034 0.014 -0.022 0.009s0.024 -0.01 0.036 -0.016a0.544 0.544 0 0 0 0.117 -0.087 0.566 0.566 0 0 0 0.135 -0.216 1.094 1.094 0 0 0 0.051 -0.232 0.139 0.139 0 0 0 -0.013 -0.096 0.125 0.125 0 0 0 -0.229 0.03 1.313 1.313 0 0 1 -0.038 0.194 0.813 0.813 0 0 1 -0.014 0.041 0.063 0.063 0 0 0 -0.004 0.01c0 0.001 0.012 -0.025 0.005 -0.013 -0.004 0.008 -0.007 0.016 -0.011 0.023a0.438 0.438 0 0 1 -0.025 0.042c-0.003 0.004 -0.018 0.025 -0.006 0.009s-0.007 0.008 -0.011 0.012c-0.011 0.013 -0.024 0.024 -0.036 0.035 -0.017 0.015 0.017 -0.011 -0.003 0.003q-0.013 0.009 -0.027 0.018c-0.023 0.014 -0.001 0.002 0.007 0a0.156 0.156 0 0 0 -0.033 0.014q-0.008 0.004 -0.016 0.007c-0.042 0.019 -0.083 0.038 -0.124 0.058l-0.071 0.033c-0.015 0.007 -0.076 0.033 -0.015 0.008a0.138 0.138 0 0 0 -0.075 0.058 0.128 0.128 0 0 0 -0.013 0.096 0.126 0.126 0 0 0 0.154 0.087Z"/><path class="c" d="M7.963 10.47c0.021 0.163 0.043 0.333 0.146 0.467a0.537 0.537 0 0 0 0.099 0.098 0.5 0.5 0 0 0 0.063 0.043 0.25 0.25 0 0 0 0.04 0.018c0.007 0.002 -0.039 -0.017 -0.021 -0.009 0.041 0.019 0.083 0.038 0.124 0.058s0.084 0.041 0.126 0.059a0.138 0.138 0 0 0 0.096 0.013 0.128 0.128 0 0 0 0.075 -0.058 0.126 0.126 0 0 0 -0.045 -0.171c-0.047 -0.02 -0.092 -0.043 -0.138 -0.065q-0.043 -0.02 -0.085 -0.04l-0.027 -0.013a0.313 0.313 0 0 0 -0.036 -0.015c-0.01 0.002 0.027 0.015 0.013 0.003a0.313 0.313 0 0 0 -0.03 -0.019q-0.017 -0.013 0.002 0.002a0.375 0.375 0 0 1 -0.014 -0.012c-0.013 -0.012 -0.044 -0.034 -0.049 -0.051q0.016 0.021 0.004 0.005a0.438 0.438 0 0 1 -0.009 -0.014q-0.009 -0.014 -0.017 -0.028c-0.002 -0.004 -0.011 -0.028 -0.014 -0.029q0.011 0.027 0.003 0.008 -0.003 -0.007 -0.005 -0.015a0.75 0.75 0 0 1 -0.03 -0.117q-0.007 -0.036 -0.013 -0.073 -0.003 -0.019 -0.006 -0.039l-0.002 -0.018q0.004 0.029 0.001 0.009a0.128 0.128 0 0 0 -0.125 -0.125c-0.061 0.003 -0.134 0.056 -0.125 0.125Z"/><path class="c" d="M9.165 8.431a0.139 0.139 0 0 1 0.202 0.033 0.34 0.34 0 0 1 0.024 0.15 0.9 0.9 0 0 1 -0.013 0.181 0.956 0.956 0 0 1 -0.128 0.338 0.475 0.475 0 0 1 -0.101 0.118 0.092 0.092 0 0 1 -0.098 0.026c-0.156 -0.042 -0.222 0.2 -0.067 0.241 0.198 0.053 0.352 -0.074 0.46 -0.228a1.15 1.15 0 0 0 0.187 -0.519c0.021 -0.173 0.021 -0.392 -0.119 -0.518a0.398 0.398 0 0 0 -0.525 0.002 0.126 0.126 0 0 0 0 0.177 0.128 0.128 0 0 0 0.177 0Z"/><path class="c" d="M8.887 9.229a0.881 0.881 0 0 1 -0.059 0.252c-0.005 0.015 -0.011 0.03 -0.016 0.045 -0.007 0.021 0.014 -0.026 0.002 -0.006 -0.01 0.017 -0.017 0.035 -0.026 0.052a2.156 2.156 0 0 1 -0.197 0.303c-0.177 0.229 -0.412 0.467 -0.706 0.532 -0.157 0.034 -0.091 0.276 0.066 0.241 0.347 -0.076 0.625 -0.349 0.836 -0.621 0.18 -0.233 0.337 -0.495 0.35 -0.797 0.007 -0.161 -0.243 -0.161 -0.25 0Z"/><path class="c" d="M5.52 8.254a0.398 0.398 0 0 0 -0.525 -0.002c-0.144 0.129 -0.14 0.355 -0.118 0.532a1.134 1.134 0 0 0 0.196 0.52c0.111 0.153 0.277 0.282 0.476 0.238a0.125 0.125 0 0 0 -0.066 -0.241c-0.084 0.019 -0.174 -0.092 -0.215 -0.154a0.944 0.944 0 0 1 -0.136 -0.344 0.894 0.894 0 0 1 -0.015 -0.178 0.356 0.356 0 0 1 0.024 -0.162 0.139 0.139 0 0 1 0.202 -0.033 0.128 0.128 0 0 0 0.177 0 0.126 0.126 0 0 0 0 -0.177Z"/><path class="c" d="M5.372 9.194a2.069 2.069 0 0 0 0.475 0.946c0.25 0.283 0.584 0.518 0.965 0.572a0.129 0.129 0 0 0 0.154 -0.087 0.126 0.126 0 0 0 -0.087 -0.154c-0.655 -0.093 -1.139 -0.725 -1.266 -1.343 -0.032 -0.158 -0.273 -0.091 -0.241 0.066Z"/><path class="c" d="M9.396 8.297c0.091 -0.56 0.035 -1.153 -0.277 -1.639a2.164 2.164 0 0 0 -1.289 -0.917A2.314 2.314 0 0 0 6.231 5.917a2.156 2.156 0 0 0 -0.878 0.846A2.081 2.081 0 0 0 5.106 7.544a2.75 2.75 0 0 0 0.035 0.754 0.126 0.126 0 0 0 0.154 0.087 0.128 0.128 0 0 0 0.087 -0.154c-0.065 -0.402 -0.057 -0.82 0.113 -1.197A1.9 1.9 0 0 1 6.186 6.233c0.815 -0.534 1.969 -0.359 2.594 0.384 0.375 0.446 0.466 1.052 0.375 1.614a0.129 0.129 0 0 0 0.087 0.154 0.126 0.126 0 0 0 0.154 -0.087Z"/><path class="c" d="M6.935 9.773a0.623 0.623 0 0 0 0.744 0 0.125 0.125 0 1 0 -0.177 -0.177c-0.005 0.005 -0.023 0.019 -0.003 0.003s-0.003 0.001 -0.009 0.005a0.313 0.313 0 0 1 -0.023 0.013c-0.005 0.003 -0.011 0.005 -0.016 0.007 0.006 -0.004 0.029 -0.011 0.009 -0.004a0.531 0.531 0 0 1 -0.075 0.021c-0.009 0.002 -0.031 0.011 -0.001 0.001a0.1 0.1 0 0 1 -0.023 0.002q-0.028 0.002 -0.055 0.002 -0.025 0 -0.051 -0.002a0.188 0.188 0 0 0 -0.028 -0.003c0.012 -0.001 0.022 0.003 0.003 0a0.463 0.463 0 0 1 -0.076 -0.02c-0.01 -0.004 -0.026 -0.014 0.006 0.003 -0.004 -0.002 -0.009 -0.004 -0.013 -0.006a0.313 0.313 0 0 1 -0.025 -0.014c-0.006 -0.004 -0.012 -0.009 -0.018 -0.013 0.036 0.022 0.017 0.014 0.007 0.004a0.125 0.125 0 1 0 -0.177 0.177Z"/><path class="c" d="M7.246 8.989a1.625 1.625 0 0 1 0.039 0.177l-0.004 -0.033a0.113 0.113 0 0 1 0.001 0.024l0.004 -0.033a0.063 0.063 0 0 1 -0.003 0.011l0.013 -0.03a0.063 0.063 0 0 1 -0.004 0.007l0.02 -0.025a0.037 0.037 0 0 1 -0.006 0.006l0.025 -0.02a0.125 0.125 0 0 1 -0.014 0.007l0.03 -0.013a0.106 0.106 0 0 1 -0.024 0.007l0.033 -0.004a0.094 0.094 0 0 1 -0.022 0l0.033 0.004c-0.008 -0.001 -0.017 -0.003 -0.025 -0.004a0.094 0.094 0 0 0 -0.05 -0.002 0.094 0.094 0 0 0 -0.046 0.015 0.125 0.125 0 0 0 -0.045 0.171 0.12 0.12 0 0 0 0.075 0.057c0.022 0.003 0.044 0.009 0.066 0.009a0.216 0.216 0 0 0 0.101 -0.025 0.153 0.153 0 0 0 0.083 -0.1 0.237 0.237 0 0 0 -0.001 -0.104 1.938 1.938 0 0 0 -0.037 -0.169 0.125 0.125 0 0 0 -0.154 -0.087 0.127 0.127 0 0 0 -0.075 0.057 0.131 0.131 0 0 0 -0.013 0.096Z"/><path class="c" d="M6.354 8.515c-0.029 0.094 -0.01 0.31 0.168 0.328 0.235 -0.001 0.247 -0.263 0.168 -0.385 -0.065 -0.101 -0.255 -0.142 -0.336 0.057"/><path class="c" d="M8.228 8.515c0.029 0.094 0.01 0.31 -0.168 0.328 -0.235 -0.001 -0.247 -0.263 -0.169 -0.385 0.065 -0.101 0.256 -0.142 0.337 0.057"/><path class="c" d="M6.185 11.107a1.621 1.621 0 0 0 2.151 0.025c0.123 -0.104 -0.054 -0.28 -0.177 -0.177a1.388 1.388 0 0 1 -1.798 -0.024c-0.12 -0.106 -0.298 0.07 -0.177 0.177"/><path class="c" d="M6.032 22.356c-0.15 0.139 -0.296 0.246 -0.501 0.287 -0.188 0.037 -0.453 0.019 -0.571 -0.154 -0.123 -0.181 0.016 -0.38 0.139 -0.516 0.164 -0.181 0.331 -0.36 0.49 -0.546q0.057 -0.067 0.113 -0.136 0.028 -0.034 0.055 -0.069c0.01 -0.013 0.035 -0.06 0.052 -0.064 -0.02 0.005 0.018 0.013 0.023 0.015a0.563 0.563 0 0 0 0.065 0.02 1.1 1.1 0 0 0 0.176 0.026c0.215 0.018 0.428 0.017 0.626 -0.079A0.9 0.9 0 0 0 6.825 21.063c0.039 -0.028 0.02 -0.011 0.015 -0.016l-0.018 0.002a0.073 0.073 0 0 1 -0.055 -0.022c0.016 0.004 -0.007 -0.014 0.003 0.005 0.016 0.031 -0.008 -0.024 0.006 0.013a0.625 0.625 0 0 1 0.025 0.095 1.875 1.875 0 0 1 0.029 0.298 1.087 1.087 0 0 1 -0.008 0.298c-0.024 0.099 -0.1 0.144 -0.185 0.191a3.125 3.125 0 0 0 -0.299 0.175 3.188 3.188 0 0 0 -0.307 0.255c-0.119 0.109 0.059 0.286 0.177 0.177a2.394 2.394 0 0 1 0.325 -0.262c0.097 -0.063 0.205 -0.108 0.302 -0.171a0.502 0.502 0 0 0 0.216 -0.257 0.931 0.931 0 0 0 0.031 -0.341c-0.007 -0.173 -0.008 -0.829 -0.333 -0.687a1.25 1.25 0 0 0 -0.124 0.079 0.606 0.606 0 0 1 -0.163 0.067 1.25 1.25 0 0 1 -0.391 0.007c-0.113 -0.009 -0.226 -0.081 -0.338 -0.049 -0.126 0.036 -0.205 0.19 -0.284 0.285 -0.185 0.221 -0.387 0.426 -0.575 0.644 -0.173 0.2 -0.282 0.471 -0.154 0.724 0.136 0.27 0.47 0.358 0.75 0.33a1.137 1.137 0 0 0 0.431 -0.127 1.625 1.625 0 0 0 0.307 -0.242c0.118 -0.109 -0.059 -0.286 -0.177 -0.177"/><path class="c" d="M5.709 19.629c-0.004 0.26 -0.007 0.52 -0.015 0.78a12.875 12.875 0 0 1 -0.013 0.333 4.875 4.875 0 0 1 -0.01 0.142q-0.002 0.026 -0.005 0.053l-0.003 0.029c-0.002 0.021 0.004 -0.029 -0.001 0.003a0.129 0.129 0 0 0 0.087 0.154 0.126 0.126 0 0 0 0.154 -0.087 5.188 5.188 0 0 0 0.04 -0.605c0.008 -0.267 0.012 -0.534 0.016 -0.801 0.002 -0.161 -0.248 -0.161 -0.25 0Z"/><path class="c" d="M6.839 19.677c-0.046 0.421 -0.1 0.841 -0.146 1.262a0.126 0.126 0 0 0 0.125 0.125 0.128 0.128 0 0 0 0.125 -0.125c0.046 -0.421 0.1 -0.841 0.146 -1.262a0.126 0.126 0 0 0 -0.125 -0.125 0.128 0.128 0 0 0 -0.125 0.125"/><path class="c" d="M8.576 22.532c0.178 0.169 0.362 0.307 0.609 0.353 0.254 0.048 0.565 0.018 0.752 -0.181s0.185 -0.479 0.051 -0.708a2.031 2.031 0 0 0 -0.25 -0.31c-0.093 -0.105 -0.187 -0.209 -0.278 -0.316s-0.18 -0.213 -0.264 -0.325a0.313 0.313 0 0 0 -0.144 -0.124 0.275 0.275 0 0 0 -0.191 0.015 1.125 1.125 0 0 1 -0.346 0.037 0.602 0.602 0 0 1 -0.331 -0.075c-0.079 -0.046 -0.146 -0.123 -0.246 -0.096a0.237 0.237 0 0 0 -0.145 0.161 1.4 1.4 0 0 0 -0.064 0.418c-0.011 0.223 -0.034 0.489 0.152 0.651a2.313 2.313 0 0 0 0.334 0.207 2.188 2.188 0 0 1 0.361 0.291c0.117 0.111 0.294 -0.066 0.177 -0.177a2.531 2.531 0 0 0 -0.536 -0.399c-0.072 -0.039 -0.166 -0.08 -0.209 -0.154a0.459 0.459 0 0 1 -0.036 -0.234 3 3 0 0 1 0.023 -0.371 1.125 1.125 0 0 1 0.031 -0.141c0 -0.002 0.012 -0.042 0.005 -0.015 0.008 -0.031 0.007 -0.003 0.001 -0.008l0.006 -0.006a0.076 0.076 0 0 1 -0.056 0.022c-0.03 0 -0.043 -0.014 -0.004 0.014 0.185 0.135 0.382 0.168 0.607 0.162a1.5 1.5 0 0 0 0.279 -0.027 1 1 0 0 1 0.115 -0.038c-0.02 0.001 0.011 0.024 0.021 0.037 0.025 0.031 0.048 0.063 0.073 0.094 0.144 0.183 0.298 0.357 0.453 0.53 0.13 0.147 0.34 0.327 0.314 0.547 -0.029 0.241 -0.309 0.301 -0.509 0.287 -0.238 -0.017 -0.409 -0.141 -0.576 -0.299 -0.117 -0.111 -0.294 0.066 -0.177 0.177"/><path class="c" d="M8.755 19.655q0.006 0.39 0.028 0.779c0.011 0.198 0.021 0.398 0.05 0.595a0.126 0.126 0 0 0 0.154 0.087 0.128 0.128 0 0 0 0.087 -0.154 0.125 0.125 0 0 1 -0.003 -0.021q-0.003 -0.027 -0.006 -0.054c-0.004 -0.044 -0.008 -0.087 -0.012 -0.131a13.313 13.313 0 0 1 -0.022 -0.342q-0.02 -0.379 -0.027 -0.759c-0.003 -0.161 -0.253 -0.161 -0.25 0Z"/><path class="c" d="M7.67 19.678c0.047 0.435 0.068 0.873 0.115 1.309a0.129 0.129 0 0 0 0.125 0.125 0.126 0.126 0 0 0 0.125 -0.125c-0.047 -0.436 -0.068 -0.874 -0.115 -1.309a0.129 0.129 0 0 0 -0.125 -0.125 0.126 0.126 0 0 0 -0.125 0.125"/><path class="c" d="M6.24 10.898c-0.591 0.156 -1.216 0.474 -1.537 1.015a6.688 6.688 0 0 0 -0.445 0.975c-0.135 0.343 -0.271 0.685 -0.396 1.032 -0.149 0.414 -0.293 0.831 -0.458 1.239a0.125 0.125 0 0 0 0.057 0.141 3.506 3.506 0 0 0 1.203 0.418 0.129 0.129 0 0 0 0.154 -0.087 0.126 0.126 0 0 0 -0.087 -0.154 3.319 3.319 0 0 1 -1.143 -0.393l0.057 0.141c0.277 -0.685 0.505 -1.388 0.778 -2.075a10.063 10.063 0 0 1 0.401 -0.94 1.844 1.844 0 0 1 0.243 -0.383 1.688 1.688 0 0 1 0.316 -0.271 3.031 3.031 0 0 1 0.924 -0.417c0.155 -0.041 0.089 -0.282 -0.067 -0.241Z"/><path class="c" d="M8.311 11.096a3.763 3.763 0 0 1 0.848 0.436 2.125 2.125 0 0 1 0.334 0.284 1.844 1.844 0 0 1 0.251 0.36 7.813 7.813 0 0 1 0.434 0.941 25.938 25.938 0 0 1 0.373 0.979c0.136 0.378 0.268 0.757 0.419 1.129l0.057 -0.141a3.319 3.319 0 0 1 -1.143 0.393 0.126 0.126 0 0 0 -0.087 0.154 0.128 0.128 0 0 0 0.154 0.087 3.506 3.506 0 0 0 1.203 -0.418 0.126 0.126 0 0 0 0.057 -0.141c-0.278 -0.688 -0.503 -1.395 -0.781 -2.083a9 9 0 0 0 -0.442 -0.978 2.35 2.35 0 0 0 -0.272 -0.408 2.188 2.188 0 0 0 -0.338 -0.306 3.869 3.869 0 0 0 -0.999 -0.527c-0.151 -0.056 -0.216 0.186 -0.067 0.241Z"/><path class="c" d="M3.641 15.314a2.212 2.212 0 0 1 -0.18 0.36 3.75 3.75 0 0 1 -0.284 0.348c-0.099 0.109 -0.204 0.21 -0.31 0.312a1.219 1.219 0 0 0 -0.243 0.293 0.5 0.5 0 0 0 -0.055 0.372c0.045 0.151 0.199 0.207 0.344 0.197a0.959 0.959 0 0 0 0.421 -0.165 3.625 3.625 0 0 0 0.377 -0.267l-0.209 -0.055c0.071 0.274 0.493 0.393 0.67 0.151 0.083 -0.114 0.086 -0.279 0.109 -0.413 0.02 -0.116 0.037 -0.235 0.068 -0.349 0.042 -0.155 -0.199 -0.222 -0.241 -0.066 -0.048 0.176 -0.069 0.36 -0.101 0.54 -0.013 0.07 -0.01 0.164 -0.098 0.168a0.154 0.154 0 0 1 -0.166 -0.097 0.127 0.127 0 0 0 -0.209 -0.055 3.125 3.125 0 0 1 -0.302 0.213c-0.097 0.06 -0.204 0.132 -0.319 0.146 -0.042 0.005 -0.097 0.013 -0.108 -0.035a0.219 0.219 0 0 1 0.016 -0.114A0.7 0.7 0 0 1 3 16.553a7.063 7.063 0 0 0 0.492 -0.515 2.5 2.5 0 0 0 0.224 -0.297 3.25 3.25 0 0 0 0.14 -0.301 0.129 0.129 0 0 0 -0.045 -0.171 0.126 0.126 0 0 0 -0.171 0.045Z"/><path class="c" d="M10.736 15.44c0.045 0.096 0.08 0.197 0.133 0.289a2.313 2.313 0 0 0 0.222 0.298 7 7 0 0 0 0.501 0.526 0.716 0.716 0 0 1 0.178 0.237 0.229 0.229 0 0 1 0.018 0.12c-0.011 0.044 -0.054 0.039 -0.095 0.036 -0.117 -0.009 -0.224 -0.079 -0.321 -0.139a3.125 3.125 0 0 1 -0.314 -0.221 0.127 0.127 0 0 0 -0.209 0.055 0.154 0.154 0 0 1 -0.166 0.097c-0.088 -0.003 -0.085 -0.099 -0.098 -0.168 -0.032 -0.179 -0.054 -0.364 -0.102 -0.54 -0.042 -0.155 -0.283 -0.089 -0.241 0.066 0.03 0.111 0.047 0.226 0.067 0.339 0.024 0.138 0.026 0.307 0.111 0.423 0.176 0.242 0.599 0.123 0.669 -0.151l-0.209 0.055a3.625 3.625 0 0 0 0.377 0.267 0.959 0.959 0 0 0 0.421 0.165c0.145 0.01 0.298 -0.046 0.344 -0.197a0.5 0.5 0 0 0 -0.055 -0.372 1.219 1.219 0 0 0 -0.243 -0.293c-0.106 -0.101 -0.211 -0.203 -0.31 -0.312a3.75 3.75 0 0 1 -0.284 -0.348 2.225 2.225 0 0 1 -0.18 -0.36 0.126 0.126 0 0 0 -0.171 -0.045 0.128 0.128 0 0 0 -0.045 0.171"/><path class="c" d="M5.584 11.364c0.13 0.334 0.365 0.71 0.7 0.859 0.4 0.178 0.809 -0.046 1.097 -0.322h-0.177c0.171 0.164 0.373 0.314 0.61 0.364a0.775 0.775 0 0 0 0.689 -0.175L8.306 11.938l-0.002 0.004a0.126 0.126 0 0 0 0.196 0.151 1.831 1.831 0 0 0 0.498 -0.729 0.126 0.126 0 0 0 -0.087 -0.154 0.128 0.128 0 0 0 -0.154 0.087 1.569 1.569 0 0 1 -0.434 0.619l0.196 0.151 0.002 -0.004a0.126 0.126 0 0 0 -0.196 -0.151c-0.311 0.265 -0.696 0.05 -0.945 -0.189a0.128 0.128 0 0 0 -0.177 0c-0.212 0.203 -0.54 0.419 -0.839 0.261 -0.252 -0.133 -0.438 -0.425 -0.54 -0.688a0.129 0.129 0 0 0 -0.154 -0.087 0.126 0.126 0 0 0 -0.087 0.154Z"/><path class="g" d="M6.916 15.842c-0.667 -1.074 -1.357 -3.255 -1.492 -4.559 0.076 -0.069 0.453 -0.274 0.55 -0.274 0.09 1.076 0.91 3.731 1.502 4.528"/><path class="c" d="M7.024 15.779c-0.313 -0.505 -0.542 -1.062 -0.746 -1.619a15.25 15.25 0 0 1 -0.567 -1.931 8.438 8.438 0 0 1 -0.162 -0.947l-0.037 0.088c0.019 -0.016 -0.017 0.008 0 -0.001a0.25 0.25 0 0 0 0.024 -0.017c0.02 -0.014 0.041 -0.027 0.062 -0.039 0.048 -0.029 0.098 -0.056 0.147 -0.083a2 2 0 0 1 0.138 -0.067 0.688 0.688 0 0 1 0.066 -0.025c0.007 -0.002 0.015 -0.004 0.022 -0.006 0.031 -0.009 -0.023 0 0.002 -0.001l-0.125 -0.125c0.053 0.612 0.216 1.219 0.385 1.806a15.438 15.438 0 0 0 0.718 2.021 4.037 4.037 0 0 0 0.416 0.763 0.129 0.129 0 0 0 0.171 0.045 0.126 0.126 0 0 0 0.045 -0.171 3.688 3.688 0 0 1 -0.361 -0.644c-0.138 -0.297 -0.258 -0.602 -0.369 -0.91a17.313 17.313 0 0 1 -0.601 -2.028 6.594 6.594 0 0 1 -0.154 -0.884 0.127 0.127 0 0 0 -0.125 -0.125c-0.14 0.006 -0.283 0.093 -0.403 0.159a1.75 1.75 0 0 0 -0.175 0.106 0.256 0.256 0 0 0 -0.079 0.071 0.225 0.225 0 0 0 -0.008 0.144 9.75 9.75 0 0 0 0.199 1.097 14.981 14.981 0 0 0 0.762 2.36 7.75 7.75 0 0 0 0.539 1.084c0.084 0.137 0.301 0.011 0.216 -0.126Z"/><path class="g" d="M7.264 17.36a0.366 0.366 0 0 1 -0.108 -0.108c-0.13 -0.204 -0.279 -0.798 -0.274 -1.226 0.002 -0.157 0.168 -0.377 0.356 -0.433 0.75 -0.221 1.314 -0.305 2.047 -0.518a0.287 0.287 0 0 1 0.324 0.13c0.14 0.177 0.26 0.384 0.338 0.781 0.06 0.308 0.026 0.967 -0.272 1.063a11.813 11.813 0 0 1 -1.831 0.399l-0.083 0.007a0.786 0.786 0 0 1 -0.496 -0.095"/><path class="c" d="M7.074 15.567a0.494 0.494 0 0 0 -0.241 0.214 0.599 0.599 0 0 0 -0.073 0.357 3.425 3.425 0 0 0 0.117 0.731c0.048 0.178 0.104 0.396 0.239 0.53 0.168 0.168 0.432 0.199 0.657 0.18a7.688 7.688 0 0 0 0.788 -0.126c0.287 -0.055 0.573 -0.119 0.855 -0.197 0.209 -0.058 0.418 -0.095 0.536 -0.294a1.25 1.25 0 0 0 0.141 -0.554 1.906 1.906 0 0 0 -0.395 -1.292 0.126 0.126 0 0 0 -0.177 0 0.128 0.128 0 0 0 0 0.177 1.62 1.62 0 0 1 0.325 0.939 1.5 1.5 0 0 1 -0.055 0.474 0.544 0.544 0 0 1 -0.079 0.166 0.156 0.156 0 0 1 -0.052 0.048 0.875 0.875 0 0 1 -0.123 0.042 11.188 11.188 0 0 1 -1.458 0.325c-0.196 0.032 -0.408 0.078 -0.605 0.028a0.352 0.352 0 0 1 -0.203 -0.117 0.688 0.688 0 0 1 -0.083 -0.173 3.081 3.081 0 0 1 -0.158 -0.665 1.5 1.5 0 0 1 -0.021 -0.344 0.284 0.284 0 0 1 0.059 -0.135 0.362 0.362 0 0 1 0.073 -0.071c0.149 -0.056 0.085 -0.298 -0.066 -0.241Z"/><path class="c" d="m8.519 16.064 0.212 -0.044a0.125 0.125 0 0 0 0.03 -0.228l-0.03 -0.013a0.125 0.125 0 0 0 -0.067 0l-0.212 0.044a0.125 0.125 0 0 0 -0.03 0.229l0.03 0.013a0.125 0.125 0 0 0 0.066 0Z"/><path class="c" d="M8.137 16.65c0.248 -0.055 0.496 -0.112 0.739 -0.185a6.063 6.063 0 0 0 0.355 -0.12 1.75 1.75 0 0 0 0.369 -0.167 0.825 0.825 0 0 0 0.244 -0.227 0.575 0.575 0 0 0 0.056 -0.329 0.9 0.9 0 0 0 -0.2 -0.463 0.544 0.544 0 0 0 -0.203 -0.182c-0.124 -0.057 -0.234 -0.024 -0.36 0.011 -0.265 0.074 -0.532 0.138 -0.8 0.2 -0.264 0.061 -0.528 0.121 -0.79 0.19 -0.201 0.053 -0.658 0.119 -0.518 0.433a3.188 3.188 0 0 0 0.371 0.66c0.179 0.23 0.472 0.236 0.736 0.18 0.157 -0.033 0.091 -0.274 -0.066 -0.241 -0.17 0.036 -0.368 0.049 -0.483 -0.104a2.875 2.875 0 0 1 -0.287 -0.506 0.938 0.938 0 0 0 -0.048 -0.102c0.001 0 0.042 0.124 -0.002 0.016 0.025 0.061 -0.011 0.006 0.001 0.011a0.5 0.5 0 0 0 0.065 -0.024q0.176 -0.051 0.353 -0.097c0.223 -0.058 0.447 -0.109 0.671 -0.161 0.219 -0.051 0.438 -0.101 0.656 -0.158q0.09 -0.023 0.18 -0.048a0.787 0.787 0 0 1 0.166 -0.045 0.189 0.189 0 0 1 0.136 0.086 0.781 0.781 0 0 1 0.167 0.309 0.487 0.487 0 0 1 0.006 0.115 0.625 0.625 0 0 1 -0.007 0.07 0.375 0.375 0 0 1 -0.008 0.043c0.004 -0.012 0.007 -0.013 0 -0.001a0.553 0.553 0 0 1 -0.173 0.156 1.669 1.669 0 0 1 -0.348 0.153q-0.163 0.059 -0.329 0.109c-0.236 0.07 -0.476 0.125 -0.716 0.179 -0.157 0.035 -0.09 0.276 0.067 0.241"/><path class="c" d="M9.201 18.751c0.031 0.234 0.057 0.469 0.082 0.703l0.037 -0.088 -0.013 0.014c-0.002 -0.001 0.009 -0.006 0.004 -0.004 -0.003 0.002 -0.022 0.008 -0.009 0.005 0.015 -0.004 -0.012 0.004 -0.015 0.005a1.25 1.25 0 0 1 -0.152 0.037 3.938 3.938 0 0 1 -0.42 0.055c-0.315 0.027 -0.632 0.031 -0.948 0.034 -0.517 0.005 -1.035 -0.005 -1.551 -0.043 -0.183 -0.014 -0.367 -0.026 -0.55 -0.046 -0.072 -0.008 -0.145 -0.017 -0.216 -0.031a0.519 0.519 0 0 1 -0.125 -0.036l0.062 0.108c0.025 -0.231 0.059 -0.462 0.096 -0.692a0.129 0.129 0 0 0 -0.087 -0.154 0.126 0.126 0 0 0 -0.154 0.087c-0.04 0.252 -0.077 0.505 -0.104 0.758a0.122 0.122 0 0 0 0.062 0.108c0.12 0.067 0.27 0.078 0.404 0.095 0.199 0.024 0.398 0.037 0.598 0.052 0.338 0.025 0.677 0.038 1.015 0.044 0.315 0.005 0.631 0.002 0.946 -0.006 0.362 -0.009 0.733 -0.022 1.089 -0.101 0.118 -0.026 0.287 -0.07 0.282 -0.22 -0.008 -0.227 -0.05 -0.459 -0.08 -0.684a0.129 0.129 0 0 0 -0.125 -0.125c-0.061 0 -0.134 0.058 -0.125 0.125Z"/><path class="c" d="M9.147 8.14a5.188 5.188 0 0 1 -0.571 -0.371c-0.214 -0.164 -0.416 -0.387 -0.502 -0.647a0.126 0.126 0 0 0 -0.209 -0.055 1.606 1.606 0 0 1 -0.409 0.342 1.125 1.125 0 0 1 -0.207 0.095 0.938 0.938 0 0 1 -0.099 0.027 0.563 0.563 0 0 1 -0.043 0.007c-0.017 0.002 -0.059 -0.008 -0.016 0.006l0.055 0.032a0.091 0.091 0 0 1 0.025 0.055l0 -0.011c-0.009 0.01 0.001 -0.009 0.004 -0.021 0.008 -0.035 0.018 -0.069 0.029 -0.103a3.5 3.5 0 0 1 0.074 -0.204c0.04 -0.101 -0.097 -0.199 -0.184 -0.141 -0.453 0.3 -0.869 0.664 -1.356 0.911 -0.144 0.073 -0.017 0.289 0.126 0.216 0.487 -0.247 0.903 -0.612 1.356 -0.911l-0.184 -0.141a1.669 1.669 0 0 0 -0.111 0.35 0.191 0.191 0 0 0 0.043 0.178c0.059 0.056 0.146 0.037 0.218 0.024 0.332 -0.057 0.639 -0.285 0.855 -0.534l-0.209 -0.055c0.181 0.552 0.709 0.891 1.188 1.167 0.14 0.081 0.266 -0.135 0.126 -0.216Z"/><path class="c" d="M5.739 8.063c-0.042 0.02 -0.084 0.04 -0.127 0.059l0.03 -0.013a0.787 0.787 0 0 1 -0.19 0.059l0.033 -0.004 -0.005 0.001a0.139 0.139 0 0 0 -0.088 0.037 0.125 0.125 0 0 0 0 0.177 0.119 0.119 0 0 0 0.088 0.037 0.819 0.819 0 0 0 0.197 -0.051c0.064 -0.025 0.126 -0.054 0.187 -0.084a0.126 0.126 0 0 0 0.057 -0.075 0.128 0.128 0 0 0 -0.013 -0.096 0.126 0.126 0 0 0 -0.075 -0.057 0.139 0.139 0 0 0 -0.096 0.013Z"/><path class="g" d="M4.738 7.664a0.238 0.238 0 0 1 0.083 -0.19 1.631 1.631 0 0 1 0.377 -0.249q0.001 -0.004 0.002 -0.007a2.094 2.094 0 0 1 0.618 -0.969 1.981 1.981 0 0 1 1.393 -0.496c0.217 0.013 0.421 0.01 0.632 0.08 0.189 0.063 0.426 0.147 0.592 0.264A2.219 2.219 0 0 1 9.188 7.107a0.625 0.625 0 0 1 0.028 0.088 1.725 1.725 0 0 1 0.44 0.279 0.234 0.234 0 0 1 0.081 0.206 0.206 0.206 0 0 1 -0.089 0.175c-0.353 0.237 -1.567 0.366 -2.41 0.366 -0.861 0 -2.056 -0.129 -2.409 -0.366a0.206 0.206 0 0 1 -0.089 -0.175q-0.002 -0.008 -0.002 -0.016"/><path class="c" d="M6.983 5.824c-0.293 0.126 -0.476 0.45 -0.558 0.744a4.2 4.2 0 0 0 -0.143 0.901c-0.008 0.161 0.242 0.16 0.25 0a3.981 3.981 0 0 1 0.124 -0.797c0.065 -0.248 0.198 -0.523 0.453 -0.632a0.126 0.126 0 0 0 0.045 -0.171 0.128 0.128 0 0 0 -0.171 -0.045Z"/><path class="c" d="M7.325 6.013c0.196 0.097 0.313 0.354 0.388 0.552a2.519 2.519 0 0 1 0.171 0.914c-0.001 0.161 0.249 0.161 0.25 0A2.712 2.712 0 0 0 7.938 6.455c-0.097 -0.242 -0.239 -0.537 -0.486 -0.659 -0.144 -0.071 -0.271 0.145 -0.126 0.216Z"/><path class="c" d="M9.216 7.334c0.107 0.054 0.493 0.227 0.384 0.397a0.338 0.338 0 0 1 -0.144 0.084 2 2 0 0 1 -0.218 0.07 6.656 6.656 0 0 1 -1.24 0.183 10.313 10.313 0 0 1 -1.322 0.013 7.813 7.813 0 0 1 -1.302 -0.163c-0.157 -0.036 -0.328 -0.073 -0.458 -0.156a0.123 0.123 0 0 1 -0.014 -0.192 1.256 1.256 0 0 1 0.359 -0.237c0.144 -0.073 0.017 -0.289 -0.126 -0.216 -0.224 0.114 -0.552 0.286 -0.516 0.583a0.347 0.347 0 0 0 0.177 0.281 1.231 1.231 0 0 0 0.219 0.096c0.438 0.153 0.922 0.197 1.381 0.234a10.438 10.438 0 0 0 1.508 0.013c0.479 -0.031 0.973 -0.077 1.437 -0.208 0.18 -0.051 0.447 -0.124 0.506 -0.328a0.394 0.394 0 0 0 -0.093 -0.394 1.531 1.531 0 0 0 -0.409 -0.276c-0.143 -0.073 -0.27 0.143 -0.126 0.216Z"/><path class="c" d="M8.662 7.268a3.087 3.087 0 0 1 -0.491 0.108c-0.225 0.037 -0.451 0.063 -0.678 0.079a6.963 6.963 0 0 1 -1.262 -0.047 3.938 3.938 0 0 1 -0.511 -0.08c-0.156 -0.039 -0.223 0.202 -0.066 0.241a3.938 3.938 0 0 0 0.463 0.075q0.329 0.041 0.661 0.061a6.531 6.531 0 0 0 1.359 -0.072 3.438 3.438 0 0 0 0.593 -0.124c0.152 -0.051 0.087 -0.293 -0.066 -0.241Z"/><path class="c" d="M9.371 7.298a2.3 2.3 0 0 0 -0.487 -0.954 1.875 1.875 0 0 0 -0.425 -0.383 2.469 2.469 0 0 0 -0.538 -0.235c-0.222 -0.075 -0.448 -0.085 -0.68 -0.098a2.063 2.063 0 0 0 -0.562 0.044 2.156 2.156 0 0 0 -1.025 0.556 2.209 2.209 0 0 0 -0.612 1.103c-0.034 0.157 0.206 0.224 0.241 0.066a1.946 1.946 0 0 1 1.331 -1.451 1.738 1.738 0 0 1 0.503 -0.074 2.775 2.775 0 0 1 0.578 0.047 1.791 1.791 0 0 1 0.926 0.504 2.047 2.047 0 0 1 0.507 0.939c0.036 0.157 0.277 0.09 0.241 -0.067Z"/><path class="g" d="M7.071 5.428a0.287 0.287 0 0 0 -0.145 0.27 0.225 0.225 0 0 0 0.063 0.152 0.269 0.269 0 0 0 0.233 0.073c0.124 -0.019 0.232 -0.057 0.273 -0.143a0.276 0.276 0 0 0 -0.022 -0.293c-0.108 -0.148 -0.307 -0.123 -0.402 -0.059"/><path class="c" d="M7.008 5.32a0.413 0.413 0 0 0 -0.207 0.389 0.367 0.367 0 0 0 0.346 0.34 0.575 0.575 0 0 0 0.25 -0.041 0.366 0.366 0 0 0 0.205 -0.163 0.419 0.419 0 0 0 0.036 -0.304 0.409 0.409 0 0 0 -0.168 -0.228 0.439 0.439 0 0 0 -0.462 0.006 0.125 0.125 0 1 0 0.126 0.216 0.25 0.25 0 0 1 0.023 -0.014c0.005 -0.003 0.011 -0.005 0.015 -0.008 -0.03 0.017 -0.021 0.008 -0.011 0.005 0.021 -0.007 0.044 -0.01 0.065 -0.017 -0.032 0.01 -0.02 0.002 -0.007 0.001q0.007 -0.001 0.013 -0.001a0.313 0.313 0 0 1 0.037 0c0.006 0 0.011 0.002 0.017 0.002 -0.034 -0.001 -0.02 -0.003 -0.009 -0.001 0.013 0.003 0.025 0.007 0.037 0.01 0.025 0.007 -0.026 -0.014 -0.004 -0.002 0.004 0.002 0.009 0.004 0.013 0.007 0.006 0.004 0.013 0.008 0.019 0.011 0.022 0.013 -0.017 -0.015 -0.004 -0.004a0.375 0.375 0 0 1 0.028 0.027l0.003 0.003q0.013 0.015 -0.004 -0.006c0.006 0.003 0.011 0.017 0.015 0.023 0.003 0.004 0.013 0.019 0.013 0.024 0.001 -0.01 -0.007 -0.02 -0.002 -0.005 0.003 0.009 0.006 0.017 0.008 0.026 0.001 0.002 0.008 0.031 0.003 0.01 -0.005 -0.02 0 0.007 0 0.01v0.023c-0.001 0.011 0.005 0.026 0.001 -0.001a0.087 0.087 0 0 1 -0.006 0.029 0.1 0.1 0 0 1 -0.009 0.029c0.014 -0.018 0.003 -0.005 -0.001 0.003 -0.003 0.005 -0.006 0.01 -0.009 0.015 -0.011 0.021 0.016 -0.015 0.005 -0.006 -0.004 0.004 -0.008 0.009 -0.012 0.013 -0.003 0.003 -0.021 0.016 -0.004 0.004 0.019 -0.013 -0.003 0.001 -0.005 0.003 -0.006 0.004 -0.013 0.008 -0.02 0.012 -0.002 0.001 -0.021 0.009 -0.021 0.01 0 -0.004 0.027 -0.011 0.003 -0.002q-0.02 0.007 -0.041 0.013a0.625 0.625 0 0 1 -0.043 0.01q-0.011 0.002 -0.023 0.004l-0.018 0.003 0.014 -0.002a0.169 0.169 0 0 1 -0.052 0.002c-0.027 -0.002 0.003 -0.001 0.003 0.001l-0.02 -0.004a0.375 0.375 0 0 1 -0.019 -0.005c-0.003 -0.001 -0.027 -0.01 -0.006 -0.002s-0.001 -0.001 -0.004 -0.003a0.25 0.25 0 0 1 -0.02 -0.011q-0.006 -0.004 -0.013 -0.008c-0.018 -0.012 0.021 0.018 0.01 0.008 -0.006 -0.006 -0.013 -0.011 -0.019 -0.018l-0.003 -0.003q-0.013 -0.015 0.004 0.005c-0.004 -0.001 -0.01 -0.015 -0.012 -0.018 -0.003 -0.005 -0.01 -0.014 -0.01 -0.019q0.01 0.025 0.003 0.006a0.125 0.125 0 0 1 -0.004 -0.013 0.1 0.1 0 0 0 -0.004 -0.02q0.004 0.03 0.002 0.01v-0.008c0 -0.018 0.003 -0.035 0.004 -0.052 -0.001 0.035 -0.001 0.012 0 0.003q0.002 -0.011 0.005 -0.021c0.003 -0.01 0.004 -0.013 0.006 -0.02 0.006 -0.021 -0.013 0.026 -0.003 0.006 0.006 -0.011 0.012 -0.022 0.019 -0.033 0.01 -0.016 -0.007 0.009 -0.008 0.01 0.006 -0.005 0.011 -0.013 0.017 -0.019 0.009 -0.009 0.019 -0.018 0.029 -0.026 0.008 -0.007 0.014 -0.005 -0.009 0.007a0.25 0.25 0 0 0 0.024 -0.017 0.125 0.125 0 0 0 -0.126 -0.216Z"/></svg>