<svg width="25px" height="25px" viewBox="0 0 32 32" fill="#000000" class="icon" version="1.1" xmlns="http://www.w3.org/2000/svg"><path d="M9.005 23.994H4.508a0.25 0.25 0 0 1 -0.25 -0.25 0.25 0.25 0 0 1 0.25 -0.25h4.497a0.25 0.25 0 0 1 0.25 0.25 0.25 0.25 0 0 1 -0.25 0.25m4.498 -19.486c-1.24 0 -2.248 -1.009 -2.248 -2.248 0 -1.24 1.009 -2.248 2.248 -2.248 0.744 0 1.444 0.38 1.859 0.999h0.139a0.25 0.25 0 0 1 0.25 0.25v1.999a0.25 0.25 0 0 1 -0.25 0.25h-0.139c-0.416 0.62 -1.116 0.999 -1.859 0.999m0 -3.997c-0.964 0 -1.749 0.785 -1.749 1.749s0.785 1.749 1.749 1.749c0.624 0 1.187 -0.327 1.505 -0.875a0.25 0.25 0 0 1 0.216 -0.124h0.027V1.51h-0.027a0.25 0.25 0 0 1 -0.216 -0.124c-0.318 -0.548 -0.881 -0.875 -1.505 -0.875" fill=""/><path d="M17 3.509h-1.499a0.25 0.25 0 0 1 -0.25 -0.25V1.26a0.25 0.25 0 0 1 0.25 -0.25h1.499a0.25 0.25 0 0 1 0.177 0.073l0.5 0.5a0.25 0.25 0 0 1 0.073 0.177v0.999a0.25 0.25 0 0 1 -0.073 0.177l-0.5 0.5a0.249 0.249 0 0 1 -0.177 0.073m-1.249 -0.5h1.146l0.353 -0.353V1.864L16.896 1.51h-1.146z" fill=""/><path d="M16.5 3.509a0.25 0.25 0 0 1 -0.25 -0.25V1.26a0.25 0.25 0 0 1 0.25 -0.25 0.25 0.25 0 0 1 0.25 0.25v1.999a0.25 0.25 0 0 1 -0.25 0.25m-1.499 -0.5a0.249 0.249 0 0 1 -0.177 -0.073l-0.5 -0.5a0.25 0.25 0 0 1 0 -0.353l0.5 -0.5a0.25 0.25 0 0 1 0.353 0 0.25 0.25 0 0 1 0 0.353L14.855 2.26l0.323 0.323a0.25 0.25 0 0 1 0 0.353 0.248 0.248 0 0 1 -0.177 0.073" fill=""/><path d="M15.001 3.009h-1.499a0.25 0.25 0 0 1 -0.25 -0.25 0.25 0.25 0 0 1 0.25 -0.25h1.499a0.25 0.25 0 0 1 0.25 0.25 0.25 0.25 0 0 1 -0.25 0.25m0 -0.999h-1.499c-0.138 0 -0.25 -0.112 -0.25 -0.25s0.112 -0.25 0.25 -0.25h1.499c0.138 0 0.25 0.112 0.25 0.25s-0.112 0.25 -0.25 0.25m4.496 6.995H12.502a0.251 0.251 0 0 1 -0.208 -0.111l-0.999 -1.499a0.25 0.25 0 0 1 0.416 -0.277l0.925 1.388H19.394l1.425 -1.426a0.25 0.25 0 1 1 0.353 0.353l-1.498 1.499a0.25 0.25 0 0 1 -0.177 0.073m-8.494 -0.5h-3.498c-0.138 0 -0.25 -0.112 -0.25 -0.25s0.112 -0.25 0.25 -0.25h3.498c0.138 0 0.25 0.112 0.25 0.25s-0.112 0.25 -0.25 0.25m13.99 0H20.996c-0.138 0 -0.25 -0.112 -0.25 -0.25s0.112 -0.25 0.25 -0.25h3.997c0.138 0 0.25 0.112 0.25 0.25s-0.112 0.25 -0.25 0.25" fill=""/><path d="M17.998 8.006H14.001a0.25 0.25 0 0 1 -0.25 -0.25 0.25 0.25 0 0 1 0.25 -0.25h3.997a0.25 0.25 0 0 1 0.25 0.25 0.25 0.25 0 0 1 -0.25 0.25M23.994 27.492h-1.999a0.25 0.25 0 0 1 -0.25 -0.25 0.25 0.25 0 0 1 0.25 -0.25H23.994a0.25 0.25 0 0 1 0.25 0.25 0.25 0.25 0 0 1 -0.25 0.25" fill=""/><path d="M21.995 29.49a0.25 0.25 0 0 1 -0.25 -0.25v-1.999a0.25 0.25 0 0 1 0.25 -0.25 0.25 0.25 0 0 1 0.25 0.25v1.999a0.25 0.25 0 0 1 -0.25 0.25M16.249 19.997c-2.48 0 -4.497 -2.017 -4.497 -4.497s2.017 -4.497 4.497 -4.497 4.497 2.017 4.497 4.497 -2.017 4.497 -4.497 4.497m0 -8.494c-2.204 0 -3.997 1.793 -3.997 3.997 0 2.204 1.793 3.997 3.997 3.997s3.997 -1.793 3.997 -3.997 -1.793 -3.997 -3.997 -3.997" fill=""/><path d="M16.249 20.996c-2.48 0 -4.497 -2.017 -4.497 -4.497a0.25 0.25 0 0 1 0.25 -0.25 0.25 0.25 0 0 1 0.25 0.25c0 2.204 1.793 3.997 3.997 3.997s3.997 -1.793 3.997 -3.997c0 -0.138 0.112 -0.25 0.25 -0.25s0.25 0.112 0.25 0.25c0 2.48 -2.017 4.497 -4.497 4.497" fill=""/><path d="M12.002 16.749a0.25 0.25 0 0 1 -0.25 -0.25v-0.999a0.25 0.25 0 0 1 0.25 -0.25 0.25 0.25 0 0 1 0.25 0.25v0.999a0.25 0.25 0 0 1 -0.25 0.25m8.494 0a0.25 0.25 0 0 1 -0.25 -0.25v-0.999c0 -0.138 0.112 -0.25 0.25 -0.25s0.25 0.112 0.25 0.25v0.999a0.25 0.25 0 0 1 -0.25 0.25m-4.247 0.749c-1.102 0 -1.999 -0.896 -1.999 -1.999s0.896 -1.999 1.999 -1.999 1.999 0.896 1.999 1.999 -0.896 1.999 -1.999 1.999m0 -3.498c-0.827 0 -1.499 0.672 -1.499 1.499s0.672 1.499 1.499 1.499 1.499 -0.672 1.499 -1.499c0 -0.827 -0.672 -1.499 -1.499 -1.499" fill=""/><path d="M17.926 16.25a0.25 0.25 0 0 1 -0.24 -0.179c-0.187 -0.63 -0.778 -1.071 -1.437 -1.071s-1.25 0.44 -1.437 1.071c-0.039 0.132 -0.176 0.206 -0.311 0.168a0.25 0.25 0 0 1 -0.168 -0.311c0.25 -0.841 1.038 -1.428 1.916 -1.428s1.666 0.587 1.916 1.428a0.25 0.25 0 0 1 -0.168 0.311 0.259 0.259 0 0 1 -0.071 0.01m-2.928 -1.751a0.249 0.249 0 0 1 -0.177 -0.073l-1.751 -1.751c-0.098 -0.098 -0.098 -0.256 0 -0.353s0.256 -0.098 0.353 0l1.751 1.751a0.25 0.25 0 0 1 0 0.353 0.249 0.249 0 0 1 -0.177 0.073m1.252 5.498a0.25 0.25 0 0 1 -0.25 -0.25V17.249c0 -0.138 0.112 -0.25 0.25 -0.25s0.25 0.112 0.25 0.25v2.498a0.25 0.25 0 0 1 -0.25 0.25m5.746 5.496H10.503c-0.138 0 -0.25 -0.112 -0.25 -0.25s0.112 -0.25 0.25 -0.25h11.492c0.138 0 0.25 0.112 0.25 0.25s-0.112 0.25 -0.25 0.25m0 -1.499H10.503a0.25 0.25 0 0 1 -0.25 -0.25 0.25 0.25 0 0 1 0.25 -0.25h11.492a0.25 0.25 0 0 1 0.25 0.25 0.25 0.25 0 0 1 -0.25 0.25M16.249 26.992h-5.746a0.25 0.25 0 0 1 -0.25 -0.25 0.25 0.25 0 0 1 0.25 -0.25h5.746a0.25 0.25 0 0 1 0.25 0.25 0.25 0.25 0 0 1 -0.25 0.25M3.009 31.989a0.25 0.25 0 0 1 -0.25 -0.25V25.243a0.25 0.25 0 0 1 0.25 -0.25 0.25 0.25 0 0 1 0.25 0.25v6.495a0.25 0.25 0 0 1 -0.25 0.25M27.491 23.994H23.494a0.25 0.25 0 0 1 -0.25 -0.25 0.25 0.25 0 0 1 0.25 -0.25H27.491a0.25 0.25 0 0 1 0.25 0.25 0.25 0.25 0 0 1 -0.25 0.25" fill=""/><path d="M27.491 23.994a0.25 0.25 0 0 1 -0.25 -0.25 0.25 0.25 0 0 1 0.25 -0.25c0.689 0 1.249 -0.56 1.249 -1.249a0.25 0.25 0 0 1 0.25 -0.25 0.25 0.25 0 0 1 0.25 0.25c0 0.964 -0.785 1.749 -1.749 1.749" fill=""/><path d="M28.991 22.495a0.25 0.25 0 0 1 -0.25 -0.25c0 -0.689 -0.56 -1.249 -1.249 -1.249a0.25 0.25 0 0 1 -0.25 -0.25 0.25 0.25 0 0 1 0.25 -0.25c0.964 0 1.749 0.785 1.749 1.749a0.25 0.25 0 0 1 -0.25 0.25M27.491 16a0.25 0.25 0 0 1 -0.25 -0.25 0.25 0.25 0 0 1 0.25 -0.25c0.689 0 1.249 -0.56 1.249 -1.249a0.25 0.25 0 0 1 0.25 -0.25 0.25 0.25 0 0 1 0.25 0.25c0 0.964 -0.785 1.749 -1.749 1.749" fill=""/><path d="M28.991 14.501a0.25 0.25 0 0 1 -0.25 -0.25c0 -0.689 -0.56 -1.249 -1.249 -1.249a0.25 0.25 0 0 1 -0.25 -0.25 0.25 0.25 0 0 1 0.25 -0.25c0.964 0 1.749 0.785 1.749 1.749a0.25 0.25 0 0 1 -0.25 0.25M10.504 16H5.008a0.25 0.25 0 0 1 -0.25 -0.25 0.25 0.25 0 0 1 0.25 -0.25h5.496A0.25 0.25 0 1 1 10.504 16m16.987 0H21.995a0.25 0.25 0 0 1 -0.25 -0.25 0.25 0.25 0 0 1 0.25 -0.25H27.491a0.25 0.25 0 0 1 0.25 0.25A0.25 0.25 0 0 1 27.491 16" fill=""/><path d="M3.509 17.499a0.25 0.25 0 0 1 -0.25 -0.25c0 -0.964 0.785 -1.749 1.749 -1.749a0.25 0.25 0 0 1 0.25 0.25 0.25 0.25 0 0 1 -0.25 0.25c-0.689 0 -1.249 0.56 -1.249 1.249a0.25 0.25 0 0 1 -0.25 0.25m16.488 -13.49a0.25 0.25 0 0 1 -0.25 -0.25c0 -0.689 -0.56 -1.249 -1.249 -1.249a0.25 0.25 0 0 1 -0.25 -0.25 0.25 0.25 0 0 1 0.25 -0.25c0.964 0 1.749 0.785 1.749 1.749a0.25 0.25 0 0 1 -0.25 0.25" fill=""/><path d="M5.007 18.998c-0.964 0 -1.749 -0.785 -1.749 -1.749 0 -0.138 0.112 -0.25 0.25 -0.25s0.25 0.112 0.25 0.25c0 0.689 0.56 1.249 1.249 1.249 0.138 0 0.25 0.112 0.25 0.25s-0.112 0.25 -0.25 0.25M3.009 25.493a0.25 0.25 0 0 1 -0.25 -0.25c0 -0.964 0.785 -1.749 1.749 -1.749a0.25 0.25 0 0 1 0.25 0.25 0.25 0.25 0 0 1 -0.25 0.25c-0.689 0 -1.249 0.56 -1.249 1.249a0.25 0.25 0 0 1 -0.25 0.25m4.497 -10.492a0.25 0.25 0 0 1 -0.25 -0.25V8.255a0.25 0.25 0 0 1 0.25 -0.25 0.25 0.25 0 0 1 0.25 0.25v6.495a0.25 0.25 0 0 1 -0.25 0.25m0 7.994a0.25 0.25 0 0 1 -0.25 -0.25V16.749a0.25 0.25 0 0 1 0.25 -0.25 0.25 0.25 0 0 1 0.25 0.25v5.996a0.25 0.25 0 0 1 -0.25 0.25m0 7.495a0.25 0.25 0 0 1 -0.25 -0.25v-5.33a0.25 0.25 0 0 1 0.25 -0.25 0.25 0.25 0 0 1 0.25 0.25v5.33a0.25 0.25 0 0 1 -0.25 0.25m17.488 -2.498a0.25 0.25 0 0 1 -0.25 -0.25V24.744a0.25 0.25 0 0 1 0.25 -0.25 0.25 0.25 0 0 1 0.25 0.25v2.998a0.25 0.25 0 0 1 -0.25 0.25" fill=""/><path d="M24.993 22.995a0.25 0.25 0 0 1 -0.25 -0.25V16.749a0.25 0.25 0 0 1 0.25 -0.25 0.25 0.25 0 0 1 0.25 0.25v5.996a0.25 0.25 0 0 1 -0.25 0.25" fill=""/><path d="M24.993 14.501a0.25 0.25 0 0 1 -0.25 -0.25V8.255a0.25 0.25 0 0 1 0.25 -0.25 0.25 0.25 0 0 1 0.25 0.25V14.251a0.25 0.25 0 0 1 -0.25 0.25" fill=""/><path d="M22.495 30.49a0.249 0.249 0 0 1 -0.177 -0.073 0.25 0.25 0 0 1 0 -0.353l2.498 -2.498a0.25 0.25 0 0 1 0.353 0 0.25 0.25 0 0 1 0 0.353l-2.498 2.498a0.249 0.249 0 0 1 -0.177 0.073" fill=""/><path d="M22.495 30.49H7.506a0.25 0.25 0 0 1 -0.25 -0.25 0.25 0.25 0 0 1 0.25 -0.25h14.989a0.25 0.25 0 0 1 0.25 0.25 0.25 0.25 0 0 1 -0.25 0.25" fill=""/><path d="M26.492 14.501a0.25 0.25 0 0 1 -0.25 -0.25V6.757c0 -0.138 0.112 -0.25 0.25 -0.25s0.25 0.112 0.25 0.25v7.495a0.25 0.25 0 0 1 -0.25 0.25" fill=""/><path d="M26.492 22.995a0.25 0.25 0 0 1 -0.25 -0.25V16.749c0 -0.138 0.112 -0.25 0.25 -0.25s0.25 0.112 0.25 0.25v5.996a0.25 0.25 0 0 1 -0.25 0.25" fill=""/><path d="M26.492 31.989a0.25 0.25 0 0 1 -0.25 -0.25V24.744c0 -0.138 0.112 -0.25 0.25 -0.25s0.25 0.112 0.25 0.25v6.995a0.25 0.25 0 0 1 -0.25 0.25" fill=""/><path d="M26.492 31.989H6.007c-0.138 0 -0.25 -0.112 -0.25 -0.25s0.112 -0.25 0.25 -0.25h20.485c0.138 0 0.25 0.112 0.25 0.25s-0.112 0.25 -0.25 0.25" fill=""/><path d="M6.007 31.989a0.25 0.25 0 0 1 -0.25 -0.25V24.744a0.25 0.25 0 0 1 0.25 -0.25 0.25 0.25 0 0 1 0.25 0.25v6.995a0.25 0.25 0 0 1 -0.25 0.25" fill=""/><path d="M6.007 22.995a0.25 0.25 0 0 1 -0.25 -0.25V16.749a0.25 0.25 0 0 1 0.25 -0.25 0.25 0.25 0 0 1 0.25 0.25v5.996a0.25 0.25 0 0 1 -0.25 0.25" fill=""/><path d="M6.007 14.998a0.25 0.25 0 0 1 -0.25 -0.25V6.757a0.25 0.25 0 0 1 0.25 -0.25 0.25 0.25 0 0 1 0.25 0.25v7.992a0.25 0.25 0 0 1 -0.25 0.25" fill=""/><path d="M26.492 7.006H6.007a0.25 0.25 0 0 1 -0.25 -0.25 0.25 0.25 0 0 1 0.25 -0.25h20.485a0.25 0.25 0 0 1 0.25 0.25 0.25 0.25 0 0 1 -0.25 0.25" fill=""/><path d="M19.998 6.007a0.25 0.25 0 0 1 -0.25 -0.25V3.759c0 -0.138 0.112 -0.25 0.25 -0.25s0.25 0.112 0.25 0.25v1.999a0.25 0.25 0 0 1 -0.25 0.25" fill=""/></svg>