<?xml version="1.0" ?><svg xmlns="http://www.w3.org/2000/svg" xmlns:xlink="http://www.w3.org/1999/xlink" version="1.1" viewBox="0 0 512 512" style="enable-background:new 0 0 512 512;" xml:space="preserve"><g id="_x34_7_x2C__bass_drum_x2C__music_and_multimedia_x2C__music_instrument_x2C__percussion_x2C__orchestra_x2C__music"><g><g><path style="fill:#DC5461;" d="M457.082,459.912l-43.2-83.51c-2.537-4.906-8.573-6.822-13.477-4.287     c-4.905,2.537-6.825,8.571-4.287,13.477l43.199,83.509c3.799,7.345,0.912,16.414-6.43,20.214     c-7.363,3.809-16.406,0.938-20.216-6.432l-39.24-75.851c-2.538-4.907-8.574-6.822-13.477-4.287     c-4.905,2.538-6.825,8.571-4.287,13.477l39.238,75.847c8.879,17.186,29.983,23.898,47.171,15.01     C459.214,498.208,465.945,477.05,457.082,459.912z"/><path style="fill:#DC5461;" d="M152.045,402.745c-4.902-2.537-10.938-0.62-13.477,4.287l-39.242,75.854     c-3.813,7.377-12.863,10.227-20.21,6.43c-7.346-3.802-10.232-12.871-6.435-20.215l43.2-83.51     c2.538-4.905,0.618-10.939-4.287-13.477c-4.902-2.535-10.939-0.619-13.477,4.287l-43.201,83.511     c-8.862,17.138-2.131,38.296,15.01,47.167c17.18,8.884,38.287,2.176,47.165-15.008l39.24-75.851     C158.87,411.316,156.95,405.283,152.045,402.745z"/><path style="fill:#DC5461;" d="M256,130.996c-52.383,0-95,42.617-95,95s42.617,95,95,95s95-42.617,95-95     S308.383,130.996,256,130.996z M256,300.996c-41.355,0-75-33.645-75-75s33.645-75,75-75s75,33.645,75,75     S297.355,300.996,256,300.996z"/></g><g><path style="fill:#283954;" d="M481,225.996c0-124.349-100.632-225-225-225c-124.349,0-225,100.632-225,225     c0,99.746,65.425,187.113,160.174,215.514c-2.617,37.976,27.638,69.486,64.826,69.486c37.197,0,67.446-31.525,64.826-69.486     C415.578,413.107,481,325.741,481,225.996z M256,490.996c-24.646,0-44.717-19.917-44.987-44.5c28.386,5.757,59.29,6.221,89.975,0     C300.717,471.079,280.646,490.996,256,490.996z M271,430.429c-9.938,0.72-20.04,0.721-30-0.001v-54.432c0-8.271,6.729-15,15-15     s15,6.729,15,15V430.429z M291,428.014v-30.528c37.627-7.655,71.914-27.647,97.282-56.912     c54.033-62.333,58.062-156.02,5.052-223.051c-3.425-4.331-9.714-5.065-14.047-1.641c-4.332,3.426-5.066,9.715-1.641,14.047     C399.467,157.522,411,190.741,411,225.996c0,72.024-50.827,134.972-120,151.02v-1.02c0-19.299-15.701-35-35-35s-35,15.701-35,35     v1.026c-32.698-7.55-62.19-25.613-83.979-51.67c-3.545-4.239-9.852-4.801-14.086-1.258c-4.237,3.543-4.8,9.85-1.258,14.086     c25.588,30.603,60.601,51.443,99.322,59.309v30.525c-98.081-16.82-170-102.072-170-202.018c0-113.037,91.963-205,205-205     s205,91.963,205,205C461,325.906,389.106,411.2,291,428.014z"/><path style="fill:#283954;" d="M363.276,87.731C332.359,63.699,295.264,50.996,256,50.996c-96.495,0-175,78.505-175,175     c0,26.874,5.936,52.668,17.643,76.665c2.421,4.964,8.41,7.023,13.372,4.603c4.963-2.421,7.024-8.408,4.603-13.372     C106.255,272.65,101,249.806,101,225.996c0-85.468,69.533-155,155-155c34.777,0,67.628,11.247,95.003,32.525     c4.358,3.389,10.642,2.604,14.032-1.759C368.425,97.403,367.637,91.121,363.276,87.731z"/></g></g></g><g id="Layer_1"/></svg>