<svg enable-background="new 0 0 512 512" height="512px" id="Layer_1" version="1.1" viewBox="0 0 512 512" width="512px" xml:space="preserve" xmlns="http://www.w3.org/2000/svg" xmlns:xlink="http://www.w3.org/1999/xlink"><g><path d="M485.333,95.359h-34.555c0.793-2.525,1.223-5.212,1.223-8c0-0.747-0.039-1.485-0.099-2.217   C459.884,83.904,466,77.022,466,68.693c0-9.205-7.462-16.666-16.667-16.666H26.667C17.463,52.027,10,59.488,10,68.693   S17.463,85.36,26.667,85.36h77.416c-0.05,0.661-0.083,1.326-0.083,1.999c0,14.729,11.939,26.668,26.667,26.668h186.132   c0.99,8.26,8.011,14.666,16.536,14.666h151.998c9.205,0,16.667-7.462,16.667-16.667C502,102.822,494.538,95.359,485.333,95.359z" fill="#D7ECF4"/><path d="M58.333,230.026h1.017c-0.446,2.152-0.683,4.381-0.683,6.665v3.334c0,18.041,14.625,32.667,32.666,32.667   h89.337c-0.433,1.933-0.669,3.938-0.669,6.001v0.667c0,15.096,12.237,27.333,27.333,27.333h256.667   c15.096,0,27.333-12.237,27.333-27.333v-0.667c0-15.096-12.237-27.333-27.333-27.333H227.312c1.307-3.531,2.022-7.35,2.022-11.335   v-3.334c0-2.284-0.236-4.513-0.683-6.665h210.35c10.861,0,19.666-8.805,19.666-19.667c0-10.861-8.805-19.666-19.666-19.666H58.333   c-10.861,0-19.666,8.805-19.666,19.666C38.667,221.222,47.472,230.026,58.333,230.026z" fill="#D7ECF4"/><path d="M466.666,412.694h-48.624c0.838-3.419,1.292-6.989,1.292-10.667c0-7.24-1.733-14.071-4.791-20.119   c7.951-0.93,14.125-7.68,14.125-15.881c0-8.837-7.164-16-16-16H150c-8.836,0-16,7.163-16,16s7.164,16,16,16h62.063   c-3.021,6.019-4.729,12.808-4.729,20c0,3.678,0.453,7.248,1.291,10.667H66c-9.572,0-17.333,7.761-17.333,17.333   c0,9.573,7.761,17.334,17.333,17.334h400.666c9.573,0,17.334-7.761,17.334-17.334C484,420.455,476.239,412.694,466.666,412.694z" fill="#D7ECF4"/><g><line fill="none" stroke="#231F20" stroke-linecap="round" stroke-linejoin="round" stroke-miterlimit="10" stroke-width="3" x1="74.023" x2="74.023" y1="251.475" y2="297.475"/><polyline fill="none" points="    79.732,245.1 73.898,250.934 68.064,245.1   " stroke="#231F20" stroke-linecap="round" stroke-linejoin="round" stroke-miterlimit="10" stroke-width="3"/><polyline fill="none" points="    68.064,303.225 73.898,297.391 79.732,303.225   " stroke="#231F20" stroke-linecap="round" stroke-linejoin="round" stroke-miterlimit="10" stroke-width="3"/><line fill="none" stroke="#231F20" stroke-linecap="round" stroke-linejoin="round" stroke-miterlimit="10" stroke-width="3" x1="54.313" x2="94.15" y1="262.71" y2="285.71"/><polyline fill="none" points="    51.647,254.578 53.782,262.548 45.813,264.683   " stroke="#231F20" stroke-linecap="round" stroke-linejoin="round" stroke-miterlimit="10" stroke-width="3"/><polyline fill="none" points="    96.151,293.745 94.016,285.776 101.984,283.641   " stroke="#231F20" stroke-linecap="round" stroke-linejoin="round" stroke-miterlimit="10" stroke-width="3"/><line fill="none" stroke="#231F20" stroke-linecap="round" stroke-linejoin="round" stroke-miterlimit="10" stroke-width="3" x1="54.189" x2="94.025" y1="285.396" y2="262.396"/><polyline fill="none" points="    45.814,283.64 53.783,285.775 51.646,293.744   " stroke="#231F20" stroke-linecap="round" stroke-linejoin="round" stroke-miterlimit="10" stroke-width="3"/><polyline fill="none" points="    101.984,264.682 94.016,262.547 96.151,254.578   " stroke="#231F20" stroke-linecap="round" stroke-linejoin="round" stroke-miterlimit="10" stroke-width="3"/></g><g><line fill="none" stroke="#231F20" stroke-linecap="round" stroke-linejoin="round" stroke-miterlimit="10" stroke-width="1.6096" x1="102.896" x2="102.896" y1="394.46" y2="419.141"/><polyline fill="none" points="    105.959,391.04 102.83,394.17 99.699,391.04   " stroke="#231F20" stroke-linecap="round" stroke-linejoin="round" stroke-miterlimit="10" stroke-width="1.6096"/><polyline fill="none" points="    99.699,422.226 102.83,419.096 105.959,422.226   " stroke="#231F20" stroke-linecap="round" stroke-linejoin="round" stroke-miterlimit="10" stroke-width="1.6096"/><line fill="none" stroke="#231F20" stroke-linecap="round" stroke-linejoin="round" stroke-miterlimit="10" stroke-width="1.6096" x1="92.322" x2="113.695" y1="400.488" y2="412.828"/><polyline fill="none" points="    90.892,396.126 92.037,400.401 87.762,401.547   " stroke="#231F20" stroke-linecap="round" stroke-linejoin="round" stroke-miterlimit="10" stroke-width="1.6096"/><polyline fill="none" points="    114.769,417.14 113.623,412.864 117.898,411.719   " stroke="#231F20" stroke-linecap="round" stroke-linejoin="round" stroke-miterlimit="10" stroke-width="1.6096"/><line fill="none" stroke="#231F20" stroke-linecap="round" stroke-linejoin="round" stroke-miterlimit="10" stroke-width="1.6096" x1="92.256" x2="113.628" y1="412.661" y2="400.321"/><polyline fill="none" points="    87.762,411.718 92.037,412.864 90.891,417.14   " stroke="#231F20" stroke-linecap="round" stroke-linejoin="round" stroke-miterlimit="10" stroke-width="1.6096"/><polyline fill="none" points="    117.898,401.547 113.623,400.401 114.769,396.125   " stroke="#231F20" stroke-linecap="round" stroke-linejoin="round" stroke-miterlimit="10" stroke-width="1.6096"/></g><g><line fill="none" stroke="#231F20" stroke-linecap="round" stroke-linejoin="round" stroke-miterlimit="10" stroke-width="1.6096" x1="378.273" x2="378.273" y1="126.289" y2="150.97"/><polyline fill="none" points="    381.336,122.869 378.207,125.999 375.077,122.869   " stroke="#231F20" stroke-linecap="round" stroke-linejoin="round" stroke-miterlimit="10" stroke-width="1.6096"/><polyline fill="none" points="    375.077,154.055 378.207,150.925 381.336,154.055   " stroke="#231F20" stroke-linecap="round" stroke-linejoin="round" stroke-miterlimit="10" stroke-width="1.6096"/><line fill="none" stroke="#231F20" stroke-linecap="round" stroke-linejoin="round" stroke-miterlimit="10" stroke-width="1.6096" x1="367.699" x2="389.072" y1="132.317" y2="144.657"/><polyline fill="none" points="    366.27,127.955 367.414,132.23 363.139,133.376   " stroke="#231F20" stroke-linecap="round" stroke-linejoin="round" stroke-miterlimit="10" stroke-width="1.6096"/><polyline fill="none" points="    390.146,148.969 389,144.693 393.275,143.548   " stroke="#231F20" stroke-linecap="round" stroke-linejoin="round" stroke-miterlimit="10" stroke-width="1.6096"/><line fill="none" stroke="#231F20" stroke-linecap="round" stroke-linejoin="round" stroke-miterlimit="10" stroke-width="1.6096" x1="367.633" x2="389.006" y1="144.49" y2="132.15"/><polyline fill="none" points="    363.139,143.547 367.414,144.693 366.269,148.969   " stroke="#231F20" stroke-linecap="round" stroke-linejoin="round" stroke-miterlimit="10" stroke-width="1.6096"/><polyline fill="none" points="    393.275,133.376 389,132.23 390.146,127.954   " stroke="#231F20" stroke-linecap="round" stroke-linejoin="round" stroke-miterlimit="10" stroke-width="1.6096"/></g><g><line fill="none" stroke="#231F20" stroke-linecap="round" stroke-linejoin="round" stroke-miterlimit="10" stroke-width="3" x1="423.75" x2="423.75" y1="411.443" y2="457.443"/><rect fill="none" height="8.25" stroke="#231F20" stroke-linecap="round" stroke-linejoin="round" stroke-miterlimit="10" stroke-width="3" transform="matrix(0.7071 0.7071 -0.7071 0.7071 410.5035 -180.9063)" width="8.25" x="419.5" y="400.943"/><rect fill="none" height="8.25" stroke="#231F20" stroke-linecap="round" stroke-linejoin="round" stroke-miterlimit="10" stroke-width="3" transform="matrix(0.7071 0.7071 -0.7071 0.7071 451.6041 -163.8819)" width="8.25" x="419.5" y="459.068"/><line fill="none" stroke="#231F20" stroke-linecap="round" stroke-linejoin="round" stroke-miterlimit="10" stroke-width="3" x1="404.04" x2="443.877" y1="422.679" y2="445.679"/><rect fill="none" height="8.251" stroke="#231F20" stroke-linecap="round" stroke-linejoin="round" stroke-miterlimit="10" stroke-width="3" transform="matrix(0.9659 -0.2589 0.2589 0.9659 -95.0418 117.4558)" width="8.25" x="394.332" y="415.474"/><rect fill="none" height="8.251" stroke="#231F20" stroke-linecap="round" stroke-linejoin="round" stroke-miterlimit="10" stroke-width="3" transform="matrix(0.9659 -0.2589 0.2589 0.9659 -100.8591 131.4946)" width="8.249" x="444.669" y="444.537"/><line fill="none" stroke="#231F20" stroke-linecap="round" stroke-linejoin="round" stroke-miterlimit="10" stroke-width="3" x1="403.915" x2="443.752" y1="445.365" y2="422.366"/><rect fill="none" height="8.251" stroke="#231F20" stroke-linecap="round" stroke-linejoin="round" stroke-miterlimit="10" stroke-width="3" transform="matrix(0.2589 -0.9659 0.9659 0.2589 -138.0615 717.3866)" width="8.25" x="394.332" y="444.536"/><rect fill="none" height="8.251" stroke="#231F20" stroke-linecap="round" stroke-linejoin="round" stroke-miterlimit="10" stroke-width="3" transform="matrix(0.2588 -0.9659 0.9659 0.2588 -72.6569 744.5132)" width="8.249" x="444.67" y="415.474"/></g><g><line fill="none" stroke="#231F20" stroke-linecap="round" stroke-linejoin="round" stroke-miterlimit="10" stroke-width="1.4238" x1="36.114" x2="36.114" y1="31.823" y2="53.654"/><rect fill="none" height="3.917" stroke="#231F20" stroke-linecap="round" stroke-linejoin="round" stroke-miterlimit="10" stroke-width="1.4238" transform="matrix(0.7074 0.7069 -0.7069 0.7074 30.9067 -17.059)" width="3.915" x="34.098" y="26.839"/><rect fill="none" height="3.917" stroke="#231F20" stroke-linecap="round" stroke-linejoin="round" stroke-miterlimit="10" stroke-width="1.4238" transform="matrix(0.7074 0.7069 -0.7069 0.7074 50.4061 -8.9861)" width="3.915" x="34.098" y="54.424"/><line fill="none" stroke="#231F20" stroke-linecap="round" stroke-linejoin="round" stroke-miterlimit="10" stroke-width="1.4238" x1="26.761" x2="45.667" y1="37.155" y2="48.071"/><rect fill="none" height="3.916" stroke="#231F20" stroke-linecap="round" stroke-linejoin="round" stroke-miterlimit="10" stroke-width="1.4238" transform="matrix(0.9659 -0.2589 0.2589 0.9659 -8.4183 7.4582)" width="3.916" x="22.152" y="33.736"/><rect fill="none" height="3.916" stroke="#231F20" stroke-linecap="round" stroke-linejoin="round" stroke-miterlimit="10" stroke-width="1.4238" transform="matrix(0.9659 -0.2589 0.2589 0.9659 -11.1768 14.1167)" width="3.915" x="46.043" y="47.529"/><line fill="none" stroke="#231F20" stroke-linecap="round" stroke-linejoin="round" stroke-miterlimit="10" stroke-width="1.4238" x1="26.7" x2="45.606" y1="47.922" y2="37.007"/><rect fill="none" height="3.917" stroke="#231F20" stroke-linecap="round" stroke-linejoin="round" stroke-miterlimit="10" stroke-width="1.4238" transform="matrix(0.2589 -0.9659 0.9659 0.2589 -29.9313 59.9606)" width="3.915" x="22.153" y="47.528"/><rect fill="none" height="3.916" stroke="#231F20" stroke-linecap="round" stroke-linejoin="round" stroke-miterlimit="10" stroke-width="1.4238" transform="matrix(0.2587 -0.966 0.966 0.2587 1.104 72.8253)" width="3.915" x="46.043" y="33.736"/></g><polygon fill="#FFFFFF" points="   260.25,200.443 261.5,221.443 284.75,220.193 282.5,199.693  " stroke="#231F20" stroke-linecap="round" stroke-linejoin="round" stroke-miterlimit="10" stroke-width="6"/><path d="   M201.75,168.693c0,0,40,32.25,62.75,37s52.75-8.25,60.5-45.75s15.25-89.5-21.5-117.25C289.5,41.443,222.75,38.193,201.75,168.693z" fill="#FFFFFF" stroke="#231F20" stroke-linecap="round" stroke-linejoin="round" stroke-miterlimit="10" stroke-width="6"/><path d="M224,81.943c0,0,19.75,13.75,41,16.75   s52.462,2.694,77.25-42.75c1.5-2.75,4.5-5.75-2.75-8.25s-56-17.5-93.5-2.25L224,81.943z" fill="#CCCCCC" stroke="#231F20" stroke-miterlimit="10" stroke-width="6"/><path d="   M221.5,184.193c0,0-34.5,17-37.5-19s-2.5-59.5-20-71.5c-22,5-60.5,25.5-60.5,25.5s-12.5,32.5-27,40s-26,11.5-26,11.5   s17.5-25.5,21-46s-14.422-34.009,3-49c64.5-55.5,229.5-83,229-33c-32,15.5-57,22.5-69.5,58s-14.5,63-25.5,73.5   C221.5,184.193,221.5,184.193,221.5,184.193z" fill="#FFFFFF" stroke="#231F20" stroke-linecap="round" stroke-linejoin="round" stroke-miterlimit="10" stroke-width="6"/><path d="   M208.5,174.193c13,10,13,10,13,10s-34.5,17-37.5-19s-2.5-59.5-20-71.5c-0.471,0.106-24.849-19.455-25.333-19.334" fill="none" stroke="#231F20" stroke-linecap="round" stroke-linejoin="round" stroke-miterlimit="10" stroke-width="6"/><path d="   M162.567,94.035c-22.194,5.525-59.067,25.158-59.067,25.158s-13.705,6.717-14.166,7.833" fill="none" stroke="#231F20" stroke-linecap="round" stroke-linejoin="round" stroke-miterlimit="10" stroke-width="6"/><path d="   M332.75,95.443c8.5-0.75,12.75,9.75,0.75,12.75" fill="#FFFFFF" stroke="#231F20" stroke-linecap="round" stroke-linejoin="round" stroke-miterlimit="10" stroke-width="4"/><g><circle cx="257" cy="127.443" fill="#231F20" r="4"/><circle cx="318.75" cy="113.443" fill="#231F20" r="4"/></g><path d="   M288.25,143.443c8.5-0.75,12.75,9.75,0.75,12.75" fill="#FFFFFF" stroke="#231F20" stroke-linecap="round" stroke-linejoin="round" stroke-miterlimit="10" stroke-width="4"/><path d="   M286.25,174.443c3.5-1.25,6.75-4.5,10.5-0.75s-0.25,8-4.25,7.75S286.25,174.443,286.25,174.443z" fill="#FFFFFF" stroke="#231F20" stroke-linecap="round" stroke-linejoin="round" stroke-miterlimit="10" stroke-width="4"/><path d="M221.5,184.193c0,0-14.25,5.75-21.75,3   c-8.624-3.162,8.75-13,8.75-13L221.5,184.193z" fill="#CCCCCC" stroke="#231F20" stroke-miterlimit="10" stroke-width="6"/><path d="   M330.25,59.193c0,0-19.5,33.75-59.25,31.5" fill="none" stroke="#231F20" stroke-linecap="round" stroke-linejoin="round" stroke-miterlimit="10" stroke-width="3"/><path d="   M322.5,60.193c0,0-6,8.5-12.25,12.25" fill="none" stroke="#231F20" stroke-linecap="round" stroke-linejoin="round" stroke-miterlimit="10" stroke-width="3"/><path d="   M340,402.693l-10-11.75l-32,16.5l9.5,18.5C307.5,425.943,332.5,424.443,340,402.693z" fill="#FFFFFF" stroke="#231F20" stroke-linecap="round" stroke-linejoin="round" stroke-miterlimit="10" stroke-width="6"/><path d="   M246.75,412.693l-5.5,20.5c0,0-28,17.25-45-22.5l7.75-21.25L246.75,412.693z" fill="#FFFFFF" stroke="#231F20" stroke-linecap="round" stroke-linejoin="round" stroke-miterlimit="10" stroke-width="6"/><path d="   M311,235.694l59-6c0,0,1.75-12.501,3-13.501s21,21.5,25.25,33.5c-2.75,6.5-12.25,8.25-19,1.75c-9.5,6-38.75,17-59.75,19.25   C310.75,256.693,309,256.194,311,235.694z" fill="#FFFFFF" stroke="#231F20" stroke-linecap="round" stroke-linejoin="round" stroke-miterlimit="10" stroke-width="4"/><path d="M332.75,172.193c0,0-8.5,2.25-9.25,14   c15,10.75,47.5,31.5,58,44.25s15.5,28.5,16,31.25s13,4.75,23.25-7.25s9.5-26.25,1.75-26.25s-16.75-6.25-32.25-16.75   S332.75,172.193,332.75,172.193z" fill="#CCCCCC" stroke="#231F20" stroke-miterlimit="10" stroke-width="4"/><path d="   M313.75,220.443c0,0,19-2.75,25.25-22.25c9.25-5,5.25-20.75,5.25-20.75s15.5-7.5,14.25,7.25c9.25-2,12.25,3.75,11,8.5   c8.25,1,11.5,12.75-4.5,22c-6,15.25-17,42.75-48.5,43.75C316.5,240.443,313.75,220.443,313.75,220.443z" fill="#FFFFFF" stroke="#231F20" stroke-linecap="round" stroke-linejoin="round" stroke-miterlimit="10" stroke-width="4"/><path d="   M313.75,215.193c0,0-24.5,0-43,1.25s-50,4.25-52.5,43.25s-4.25,59.25-13.75,81.75s-13.75,37.25-14.75,41.5s4.75,7.75,12.75,13.5   s36.75,19.75,47.75,21.5s24.25-21,24.25-21s7,9,11.25,12.75s8.75,5.25,15.25,1.75s26.75-13,31.75-17.5s7.25-13.5,4-18.75   s-17.5-42.5-17.5-42.5s3.5-6.5,0.25-20.5s-6.75-39.5-6.75-39.5l11,2.75c0,0,2.5-11-3.25-17.5   C323.5,243.693,325.25,220.443,313.75,215.193z" fill="#FFFFFF" stroke="#231F20" stroke-linecap="round" stroke-linejoin="round" stroke-miterlimit="10" stroke-width="6"/><path d="M204.5,341.443   c-9.5,22.5-13.75,37.25-14.75,41.5s4.75,7.75,12.75,13.5s36.75,19.75,47.75,21.5s24.25-21,24.25-21s7,9,11.25,12.75   s8.75,5.25,15.25,1.75s26.75-13,31.75-17.5s7.25-13.5,4-18.75s-17.5-42.5-17.5-42.5S281.678,372.363,204.5,341.443z" fill="#CCCCCC" stroke="#231F20" stroke-miterlimit="10" stroke-width="6"/><path d="   M204.5,341.443c0,0,70,31,113-8" fill="none" stroke="#231F20" stroke-linecap="round" stroke-linejoin="round" stroke-miterlimit="10" stroke-width="6"/><path d="   M202.5,396.443c8,5.75,36.75,19.75,47.75,21.5s24.25-21,24.25-21l9.75-15.5" fill="none" stroke="#231F20" stroke-linecap="round" stroke-linejoin="round" stroke-miterlimit="10" stroke-width="6"/><path d="   M270.5,264.443c0,0,32.25,4,46.5,0c8.5-19,8.25-44-3.25-49.25c0,0-24.5,0-43,1.25" fill="none" stroke="#231F20" stroke-linecap="round" stroke-linejoin="round" stroke-miterlimit="10" stroke-width="6"/><path d="   M198,404.193c0,0,10.5,24,25.5,27.75s19-7.5,19-7.5s18.5,28.5,22.75,40.25s-3.25,36.75-23.25,29.5s-51-54.5-53.75-58.25   S184,410.443,198,404.193z" fill="#FFFFFF" stroke="#231F20" stroke-linecap="round" stroke-linejoin="round" stroke-miterlimit="10" stroke-width="6"/><path d="   M305,423.193c0,0-2.25,25.5,16.5,33.5c43-16.75,57.5-40,62.25-56.5s-7.088-39.93-33.5-16.5   C334.75,397.443,331.5,421.693,305,423.193z" fill="#FFFFFF" stroke="#231F20" stroke-linecap="round" stroke-linejoin="round" stroke-miterlimit="10" stroke-width="6"/><ellipse cx="382.063" cy="212.473" fill="#FFFFFF" rx="2.667" ry="1.334" stroke="#231F20" stroke-linecap="round" stroke-linejoin="round" stroke-miterlimit="10" stroke-width="2" transform="matrix(0.8304 0.5572 -0.5572 0.8304 183.1919 -176.8432)"/><ellipse cx="391.668" cy="219.024" fill="#FFFFFF" rx="2.666" ry="1.333" stroke="#231F20" stroke-linecap="round" stroke-linejoin="round" stroke-miterlimit="10" stroke-width="2" transform="matrix(0.8305 0.5571 -0.5571 0.8305 188.4106 -181.0532)"/><ellipse cx="401.274" cy="225.576" fill="#FFFFFF" rx="2.667" ry="1.334" stroke="#231F20" stroke-linecap="round" stroke-linejoin="round" stroke-miterlimit="10" stroke-width="2" transform="matrix(0.8304 0.5572 -0.5572 0.8304 193.751 -185.325)"/><path d="   M50.5,170.693c-8.5-4.5-19.417-6.496-19.75-0.5C30.25,179.193,50.5,170.693,50.5,170.693z" fill="none" stroke="#231F20" stroke-linecap="round" stroke-linejoin="round" stroke-miterlimit="10" stroke-width="3"/><path d="   M50.35,170.408c-5.683,7.76-9.236,18.273-3.351,19.471C55.832,191.675,50.35,170.408,50.35,170.408z" fill="none" stroke="#231F20" stroke-linecap="round" stroke-linejoin="round" stroke-miterlimit="10" stroke-width="3"/><path d="   M47.413,172.46c-7.938,2.327-15.267,7.783-10.899,11.901C43.069,190.541,47.413,172.46,47.413,172.46z" fill="none" stroke="#231F20" stroke-linecap="round" stroke-linejoin="round" stroke-miterlimit="10" stroke-width="3"/><path d="   M223.335,287.693c0,0,6.332-1.667,10.666-6" fill="none" stroke="#231F20" stroke-linecap="round" stroke-linejoin="round" stroke-miterlimit="10" stroke-width="3"/><path d="   M223.669,294.359c0,0,4.931-1.298,9.067-4.581" fill="none" stroke="#231F20" stroke-linecap="round" stroke-linejoin="round" stroke-miterlimit="10" stroke-width="3"/><path d="   M224.003,301.025c0,0,3.256-0.857,6.696-2.94" fill="none" stroke="#231F20" stroke-linecap="round" stroke-linejoin="round" stroke-miterlimit="10" stroke-width="3"/><path d="   M224.337,307.691c0,0,1.583-0.417,3.708-1.375" fill="none" stroke="#231F20" stroke-linecap="round" stroke-linejoin="round" stroke-miterlimit="10" stroke-width="3"/><path d="   M354.003,379.695c0,0-4.666,10.667,13.667,20" fill="none" stroke="#231F20" stroke-linecap="round" stroke-linejoin="round" stroke-miterlimit="10" stroke-width="3"/><path d="   M263.67,463.695c0,0-18.667-5.393-27,14.804" fill="none" stroke="#231F20" stroke-linecap="round" stroke-linejoin="round" stroke-miterlimit="10" stroke-width="3"/><path d="   M326.003,370.695c0,0,5.001,10.999,5.334,12.333" fill="none" stroke="#231F20" stroke-linecap="round" stroke-linejoin="round" stroke-miterlimit="10" stroke-width="3"/><path d="   M325.337,381.028c0,0,2.667,4.666,3,6" fill="none" stroke="#231F20" stroke-linecap="round" stroke-linejoin="round" stroke-miterlimit="10" stroke-width="3"/><path d="   M293.675,35.363c0,0-5.001-11.333-44.667-11.333" fill="none" stroke="#231F20" stroke-linecap="round" stroke-linejoin="round" stroke-miterlimit="10" stroke-width="3"/><path d="M146.954,92.547c-23.858,8.506-53.278,22.148-53.278,22.148s10.694-30.924,29-32.333   C140.01,81.028,149.343,91.695,146.954,92.547z" fill="#E5E5E5"/><path d="M167.01,86.695c33.333,5.667,51.71,31.092,51.333,34.667c-3.333,31.666-20.158,50.08-22.973,51.493   c-2.163-4.115-3.758-9.584-4.361-16.826C188.009,120.029,184.51,98.695,167.01,86.695z" fill="#E5E5E5"/></g></svg>