<svg version="1.1" id="Layer_1" xmlns="http://www.w3.org/2000/svg" xmlns:xlink="http://www.w3.org/1999/xlink" x="0px" y="0px" viewBox="0 0 25 25" style="enable-background:new 0 0 512.001 512.001;" xml:space="preserve" width="25" height="25"><g><g><path d="M22.409 15.748V7.296a2.028 2.028 0 0 0 0.974 -0.542c0.384 -0.384 0.596 -0.895 0.596 -1.439 0 -1.122 -0.913 -2.035 -2.035 -2.035h-1.842a0.41 0.41 0 0 0 0 0.82h1.842c0.67 0 1.216 0.545 1.216 1.216 0 0.325 -0.126 0.63 -0.356 0.859 -0.219 0.219 -0.51 0.345 -0.818 0.355q-0.006 0 -0.012 0.001 -0.015 0.001 -0.03 0.001H6.51c-0.67 0 -1.215 -0.545 -1.215 -1.215 0 -0.325 0.127 -0.63 0.356 -0.86a1.208 1.208 0 0 1 0.859 -0.356h12.226a0.41 0.41 0 0 0 0 -0.82H6.51c-0.544 0 -1.055 0.212 -1.439 0.596 -0.384 0.385 -0.596 0.896 -0.596 1.439 0 0.919 0.613 1.698 1.452 1.949L3.482 15.241c-0.643 -0.106 -1.3 0 -1.886 0.311 -0.708 0.376 -1.227 1.005 -1.462 1.771 -0.235 0.766 -0.158 1.578 0.218 2.286s1.005 1.227 1.771 1.462a2.988 2.988 0 0 0 0.877 0.132c1.284 0 2.475 -0.832 2.871 -2.122v0c0.444 -1.449 -0.268 -2.98 -1.606 -3.6l2.493 -8.131h4.469v8.398c-1.461 0.201 -2.591 1.457 -2.591 2.972 0 1.654 1.346 3 3 3 1.104 0 2.069 -0.599 2.591 -1.489 0.521 0.89 1.487 1.489 2.591 1.489 1.104 0 2.07 -0.6 2.591 -1.49 0.521 0.89 1.487 1.49 2.591 1.49 0.601 0 1.181 -0.177 1.678 -0.513a0.41 0.41 0 0 0 -0.459 -0.679c-0.36 0.244 -0.782 0.372 -1.219 0.372 -1.202 0 -2.181 -0.978 -2.181 -2.181 0 -1.203 0.978 -2.181 2.181 -2.181s2.181 0.979 2.181 2.181c0 0.356 -0.088 0.709 -0.253 1.021a0.41 0.41 0 0 0 0.724 0.385c0.228 -0.43 0.349 -0.916 0.349 -1.406 0 -1.516 -1.129 -2.772 -2.591 -2.972m-17.322 3.094c-0.353 1.15 -1.575 1.799 -2.724 1.446 -0.557 -0.171 -1.014 -0.548 -1.287 -1.063 -0.273 -0.515 -0.329 -1.105 -0.158 -1.662 0.171 -0.557 0.548 -1.014 1.063 -1.287 0.319 -0.169 0.668 -0.255 1.019 -0.255 0.215 0 0.431 0.032 0.643 0.097 1.149 0.352 1.798 1.574 1.446 2.724m8.658 -2.256a0.41 0.41 0 0 0 -0.576 0.583c0.418 0.413 0.648 0.964 0.648 1.552 0 1.202 -0.978 2.181 -2.181 2.181s-2.181 -0.978 -2.181 -2.181c0 -1.203 0.978 -2.181 2.181 -2.181 0.188 0 0.375 0.024 0.554 0.071a0.41 0.41 0 0 0 0.5 -0.293 0.41 0.41 0 0 0 -0.293 -0.5 2.979 2.979 0 0 0 -0.352 -0.069V7.35h4.362v8.398c-0.929 0.128 -1.724 0.682 -2.18 1.459a3.022 3.022 0 0 0 -0.483 -0.622m3.073 4.316c-1.202 0 -2.181 -0.978 -2.181 -2.181 0 -1.203 0.978 -2.181 2.181 -2.181 1.203 0 2.181 0.979 2.181 2.181 0 1.202 -0.979 2.181 -2.181 2.181m4.772 -5.153c-0.93 0.128 -1.725 0.683 -2.181 1.461 -0.456 -0.778 -1.251 -1.333 -2.181 -1.461V7.35h4.362v8.398z"/></g></g></svg>