<svg fill="#000000" height="25px" width="25px" version="1.1" id="Layer_1" xmlns="http://www.w3.org/2000/svg" xmlns:xlink="http://www.w3.org/1999/xlink" viewBox="0 0 16 16" enable-background="new 0 0 512 512" xml:space="preserve"><path d="M5.156 2.666v10.166c-0.303 -0.103 -0.641 -0.166 -1 -0.166 -1.288 0 -2.334 0.747 -2.334 1.666 0 0.922 1.044 1.666 2.334 1.666 1.288 0 2.334 -0.747 2.334 -1.666 0 -0.113 -0.016 -0.225 -0.047 -0.334h0.047V5.619L13.156 3.716v7.119c-0.303 -0.103 -0.641 -0.166 -1 -0.166 -1.288 0 -2.334 0.747 -2.334 1.666 0 0.922 1.044 1.666 2.334 1.666 1.288 0 2.334 -0.747 2.334 -1.666 0 -0.106 -0.016 -0.209 -0.044 -0.313l0.044 -0.022V0z"/></svg>