<?xml version="1.0" ?><svg xmlns="http://www.w3.org/2000/svg" xmlns:xlink="http://www.w3.org/1999/xlink" version="1.1" viewBox="0 0 512 512" style="enable-background:new 0 0 512 512;" xml:space="preserve"><g id="_x30_5_x2C__snare_drum_x2C__snare_x2C__percussion_x2C__drum_x2C__instrument_x2C__music"><g><path style="fill:#DC5461;" d="M127.784,133.653c-3.832-3.538-9.736-3.538-13.568,0l-95.03,87.75    c-4.058,3.747-4.31,10.073-0.563,14.131c3.745,4.057,10.072,4.31,14.131,0.563L121,154.611l88.246,81.485    c4.076,3.764,10.402,3.476,14.131-0.563c3.747-4.058,3.495-10.384-0.563-14.131L127.784,133.653z"/><path style="fill:#DC5461;" d="M151,268.55c5.522,0,10-4.478,10-10V241c0-22.056-17.944-40-40-40s-40,17.944-40,40v17.55    c0,5.522,4.478,10,10,10s10-4.478,10-10V241c0-11.028,8.972-20,20-20s20,8.972,20,20v17.55C141,264.072,145.478,268.55,151,268.55    z"/><path style="fill:#DC5461;" d="M492.814,221.403l-95.03-87.75c-3.832-3.538-9.736-3.538-13.568,0l-95.03,87.75    c-4.058,3.747-4.31,10.073-0.563,14.131c3.745,4.057,10.072,4.31,14.131,0.563L391,154.611l88.246,81.485    c4.076,3.764,10.402,3.476,14.131-0.563C497.124,231.476,496.872,225.15,492.814,221.403z"/><path style="fill:#DC5461;" d="M421,268.55c5.522,0,10-4.478,10-10V241c0-22.056-17.944-40-40-40s-40,17.944-40,40v17.55    c0,5.522,4.478,10,10,10s10-4.478,10-10V241c0-11.028,8.972-20,20-20s20,8.972,20,20v17.55C411,264.072,415.478,268.55,421,268.55    z"/><g><path style="fill:#283954;" d="M121,1c-15.156,0-29.911,1.706-43.854,5.069c-5.369,1.295-8.672,6.697-7.376,12.066     c1.294,5.368,6.69,8.67,12.065,7.376C94.245,22.517,107.422,21,121,21c54.206,0,100,25.187,100,55s-45.794,55-100,55     S21,105.813,21,76c0-13.481,9.442-26.59,26.588-36.913c4.731-2.849,6.258-8.994,3.409-13.725     c-2.849-4.731-8.992-6.258-13.726-3.409C13.882,36.035,1,55.23,1,76v120c0,21.042,13.187,40.422,37.131,54.571     C58.021,262.325,83.599,269.35,111,270.732V311c0,5.522,4.478,10,10,10s10-4.478,10-10v-40.268     c27.401-1.382,52.979-8.407,72.869-20.161C227.813,236.422,241,217.042,241,196V76C241,25.233,172.417,1,121,1z M221,196     c0,29.813-45.794,55-100,55S21,225.813,21,196v-78.099c47.359,44.287,153.001,43.949,200,0V196z"/><path style="fill:#283954;" d="M474.147,21.603c-4.75-2.823-10.884-1.258-13.704,3.489c-2.821,4.748-1.259,10.884,3.489,13.705     C481.387,49.167,491,62.38,491,76c0,29.813-45.794,55-100,55s-100-25.187-100-55s45.794-55,100-55     c13.337,0,26.316,1.471,38.578,4.372c5.368,1.272,10.762-2.055,12.033-7.429s-2.055-10.762-7.43-12.034     c-40.7-9.629-90.632-5.409-126.05,15.519C284.187,35.577,271,54.957,271,76v120c0,21.042,13.187,40.422,37.131,54.571     c19.891,11.754,45.468,18.779,72.869,20.161V311c0,5.522,4.478,10,10,10s10-4.478,10-10v-40.268     c27.401-1.382,52.979-8.407,72.869-20.161C497.813,236.422,511,217.042,511,196V76C511,55.04,497.912,35.722,474.147,21.603z      M491,196c0,29.813-45.794,55-100,55s-100-25.187-100-55v-78.099c47.341,44.27,152.977,43.973,200,0V196z"/><path style="fill:#283954;" d="M197.508,493.407L131,436.4V371c0-5.523-4.478-10-10-10s-10,4.477-10,10V436.4l-66.508,57.007     c-4.193,3.595-4.679,9.907-1.085,14.101c3.595,4.192,9.906,4.679,14.101,1.085L111,462.742V501c0,5.522,4.478,10,10,10     s10-4.478,10-10v-38.258l53.492,45.85c4.21,3.609,10.522,3.091,14.101-1.085C202.187,503.314,201.701,497.002,197.508,493.407z"/><path style="fill:#283954;" d="M467.508,493.407L401,436.4V371c0-5.523-4.478-10-10-10s-10,4.477-10,10V436.4l-66.508,57.007     c-4.193,3.595-4.679,9.907-1.085,14.101c3.594,4.192,9.906,4.679,14.101,1.085L381,462.742V501c0,5.522,4.478,10,10,10     s10-4.478,10-10v-38.258l53.492,45.85c4.21,3.609,10.522,3.091,14.101-1.085C472.187,503.314,471.701,497.002,467.508,493.407z"/></g><path style="fill:#DC5461;" d="M131,301h-20c-22.056,0-40,17.944-40,40c0,22.056,17.944,40,40,40h20c22.056,0,40-17.944,40-40    C171,318.944,153.056,301,131,301z M131,361h-20c-11.028,0-20-8.972-20-20c0-11.028,8.972-20,20-20h20c11.028,0,20,8.972,20,20    C151,352.028,142.028,361,131,361z"/><path style="fill:#DC5461;" d="M401,301h-20c-22.056,0-40,17.944-40,40c0,22.056,17.944,40,40,40h20c22.056,0,40-17.944,40-40    C441,318.944,423.056,301,401,301z M401,361h-20c-11.028,0-20-8.972-20-20c0-11.028,8.972-20,20-20h20c11.028,0,20,8.972,20,20    C421,352.028,412.028,361,401,361z"/></g></g><g id="Layer_1"/></svg>