<?xml version="1.0" ?><!DOCTYPE svg  PUBLIC '-//W3C//DTD SVG 1.1//EN'  'http://www.w3.org/Graphics/SVG/1.1/DTD/svg11.dtd'><svg enable-background="new 0 0 64 64" height="64px" id="Layer_1" version="1.1" viewBox="0 0 64 64" width="64px" xml:space="preserve" xmlns="http://www.w3.org/2000/svg" xmlns:xlink="http://www.w3.org/1999/xlink"><g id="Turntable_1_"><g><g><g><g><path d="M58,49.167V53.5c0,1.93-1.57,3.5-3.5,3.5h-45C7.57,57,6,55.43,6,53.5v-4.333H5V53.5       C5,55.981,7.019,58,9.5,58h45c2.481,0,4.5-2.019,4.5-4.5v-4.333H58z" /></g></g></g><g><g><g><path d="M54.5,54h-45C7.019,54,5,51.981,5,49.5v-39C5,8.019,7.019,6,9.5,6h45c2.481,0,4.5,2.019,4.5,4.5v39       C59,51.981,56.981,54,54.5,54z M9.5,7C7.57,7,6,8.57,6,10.5v39C6,51.43,7.57,53,9.5,53h45c1.93,0,3.5-1.57,3.5-3.5v-39       C58,8.57,56.43,7,54.5,7H9.5z" /></g></g></g><g><g><path d="M29,51.5C17.145,51.5,7.5,41.855,7.5,30S17.145,8.5,29,8.5S50.5,18.145,50.5,30S40.855,51.5,29,51.5z       M29,9.5C17.696,9.5,8.5,18.696,8.5,30S17.696,50.5,29,50.5S49.5,41.304,49.5,30S40.304,9.5,29,9.5z" /></g></g><g><g><path d="M48.5,30h-1c0-10.201-8.299-18.5-18.5-18.5v-1C39.752,10.5,48.5,19.248,48.5,30z" /></g></g><g><g><path d="M29,49.5C18.248,49.5,9.5,40.752,9.5,30h1c0,10.201,8.299,18.5,18.5,18.5V49.5z" /></g></g><g><g><path d="M46.5,30h-1c0-9.098-7.402-16.5-16.5-16.5v-1C38.649,12.5,46.5,20.351,46.5,30z" /></g></g><g><g><path d="M29,47.5c-9.649,0-17.5-7.851-17.5-17.5h1c0,9.098,7.402,16.5,16.5,16.5V47.5z" /></g></g><g><g><path d="M44.5,30h-1c0-7.995-6.505-14.5-14.5-14.5v-1C37.547,14.5,44.5,21.453,44.5,30z" /></g></g><g><g><path d="M29,45.5c-8.547,0-15.5-6.953-15.5-15.5h1c0,7.995,6.505,14.5,14.5,14.5V45.5z" /></g></g><g><g><path d="M42.5,30h-1c0-6.893-5.607-12.5-12.5-12.5v-1C36.444,16.5,42.5,22.557,42.5,30z" /></g></g><g><g><path d="M29,43.5c-7.443,0-13.5-6.056-13.5-13.5h1c0,6.893,5.607,12.5,12.5,12.5V43.5z" /></g></g><g><g><path d="M29,41.5c-6.342,0-11.5-5.159-11.5-11.5c0-6.342,5.158-11.5,11.5-11.5c6.341,0,11.5,5.158,11.5,11.5      C40.5,36.341,35.341,41.5,29,41.5z M29,19.5c-5.789,0-10.5,4.711-10.5,10.5c0,5.79,4.711,10.5,10.5,10.5      c5.79,0,10.5-4.71,10.5-10.5C39.5,24.211,34.79,19.5,29,19.5z" /></g></g><g><g><path d="M29,38.5c-4.688,0-8.5-3.813-8.5-8.5c0-4.688,3.813-8.5,8.5-8.5c4.687,0,8.5,3.813,8.5,8.5      C37.5,34.687,33.687,38.5,29,38.5z M29,22.5c-4.136,0-7.5,3.364-7.5,7.5s3.364,7.5,7.5,7.5s7.5-3.364,7.5-7.5      S33.136,22.5,29,22.5z" /></g></g><g><g><g><path d="M54.5,19h-2c-0.827,0-1.5-0.673-1.5-1.5v-7C51,9.673,51.673,9,52.5,9h2c0.827,0,1.5,0.673,1.5,1.5v7       C56,18.327,55.327,19,54.5,19z M52.5,10c-0.275,0-0.5,0.225-0.5,0.5v7c0,0.275,0.225,0.5,0.5,0.5h2c0.275,0,0.5-0.225,0.5-0.5       v-7c0-0.275-0.225-0.5-0.5-0.5H52.5z" /></g></g></g><g><g><path d="M54.046,19h-1l0.004,14.381c0,1.03-0.335,2.598-0.731,3.547l-2.108,4.999l0.925,0.351l2.105-5.057      c0.454-1.086,0.81-2.655,0.81-3.833L54.046,19z" /><g><g><path d="M47.692,50.98c-0.206,0-0.404-0.038-0.591-0.114c-0.75-0.307-1.165-1.158-0.945-1.938l1.927-6.789        c0.225-0.791,1.098-1.225,1.869-0.91l1.851,0.755c0.375,0.153,0.665,0.452,0.796,0.82c0.132,0.368,0.096,0.783-0.097,1.138        l-3.368,6.199C48.856,50.651,48.291,50.98,47.692,50.98z M49.408,42.12c-0.173,0-0.312,0.111-0.362,0.291L47.119,49.2        c-0.08,0.282,0.089,0.629,0.361,0.74c0.268,0.108,0.639-0.026,0.774-0.276l3.368-6.199c0.059-0.107,0.07-0.223,0.034-0.325        c-0.037-0.103-0.119-0.185-0.232-0.23l-1.851-0.755C49.519,42.132,49.462,42.12,49.408,42.12z" /></g></g></g><g><g><rect  height="1" transform="matrix(0.8945 0.447 -0.447 0.8945 25.8911 -18.6157)" width="2.036" x="51.375" y="45.057"/></g></g></g></g><g><g><path d="M10,13.5c-1.379,0-2.5-1.121-2.5-2.5S8.621,8.5,10,8.5s2.5,1.121,2.5,2.5S11.379,13.5,10,13.5z M10,9.5     c-0.827,0-1.5,0.673-1.5,1.5s0.673,1.5,1.5,1.5s1.5-0.673,1.5-1.5S10.827,9.5,10,9.5z" /></g></g><g><path d="M35.5,29.5h-1.293l0.646-0.646c0.195-0.195,0.195-0.512,0-0.707s-0.512-0.195-0.707,0L32.793,29.5h-1.864    c-0.047-0.182-0.119-0.352-0.212-0.51l1.318-1.318h1.915c0.276,0,0.5-0.225,0.5-0.5c0-0.277-0.224-0.5-0.5-0.5h-0.915l0.914-0.915    c0.195-0.195,0.195-0.512,0-0.707s-0.512-0.195-0.707,0l-0.914,0.913v-0.912c0-0.277-0.223-0.5-0.5-0.5    c-0.275,0-0.5,0.223-0.5,0.5v1.913l-1.318,1.319c-0.158-0.094-0.328-0.165-0.51-0.213v-1.863l1.354-1.354    c0.195-0.195,0.195-0.512,0-0.707s-0.512-0.195-0.707,0L29.5,24.793V23.5c0-0.276-0.224-0.5-0.5-0.5c-0.277,0-0.5,0.225-0.5,0.5    v1.293l-0.646-0.646c-0.195-0.195-0.512-0.195-0.707,0s-0.195,0.512,0,0.707l1.354,1.354v1.864    c-0.182,0.047-0.352,0.118-0.51,0.212l-1.318-1.318v-1.914c0-0.277-0.225-0.5-0.5-0.5c-0.277,0-0.5,0.223-0.5,0.5v0.914    l-0.914-0.914c-0.195-0.195-0.512-0.195-0.707,0s-0.195,0.512,0,0.707l0.914,0.914h-0.914c-0.277,0-0.5,0.223-0.5,0.5    c0,0.275,0.223,0.5,0.5,0.5h1.914l1.318,1.318c-0.093,0.158-0.165,0.328-0.213,0.51h-1.863l-1.354-1.354    c-0.195-0.195-0.512-0.195-0.707,0s-0.195,0.512,0,0.707l0.646,0.646H22.5c-0.276,0-0.5,0.225-0.5,0.5c0,0.276,0.225,0.5,0.5,0.5    h1.293l-0.646,0.646c-0.195,0.195-0.195,0.512,0,0.707C23.244,31.951,23.372,32,23.5,32s0.256-0.049,0.354-0.146l1.354-1.354    h1.863c0.048,0.182,0.12,0.352,0.213,0.51l-1.318,1.318h-1.914c-0.277,0-0.5,0.225-0.5,0.5c0,0.277,0.223,0.5,0.5,0.5h0.914    l-0.914,0.915c-0.195,0.195-0.195,0.512,0,0.707c0.098,0.098,0.225,0.146,0.354,0.146c0.127,0,0.256-0.049,0.354-0.146    l0.914-0.914v0.914c0,0.276,0.223,0.5,0.5,0.5c0.275,0,0.5-0.224,0.5-0.5v-1.915l1.318-1.318c0.158,0.093,0.328,0.165,0.51,0.213    v1.863l-1.354,1.354c-0.195,0.195-0.195,0.512,0,0.707s0.512,0.195,0.707,0l0.646-0.646V36.5c0,0.276,0.224,0.5,0.5,0.5    c0.277,0,0.5-0.224,0.5-0.5v-1.293l0.646,0.646C30.244,35.951,30.372,36,30.5,36s0.256-0.049,0.354-0.146    c0.195-0.195,0.195-0.512,0-0.707L29.5,33.793v-1.864c0.182-0.047,0.352-0.119,0.51-0.212l1.318,1.318v1.915    c0,0.276,0.225,0.5,0.5,0.5c0.277,0,0.5-0.224,0.5-0.5v-0.915l0.915,0.914c0.098,0.098,0.226,0.146,0.354,0.146    s0.256-0.049,0.354-0.146c0.195-0.195,0.195-0.512,0-0.707l-0.914-0.914h0.914c0.276,0,0.5-0.223,0.5-0.5    c0-0.275-0.224-0.5-0.5-0.5h-1.913l-1.32-1.319c0.094-0.157,0.165-0.327,0.213-0.509h1.863l1.354,1.354    C34.244,31.951,34.372,32,34.5,32s0.256-0.049,0.354-0.146c0.195-0.195,0.195-0.512,0-0.707L34.207,30.5H35.5    c0.276,0,0.5-0.225,0.5-0.5C36,29.723,35.776,29.5,35.5,29.5z M29,31c-0.551,0-1-0.449-1-1s0.449-1,1-1s1,0.449,1,1    S29.551,31,29,31z" /><g><path d="M10,51.5c-1.379,0-2.5-1.121-2.5-2.5s1.121-2.5,2.5-2.5s2.5,1.121,2.5,2.5S11.379,51.5,10,51.5z M10,47.5     c-0.827,0-1.5,0.673-1.5,1.5s0.673,1.5,1.5,1.5s1.5-0.673,1.5-1.5S10.827,47.5,10,47.5z" /></g></g></g></svg>