<svg width="200px" height="200px" viewBox="-4.5 0 82.668 82.668" xmlns="http://www.w3.org/2000/svg"><defs><style>.a{fill:#ffffff;}.b{fill:#79c6e0;}.c{fill:#957f6e;}.d{fill:#211715;}.e{fill:#3f88c9;}</style></defs><path class="a" d="M9.279 42.99c-0.416 -1.709 -1.904 -6.997 -2.434 -7.675 -0.363 -0.463 -0.792 -0.819 -1.589 -0.479 -0.683 0.291 -0.572 1.079 -0.443 1.731 0.142 0.717 0.988 4.103 1.481 5.862a1.35 1.35 0 0 0 -1.533 -0.35c-0.541 0.247 -0.75 0.709 -0.69 1.042l0.116 0.638a1.31 1.31 0 0 0 -1.267 0.006c-0.468 0.25 -0.939 0.921 -0.709 1.405l0.309 0.648 -0.097 -0.079c-0.594 -0.489 -1.625 -0.188 -1.794 0.464 -0.129 0.5 0.088 1.09 0.367 1.548q0.05 0.082 0.106 0.173l0.054 0.168c0.377 1.169 1.112 2.954 2.213 4.227 0.511 0.59 1.1 1.175 1.564 1.808 0.598 0.817 0.616 1.752 1.042 2.768a48 48 0 0 0 6.251 -2.645l-0.093 -0.43c-0.176 -0.814 -0.371 -1.871 -0.256 -2.561a17.5 17.5 0 0 1 0.777 -2.28 4.225 4.225 0 0 0 0.325 -1.907c-0.082 -0.741 -0.274 -1.802 -0.825 -2.575a1.5 1.5 0 0 0 -0.402 -0.38 0.375 0.375 0 0 0 -0.057 -0.034 2.075 2.075 0 0 0 -0.459 -0.206q-0.095 -0.03 -0.197 -0.054a1.75 1.75 0 0 0 -0.102 -0.022 0.75 0.75 0 0 0 -0.097 -0.02c-0.05 -0.011 -0.1 -0.018 -0.15 -0.025l-0.097 -0.013c-0.007 0 -0.016 -0.002 -0.025 -0.002a7.25 7.25 0 0 0 -1.139 -0.029l-0.062 -0.316a8.5 8.5 0 0 0 -0.091 -0.403"/><path class="a" d="M47.921 78.215a95.5 95.5 0 0 1 -0.407 -2.938h-0.058c-2.518 0 -11.556 0.196 -13.556 0.196l-0.287 -0.01c-0.169 1.347 -0.358 2.597 -0.55 3.783a23.5 23.5 0 0 1 -0.406 1.658l-0.3 1.038h16.398l-0.289 -1.121a22.5 22.5 0 0 1 -0.384 -1.575q-0.081 -0.507 -0.162 -1.03"/><path class="b" d="M35.87 75.452c-0.87 0.013 -1.564 0.021 -1.97 0.021l-0.289 0.006a78.5 78.5 0 0 0 0.612 -9.966c0 -5.446 -0.318 -10.796 -0.454 -13.128 -0.162 -2.802 -0.419 -5.325 -0.507 -7.912l0.575 0.13a28.75 28.75 0 0 0 6.562 0.943c2.092 0.005 5.07 -0.325 7.114 -1.139l0.034 -0.011c0.064 2.66 -0.011 5.325 -0.163 7.989 -0.137 2.333 -0.454 7.682 -0.454 13.128a79 79 0 0 0 0.585 9.762l-0.057 0.001c-2.009 0 -8.162 0.125 -11.587 0.175"/><path class="c" d="M52.26 41.694c3.379 1.303 6.12 -1.725 6.1 -4.268a13.275 13.275 0 0 0 -0.73 -4.255c-0.601 -1.871 -1.766 -5.674 -1.85 -12.467 0.167 -1.912 -0.006 -4.675 -0.082 -5.736 -0.262 -3.68 -1.907 -7.79 -4.275 -10.075a14.475 14.475 0 0 0 -5.111 -3.358C44.666 0.9 43.135 0.595 40.247 0.595c-4.735 0 -8.95 2.439 -10.82 4.23 -3.103 2.97 -5.071 8.396 -4.823 15.879 0 5.452 -0.414 9.385 -0.997 11.62a28 28 0 0 0 -0.748 5.631c-0.021 2.542 2.541 5.331 6.318 4.469Z"/><path class="a" d="M34.613 38.477a1.775 1.775 0 0 0 0.411 -0.541c0.317 -0.785 0.259 -1.851 0.262 -2.725A10.375 10.375 0 0 1 31.508 32.25a12.3 12.3 0 0 1 -2.342 -4.571l-0.462 -0.071a3.042 3.042 0 0 1 -1.416 -0.638 4.6 4.6 0 0 1 -1.188 -1.558 7.225 7.225 0 0 1 -0.737 -3.83 2.4 2.4 0 0 1 0.253 -0.97 1.705 1.705 0 0 1 1.226 -0.815 1.722 1.722 0 0 1 1.729 0.775c1.925 -3.329 8.889 -7.17 14.69 -8.416 0 0 0.218 -0.033 0.575 -0.083a4.313 4.313 0 0 1 3.719 1.279c2.155 2.258 3.468 5.016 4.234 7.535 0.427 -0.386 0.738 -0.667 0.738 -0.667a1.805 1.805 0 0 1 1.445 -0.423 1.705 1.705 0 0 1 1.227 0.815 2.4 2.4 0 0 1 0.253 0.97 7.225 7.225 0 0 1 -0.737 3.83 4.6 4.6 0 0 1 -1.188 1.558 3.042 3.042 0 0 1 -1.416 0.638l-0.242 0.038c-0.116 0.435 -0.246 0.8 -0.311 0.996 -0.423 1.15 -2.849 5.208 -5.866 6.516 0.004 0.882 -0.06 1.981 0.264 2.78 0.217 0.537 1.238 1.335 2.31 2.06 0 0 1.847 1.283 1.541 2.422 -0.332 1.237 -2.296 1.99 -2.296 1.99 -2.044 0.813 -5.021 1.144 -7.114 1.139a28.75 28.75 0 0 1 -6.562 -0.943s-2.373 -0.725 -2.667 -1.796c-0.472 -1.722 1.435 -2.863 1.435 -2.863a12.575 12.575 0 0 0 2.009 -1.466"/><path class="d" d="M52.952 20.642a1.185 1.185 0 0 1 1.681 0.188c0.214 0.301 0.226 0.732 0.24 1.087a6.375 6.375 0 0 1 -0.073 1.296c-0.266 1.581 -1.088 3.509 -2.848 3.816a0.605 0.605 0 0 0 -0.419 0.738 0.614 0.614 0 0 0 0.738 0.419c2.425 -0.422 3.584 -3.182 3.779 -5.371 0.093 -1.052 0.064 -2.362 -0.825 -3.088a2.421 2.421 0 0 0 -3.121 0.067 0.605 0.605 0 0 0 0 0.849 0.613 0.613 0 0 0 0.849 0Z"/><path class="d" d="M51.493 26.262a6 6 0 0 1 -0.281 1.5 17 17 0 0 1 -0.183 0.572c-0.021 0.063 -0.137 0.354 -0.06 0.182a12 12 0 0 1 -0.805 1.478 14.4 14.4 0 0 1 -3.188 3.685 6.075 6.075 0 0 1 -2.375 1.205c-0.752 0.173 -0.434 1.331 0.319 1.157 1.806 -0.417 3.322 -1.71 4.517 -3.072a15.55 15.55 0 0 0 2.53 -3.763 8 8 0 0 0 0.725 -2.945c0.026 -0.772 -1.174 -0.771 -1.2 0Z"/><path class="d" d="M28.712 19.793a2.421 2.421 0 0 0 -3.121 -0.067c-0.888 0.725 -0.919 2.036 -0.825 3.088 0.195 2.189 1.353 4.95 3.779 5.371a0.618 0.618 0 0 0 0.738 -0.419 0.605 0.605 0 0 0 -0.419 -0.738c-1.759 -0.306 -2.583 -2.235 -2.848 -3.816a6.4 6.4 0 0 1 -0.073 -1.296 2.033 2.033 0 0 1 0.236 -1.078 1.183 1.183 0 0 1 1.685 -0.197 0.616 0.616 0 0 0 0.849 0 0.605 0.605 0 0 0 0 -0.849"/><path class="d" d="M28.198 26.104c0.661 3.809 2.731 7.542 6.263 9.375a8.525 8.525 0 0 0 3.073 0.917 0.604 0.604 0 0 0 0.6 -0.6 0.614 0.614 0 0 0 -0.6 -0.6c-3.597 -0.375 -6.4 -3.61 -7.529 -6.85a16.25 16.25 0 0 1 -0.65 -2.562 0.605 0.605 0 0 0 -0.738 -0.419 0.614 0.614 0 0 0 -0.419 0.738Z"/><path class="d" d="M29.017 41.846c-1.603 0.353 -3.289 -0.004 -4.442 -1.214a4.075 4.075 0 0 1 -0.996 -1.753c-0.184 -0.684 -0.119 -1.44 -0.058 -2.199a28.75 28.75 0 0 1 0.381 -2.891c0.13 -0.708 0.322 -1.4 0.469 -2.104a37 37 0 0 0 0.614 -4.69 64 64 0 0 0 0.21 -6.579 30.925 30.925 0 0 1 0.42 -6.242c0.553 -3.091 1.69 -6.261 3.859 -8.547a13.45 13.45 0 0 1 3.737 -2.665 16.05 16.05 0 0 1 5.719 -1.706 20.5 20.5 0 0 1 3.324 0 13.5 13.5 0 0 1 2.43 0.378 13.3 13.3 0 0 1 4.811 2.359 13.15 13.15 0 0 1 3.316 3.672 17.225 17.225 0 0 1 2.072 5.644c0.309 1.675 0.347 3.428 0.363 5.128 0.009 0.998 -0.08 1.993 -0.055 2.99 0.027 1.113 0.085 2.225 0.181 3.334a38.35 38.35 0 0 0 1.568 8.227 19.25 19.25 0 0 1 0.658 2.5c0.15 0.869 0.265 1.885 0.074 2.7a4.245 4.245 0 0 1 -2.855 3.087 3.8 3.8 0 0 1 -2.4 -0.161 0.605 0.605 0 0 0 -0.738 0.419 0.613 0.613 0 0 0 0.419 0.738 4.923 4.923 0 0 0 5.173 -1.082 5.7 5.7 0 0 0 1.41 -2.187 6.213 6.213 0 0 0 0.225 -2.688c-0.142 -1.6 -0.662 -3.08 -1.099 -4.61a34.5 34.5 0 0 1 -0.885 -4.044 47 47 0 0 1 -0.53 -6.175c-0.027 -1.05 0.065 -2.096 0.053 -3.147 -0.011 -0.92 -0.05 -1.84 -0.108 -2.758a19.625 19.625 0 0 0 -1.204 -5.817c-0.725 -1.903 -1.739 -3.76 -3.195 -5.205A15.6 15.6 0 0 0 47.483 1.375 15 15 0 0 0 42.254 0.058a18.15 18.15 0 0 0 -6.792 0.698 17.875 17.875 0 0 0 -5.175 2.586c-2.627 1.926 -4.263 4.779 -5.197 7.86a26.75 26.75 0 0 0 -1.034 5.986c-0.076 1.153 -0.077 2.304 -0.054 3.458 0.025 1.213 -0.017 2.433 -0.063 3.645a52.5 52.5 0 0 1 -0.466 5.597c-0.229 1.545 -0.665 3.043 -0.894 4.588a28.5 28.5 0 0 0 -0.309 3.042 5.275 5.275 0 0 0 0.361 2.277 5.513 5.513 0 0 0 3.741 3.215 6.5 6.5 0 0 0 2.964 -0.008c0.754 -0.166 0.435 -1.323 -0.319 -1.157Z"/><path class="d" d="M43.102 11.575a31.65 31.65 0 0 0 -6.867 2.409 27.175 27.175 0 0 0 -5.844 3.657 11.5 11.5 0 0 0 -2.118 2.273c-0.437 0.639 0.603 1.24 1.036 0.606 0.996 -1.456 2.602 -2.648 4.119 -3.618a32.05 32.05 0 0 1 6.225 -3.065 28.625 28.625 0 0 1 3.767 -1.105c0.754 -0.164 0.435 -1.321 -0.319 -1.157Z"/><path class="d" d="M41.857 10.293c3.846 1.432 6.69 4.475 8.38 8.158a21 21 0 0 1 1.017 2.735c0.221 0.738 1.379 0.423 1.157 -0.319 -1.167 -3.903 -3.353 -7.536 -6.725 -9.909a15.425 15.425 0 0 0 -3.51 -1.821 0.605 0.605 0 0 0 -0.738 0.419 0.613 0.613 0 0 0 0.419 0.738Z"/><path class="d" d="M45.091 35.466a12.5 12.5 0 0 0 0.052 1.584 3.125 3.125 0 0 0 0.422 1.417c0.593 0.856 1.55 1.472 2.397 2.047a0.6 0.6 0 0 0 0.606 -1.036c-0.404 -0.274 -0.804 -0.553 -1.182 -0.863a7.25 7.25 0 0 1 -0.48 -0.425q-0.101 -0.098 -0.195 -0.2 -0.048 -0.052 -0.093 -0.107c-0.061 -0.073 0.066 0.108 -0.017 -0.022 -0.036 -0.058 -0.072 -0.113 -0.103 -0.173 -0.033 -0.065 0.033 0.097 0 -0.009 -0.018 -0.057 -0.038 -0.112 -0.054 -0.169a3.5 3.5 0 0 1 -0.113 -0.574 13.5 13.5 0 0 1 -0.04 -1.47c0.005 -0.772 -1.195 -0.773 -1.2 0Z"/><path class="d" d="M34.686 35.518a12.75 12.75 0 0 1 -0.041 1.439 3.5 3.5 0 0 1 -0.12 0.591c-0.017 0.056 -0.035 0.11 -0.055 0.165 0.013 -0.038 0.034 -0.058 0.004 -0.011 -0.021 0.033 -0.137 0.204 -0.053 0.098 -0.547 0.693 -1.378 1.164 -2.12 1.625a0.6 0.6 0 0 0 0.606 1.036c0.485 -0.301 0.963 -0.615 1.417 -0.962a5.15 5.15 0 0 0 1.069 -1.011 2.8 2.8 0 0 0 0.425 -1.303 12 12 0 0 0 0.069 -1.667c-0.005 -0.772 -1.205 -0.774 -1.2 0Z"/><path class="a" d="M24.359 69.897c-1.046 1.335 -2.455 3.106 -3.752 4.054a7.25 7.25 0 0 1 -6.268 1.15C11.5 74.355 9.883 71.85 8.702 69.163c-1.7 -3.868 -2.91 -8.023 -4.117 -11.885 2.42 -0.525 6.277 -2.291 8.697 -3.566 0.76 1.865 1.448 3.57 2.182 5.322 1.972 -4.902 2.192 -7.439 3.969 -12.078a6.3 6.3 0 0 1 1.31 -2.138c0.563 -0.603 1.435 -0.772 2.179 -1.131 2.415 -1.167 6.293 -2.211 8.645 -3.47l0.233 -0.125c0.552 -0.579 1.11 -1.123 1.65 -1.59 -0.531 4.984 0.037 9.012 0.319 13.882 0.137 2.333 0.454 7.682 0.454 13.128a81.125 81.125 0 0 1 -1.16 13.732 23.5 23.5 0 0 1 -0.406 1.658l-0.3 1.167H23.788c0.653 -4.829 1.417 -11.394 1.417 -12.435q0 -0.39 -0.017 -0.786c-0.235 0.289 -0.515 0.649 -0.828 1.048"/><path class="a" d="M57.632 43.347c-2.497 -0.996 -5.939 -2.043 -7.898 -3.092 0 0 -0.014 -0.007 -0.041 -0.023a22.15 22.15 0 0 0 -2.597 -2.173c0.586 4.758 0.558 9.543 0.285 14.327 -0.137 2.333 -0.454 7.682 -0.454 13.128a81.675 81.675 0 0 0 1.155 13.732c0.102 0.485 0.225 1.019 0.384 1.575l0.3 1.121h8.6c-0.639 -4.789 -1.423 -11.277 -1.423 -12.305l10.214 -11.15c-1.675 -4.377 -1.97 -6.887 -3.647 -11.264a6.3 6.3 0 0 0 -1.313 -2.143c-0.564 -0.605 -1.439 -0.774 -2.184 -1.133 -0.407 -0.197 -0.875 -0.397 -1.383 -0.6"/><path class="d" d="M33.676 45.181a29.5 29.5 0 0 0 5.625 0.925 23.2 23.2 0 0 0 5.435 -0.341 15.05 15.05 0 0 0 2.935 -0.78 0.618 0.618 0 0 0 0.419 -0.738 0.605 0.605 0 0 0 -0.738 -0.419 17.75 17.75 0 0 1 -5.125 1.047 22.575 22.575 0 0 1 -5.196 -0.223 29.5 29.5 0 0 1 -3.035 -0.628c-0.747 -0.198 -1.066 0.959 -0.319 1.157Z"/><path class="d" d="M31.264 39.7c-1.429 0.758 -2.973 1.284 -4.491 1.83 -0.809 0.291 -1.619 0.581 -2.419 0.895 -0.732 0.287 -1.435 0.643 -2.167 0.928 -0.831 0.323 -1.562 0.647 -2.141 1.353a8.325 8.325 0 0 0 -1.322 2.435c-0.626 1.671 -1.145 3.377 -1.636 5.091 -0.56 1.956 -1.145 3.898 -1.871 5.8a0.605 0.605 0 0 0 0.419 0.738A0.614 0.614 0 0 0 16.375 58.35c1.238 -3.243 1.998 -6.632 3.148 -9.903a11.5 11.5 0 0 1 1.055 -2.45A3.65 3.65 0 0 1 21.375 45.05a3.85 3.85 0 0 1 0.952 -0.471c0.706 -0.273 1.383 -0.611 2.085 -0.893 0.775 -0.311 1.56 -0.596 2.346 -0.878 1.725 -0.621 3.489 -1.209 5.112 -2.071 0.682 -0.362 0.077 -1.399 -0.606 -1.036Z"/><path class="d" d="M18.072 63.537c-1.488 -3.293 -2.847 -6.639 -4.21 -9.985a0.612 0.612 0 0 0 -0.881 -0.358q-2.108 1.109 -4.303 2.045a24.5 24.5 0 0 1 -4.25 1.461 0.605 0.605 0 0 0 -0.419 0.738c0.77 2.468 1.512 4.946 2.365 7.388 0.441 1.26 0.91 2.511 1.427 3.742a24 24 0 0 0 1.435 2.975c1.06 1.787 2.536 3.347 4.547 4.02a7.95 7.95 0 0 0 6.623 -0.752c2.031 -1.25 3.459 -3.328 4.912 -5.166a0.619 0.619 0 0 0 0 -0.849 0.604 0.604 0 0 0 -0.849 0c-1.238 1.567 -2.438 3.27 -4.013 4.523a6.74 6.74 0 0 1 -5.736 1.261c-1.873 -0.439 -3.255 -1.736 -4.258 -3.329 -1.198 -1.904 -1.982 -4.08 -2.735 -6.188 -0.936 -2.62 -1.733 -5.287 -2.562 -7.943l-0.419 0.738a25.75 25.75 0 0 0 4.446 -1.542q2.239 -0.95 4.395 -2.084l-0.881 -0.359c1.403 3.442 2.801 6.884 4.332 10.271a0.604 0.604 0 0 0 0.821 0.215 0.614 0.614 0 0 0 0.215 -0.821Z"/><path class="d" d="M9.95 43.236c-0.18 -0.904 -0.45 -1.796 -0.7 -2.683 -0.356 -1.267 -0.725 -2.532 -1.15 -3.778 -0.327 -0.959 -0.651 -2.154 -1.694 -2.565 -0.858 -0.339 -1.992 0.135 -2.227 1.055 -0.161 0.628 0.014 1.3 0.157 1.918 0.398 1.725 0.84 3.441 1.308 5.148 0.204 0.744 1.362 0.428 1.157 -0.319a151.25 151.25 0 0 1 -1.123 -4.371c-0.117 -0.484 -0.25 -0.971 -0.328 -1.463 -0.037 -0.234 -0.075 -0.56 0.031 -0.708a0.657 0.657 0 0 1 0.633 -0.131 0.95 0.95 0 0 1 0.261 0.225c0.029 0.032 0.136 0.175 0.063 0.068a0.75 0.75 0 0 1 0.048 0.072c0.065 0.12 0.125 0.241 0.181 0.367 0.042 0.094 -0.046 -0.117 0.011 0.025q0.025 0.062 0.05 0.125 0.063 0.16 0.121 0.32c0.085 0.23 0.165 0.462 0.243 0.695 0.39 1.157 0.734 2.33 1.066 3.505 0.262 0.929 0.547 1.865 0.736 2.813a0.6 0.6 0 1 0 1.157 -0.319Z"/><path class="d" d="M0.579 48.253a13.625 13.625 0 0 0 1.96 3.982c0.52 0.692 1.148 1.291 1.694 1.961 0.533 0.653 0.696 1.394 0.927 2.185 0.217 0.74 1.375 0.425 1.157 -0.319 -0.231 -0.788 -0.401 -1.607 -0.899 -2.281 -0.534 -0.724 -1.185 -1.343 -1.752 -2.037 -0.898 -1.099 -1.494 -2.469 -1.931 -3.81 -0.238 -0.731 -1.397 -0.418 -1.157 0.319"/><path class="d" d="M10.079 47.709a10 10 0 0 0 -0.287 -1.204 1.525 1.525 0 0 0 -0.639 -0.904 2.66 2.66 0 0 0 -1.106 -0.312c-0.095 -0.013 -0.191 -0.046 -0.288 -0.052s-0.063 -0.025 -0.013 0.008c0.107 0.07 -0.064 -0.1 -0.085 -0.155a0.405 0.405 0 0 1 -0.011 -0.283c0.009 -0.032 0.148 -0.312 0.085 -0.25 0.186 -0.18 0.728 -0.175 0.978 -0.197 0.35 -0.029 0.7 -0.052 1.05 -0.056a4.325 4.325 0 0 1 1.069 0.089 1.438 1.438 0 0 1 0.781 0.387 2.575 2.575 0 0 1 0.45 0.85 5.175 5.175 0 0 1 0.328 1.769c-0.023 0.992 -0.505 1.836 -0.817 2.772 -0.075 0.227 -0.15 0.454 -0.216 0.684 -0.019 0.067 -0.039 0.133 -0.052 0.2s-0.018 0.13 -0.027 0.196c0.025 -0.188 -0.017 0.122 -0.022 0.176 -0.075 0.848 0.121 1.73 0.298 2.555 0.162 0.754 1.319 0.435 1.157 -0.319a8.725 8.725 0 0 1 -0.234 -2.401c-0.005 0.092 -0.037 0.152 0.005 0.028 0.029 -0.085 0.05 -0.175 0.075 -0.261a24 24 0 0 1 0.264 -0.806c0.079 -0.23 0.16 -0.459 0.246 -0.686q0.029 -0.075 0.059 -0.15c0.059 -0.15 -0.052 0.106 0.007 -0.018 0.066 -0.139 0.134 -0.277 0.188 -0.421a4.4 4.4 0 0 0 0.25 -1.95 7.1 7.1 0 0 0 -0.6 -2.288A2.6 2.6 0 0 0 11.1 43.225a8.225 8.225 0 0 0 -2.497 -0.055 4.375 4.375 0 0 0 -1.206 0.225 1.45 1.45 0 0 0 -0.835 0.905c-0.337 0.843 0.055 1.948 1.011 2.125 0.265 0.05 0.801 0.017 0.993 0.234a1.6 1.6 0 0 1 0.177 0.593 6.5 6.5 0 0 1 0.179 0.779 0.604 0.604 0 0 0 0.738 0.419 0.616 0.616 0 0 0 0.419 -0.738Z"/><path class="d" d="M3.382 48.164c0.028 0.1 0.006 -0.129 0.003 0.009 -0.003 0.143 0.032 -0.077 -0.002 0.023 -0.013 0.039 -0.083 0.192 -0.013 0.065 -0.029 0.054 -0.055 0.11 -0.088 0.162 -0.016 0.025 -0.036 0.05 -0.051 0.077 0.004 -0.006 0.069 -0.075 0.023 -0.03 -0.037 0.037 -0.069 0.079 -0.107 0.116 -0.004 0.003 -0.052 0.057 -0.064 0.058 0.002 0 0.121 -0.076 0.022 -0.019q-0.025 0.015 -0.05 0.03c-0.111 0.073 0.027 -0.012 0.027 -0.008s-0.193 0.052 -0.1 0.03c0.082 -0.019 -0.017 0 -0.04 0.002s-0.05 0.002 -0.075 0.003c-0.03 0 -0.234 -0.018 -0.093 0.003a1.75 1.75 0 0 1 -0.202 -0.043c-0.033 -0.009 -0.065 -0.02 -0.098 -0.03 -0.009 -0.003 -0.089 -0.034 -0.023 -0.007 0.059 0.025 -0.084 -0.044 -0.107 -0.059 -0.028 -0.017 -0.054 -0.035 -0.081 -0.053 0.019 0.013 0.09 0.081 0.014 0.007 -0.047 -0.045 -0.094 -0.089 -0.138 -0.138s-0.079 -0.093 -0.119 -0.139c-0.06 -0.069 0.049 0.07 -0.005 -0.007a2.25 2.25 0 0 0 -0.05 -0.066 7.5 7.5 0 0 1 -0.244 -0.364 6.25 6.25 0 0 1 -0.395 -0.689c-0.007 -0.016 -0.04 -0.106 -0.007 -0.017q-0.015 -0.041 -0.03 -0.082a2.5 2.5 0 0 1 -0.059 -0.193c-0.009 -0.037 -0.016 -0.075 -0.025 -0.111 -0.006 -0.022 -0.017 -0.117 -0.005 -0.007 -0.008 -0.073 -0.004 -0.146 -0.009 -0.219 -0.002 -0.025 0.012 -0.119 -0.006 -0.002a1 1 0 0 1 0.016 -0.079 0.75 0.75 0 0 0 0.022 -0.081c0.007 -0.062 -0.013 0.058 -0.025 0.056 0 0 0.032 -0.058 0.036 -0.066 0.038 -0.081 0.007 0.046 -0.028 0.029 0.002 0 0.1 -0.103 0.106 -0.11 0.066 -0.067 -0.026 0.033 -0.029 0.021a0.5 0.5 0 0 1 0.067 -0.043c0.023 -0.014 0.048 -0.025 0.07 -0.039 0.091 -0.055 -0.079 0.017 -0.013 0.003 0.053 -0.011 0.105 -0.035 0.158 -0.048 0.027 -0.006 0.055 -0.009 0.082 -0.017 0.07 -0.019 -0.145 0.004 -0.014 0.004h0.168c0.098 0 -0.036 -0.004 -0.035 -0.006 0.006 -0.006 0.072 0.015 0.082 0.017 0.027 0.007 0.053 0.017 0.081 0.024 0.101 0.025 -0.055 -0.044 -0.007 -0.005 0.031 0.025 0.2 0.13 0.075 0.033a0.616 0.616 0 0 0 0.849 0c0.199 -0.216 0.264 -0.641 0 -0.85a1.85 1.85 0 0 0 -2.067 -0.175c-0.724 0.406 -0.9 1.224 -0.703 1.987a4 4 0 0 0 0.49 1.069 7.5 7.5 0 0 0 0.66 0.938 2.135 2.135 0 0 0 2.09 0.695c0.79 -0.184 1.45 -1.188 1.225 -1.984a0.6 0.6 0 0 0 -1.157 0.319Z"/><path class="d" d="M4.796 43.498c-0.683 -0.75 -1.899 -0.578 -2.591 0.056a1.91 1.91 0 0 0 -0.654 1.323c-0.001 0.481 0.299 0.929 0.534 1.331 0.375 0.64 0.825 1.255 1.254 1.862a4.1 4.1 0 0 0 0.644 0.781 1.962 1.962 0 0 0 1.32 0.417c1.2 -0.051 1.869 -1.225 1.566 -2.33 -0.204 -0.744 -1.362 -0.428 -1.157 0.319a1.125 1.125 0 0 1 0.041 0.193c0.003 0.036 0.002 0.073 0.002 0.109 0 0.008 -0.015 0.117 -0.002 0.044a0.515 0.515 0 0 1 -0.134 0.306c0.056 -0.075 -0.052 0.046 -0.071 0.066 -0.045 0.049 0.011 -0.003 0.021 -0.011q-0.03 0.022 -0.061 0.042a0.4 0.4 0 0 1 -0.273 0.063 0.9 0.9 0 0 1 -0.343 -0.06 0.45 0.45 0 0 0 -0.116 -0.054c-0.009 -0.002 -0.081 -0.047 0.008 0.01 0.083 0.054 -0.008 -0.009 -0.024 -0.025 -0.072 -0.075 -0.139 -0.15 -0.205 -0.229 -0.043 -0.05 0.003 0.006 0.01 0.014a9.922 9.922 0 0 1 -0.19 -0.26c-0.3 -0.425 -0.592 -0.855 -0.886 -1.282a10 10 0 0 1 -0.581 -0.96c-0.041 -0.075 -0.077 -0.154 -0.119 -0.229 -0.044 -0.08 -0.023 -0.014 -0.041 -0.095 0.015 0.065 0 -0.019 0 -0.017a0.625 0.625 0 0 1 0.056 -0.166 1.025 1.025 0 0 1 0.274 -0.337 0.738 0.738 0 0 1 0.298 -0.15 0.8 0.8 0 0 1 0.333 -0.022c-0.064 -0.012 0.06 0.018 0.072 0.022 0.098 0.033 -0.069 -0.027 0.026 0.007 0.1 0.036 0.051 0.015 0.138 0.11a0.6 0.6 0 1 0 0.849 -0.849Z"/><path class="d" d="M7.523 46.03a0.815 0.815 0 0 1 -0.054 0.43c0.032 -0.075 -0.086 0.129 -0.05 0.077a1 1 0 0 0 -0.106 0.108 0.563 0.563 0 0 1 -0.212 0.097c-0.103 0.033 -0.041 0.014 -0.007 0.009a0.5 0.5 0 0 1 -0.09 0.005 0.2 0.2 0 0 1 -0.089 -0.023 1.442 1.442 0 0 1 -0.525 -0.593c-0.234 -0.385 -0.475 -0.765 -0.719 -1.145 -0.404 -0.63 -0.834 -1.261 -1.009 -1.97l-0.007 -0.033c0.018 0.087 0.03 -0.069 0.002 0.006 -0.033 0.088 0.057 -0.163 0.007 -0.047a0.487 0.487 0 0 1 0.187 -0.236 0.698 0.698 0 0 1 0.747 -0.072 2.125 2.125 0 0 1 0.67 0.693c0.223 0.292 0.44 0.593 0.635 0.905 0.408 0.654 1.446 0.052 1.036 -0.606a13.5 13.5 0 0 0 -0.799 -1.117 2.9 2.9 0 0 0 -1.006 -0.944c-0.991 -0.462 -2.35 -0.032 -2.633 1.107 -0.119 0.479 0.069 0.964 0.26 1.397a10.375 10.375 0 0 0 0.775 1.369c0.295 0.463 0.582 0.931 0.877 1.395a2.4 2.4 0 0 0 1.133 1.033 1.63 1.63 0 0 0 1.557 -0.334 1.815 1.815 0 0 0 0.621 -1.512 0.613 0.613 0 0 0 -0.6 -0.6 0.606 0.606 0 0 0 -0.6 0.6Z"/><path class="d" d="M49.95 41.035c2.851 1.357 5.944 2.119 8.806 3.45 0.71 0.331 1.547 0.496 2.091 1.096a6.775 6.775 0 0 1 1.26 2.26c0.616 1.653 1.125 3.341 1.611 5.036 0.556 1.945 1.14 3.877 1.863 5.769a0.618 0.618 0 0 0 0.738 0.419 0.605 0.605 0 0 0 0.419 -0.738c-1.296 -3.393 -2.075 -6.947 -3.311 -10.36 -0.321 -0.886 -0.64 -1.784 -1.192 -2.558a3.857 3.857 0 0 0 -2.125 -1.658c-0.7 -0.277 -1.379 -0.6 -2.077 -0.885 -0.766 -0.313 -1.544 -0.597 -2.322 -0.878 -1.73 -0.625 -3.494 -1.198 -5.157 -1.99a0.617 0.617 0 0 0 -0.821 0.215 0.605 0.605 0 0 0 0.215 0.821Z"/><path class="d" d="M20.98 44.65c0.481 5.093 1.157 10.187 2.057 15.223 0.198 1.104 0.409 2.206 0.654 3.3a37.75 37.75 0 0 1 0.807 4.427 15.45 15.45 0 0 1 0.063 2.813c-0.073 0.9 -0.171 1.796 -0.269 2.692q-0.484 4.41 -1.081 8.807a0.621 0.621 0 0 0 0.419 0.738 0.604 0.604 0 0 0 0.738 -0.419q0.547 -4.048 1.01 -8.108c0.2 -1.761 0.489 -3.556 0.409 -5.333 -0.125 -2.766 -0.875 -5.425 -1.388 -8.13 -0.49 -2.579 -0.886 -5.176 -1.245 -7.777 -0.378 -2.737 -0.713 -5.482 -0.973 -8.233a0.617 0.617 0 0 0 -0.6 -0.6 0.604 0.604 0 0 0 -0.6 0.6Z"/><path class="d" d="M32.8 38.995c-0.278 3.031 -0.15 6.062 0.068 9.092 0.178 2.458 0.346 4.915 0.471 7.375 0.294 5.788 0.487 11.614 -0.043 17.393q-0.179 1.95 -0.455 3.892a30.125 30.125 0 0 1 -0.763 3.997c-0.21 0.745 0.947 1.062 1.157 0.319a28 28 0 0 0 0.709 -3.622c0.172 -1.177 0.325 -2.357 0.449 -3.54a80.5 80.5 0 0 0 0.43 -8.45c-0.002 -5.409 -0.269 -10.822 -0.67 -16.216 -0.254 -3.413 -0.466 -6.822 -0.153 -10.24a0.604 0.604 0 0 0 -0.6 -0.6 0.613 0.613 0 0 0 -0.6 0.6Z"/><path class="d" d="M31.76 62.047c-0.718 -2.119 -1.383 -4.255 -2.058 -6.388a299.75 299.75 0 0 0 -1.021 -3.18c-0.133 -0.404 -0.269 -0.808 -0.364 -1.223a2.75 2.75 0 0 1 -0.076 -0.542c-0.003 -0.093 -0.006 0.027 -0.009 0.041a1 1 0 0 1 0.025 -0.093 0.5 0.5 0 0 1 0.05 -0.127 9.625 9.625 0 0 1 1.788 -2.336 0.608 0.608 0 0 0 0 -0.849 15 15 0 0 1 -1.237 -1.308c-0.18 -0.215 -0.339 -0.447 -0.516 -0.664 -0.058 -0.071 -0.033 -0.133 -0.052 -0.053a0.95 0.95 0 0 1 0.16 -0.232c0.504 -0.713 1.039 -1.405 1.59 -2.082a30.25 30.25 0 0 1 4.175 -4.371 0.604 0.604 0 0 0 0 -0.849 0.614 0.614 0 0 0 -0.849 0 28.4 28.4 0 0 0 -3.61 3.687q-0.829 0.981 -1.604 2.005 -0.321 0.422 -0.631 0.853c-0.27 0.375 -0.528 0.767 -0.4 1.254 0.131 0.502 0.6 0.955 0.925 1.343a15 15 0 0 0 1.2 1.265v-0.849a12.7 12.7 0 0 0 -1.823 2.297 2.313 2.313 0 0 0 -0.381 1.03 4.475 4.475 0 0 0 0.266 1.439c0.652 2.175 1.385 4.33 2.072 6.494 0.399 1.254 0.802 2.507 1.225 3.753 0.247 0.728 1.406 0.415 1.157 -0.319Z"/><path class="d" d="M33.9 76.073c3.691 -0.002 7.383 -0.119 11.075 -0.172 0.827 -0.012 1.654 -0.025 2.482 -0.025 0.772 0 0.773 -1.2 0 -1.2 -3.781 0.002 -7.562 0.114 -11.342 0.172 -0.738 0.011 -1.475 0.025 -2.213 0.025 -0.772 0 -0.773 1.2 0 1.2Z"/><path class="d" d="M57.968 81.941q-0.531 -3.977 -0.998 -7.962c-0.203 -1.75 -0.49 -3.529 -0.4 -5.296 0.138 -2.717 0.898 -5.335 1.395 -7.997 0.479 -2.563 0.869 -5.143 1.223 -7.725 0.379 -2.764 0.72 -5.533 0.982 -8.31a0.604 0.604 0 0 0 -0.6 -0.6 0.613 0.613 0 0 0 -0.6 0.6c-0.475 5.016 -1.139 10.031 -2.029 14.991 -0.473 2.638 -1.206 5.235 -1.482 7.904a15.15 15.15 0 0 0 -0.07 2.825c0.075 0.908 0.177 1.814 0.279 2.719 0.333 2.954 0.706 5.904 1.1 8.851a0.62 0.62 0 0 0 0.6 0.6c0.291 0 0.643 -0.277 0.6 -0.6Z"/><path class="d" d="M48.642 39.753a26 26 0 0 1 3.148 3.595c0.241 0.332 0.479 0.666 0.716 1l0.405 0.573a2.25 2.25 0 0 0 0.215 0.307c0.02 0.02 0.084 0.172 0.078 0.044 0.005 0.117 -0.229 0.332 -0.297 0.42a13.25 13.25 0 0 1 -0.503 0.607 15.25 15.25 0 0 1 -1.017 1.051 0.609 0.609 0 0 0 0 0.849 17.25 17.25 0 0 1 1.514 1.663 2 2 0 0 1 0.348 0.611c0.007 0.025 0.023 -0.08 -0.008 0.035 -0.004 0.017 -0.003 0.032 -0.017 0.11q-0.043 0.244 -0.095 0.486c-0.35 1.607 -0.96 3.163 -1.448 4.732 -0.23 0.739 0.928 1.056 1.157 0.319 0.305 -0.982 0.614 -1.963 0.939 -2.939a16 16 0 0 0 0.576 -2.125 2.15 2.15 0 0 0 0.046 -0.962 2.725 2.725 0 0 0 -0.462 -0.871 18.75 18.75 0 0 0 -1.702 -1.905v0.848a15 15 0 0 0 1.164 -1.222c0.323 -0.381 0.765 -0.817 0.931 -1.3 0.189 -0.547 -0.113 -0.979 -0.416 -1.408 -0.288 -0.407 -0.575 -0.816 -0.866 -1.22a28.75 28.75 0 0 0 -3.558 -4.146c-0.56 -0.531 -1.411 0.316 -0.849 0.849Z"/><path class="d" d="M49.045 80.66a27.625 27.625 0 0 1 -0.691 -3.579q-0.242 -1.679 -0.417 -3.367a81.25 81.25 0 0 1 -0.409 -8.45c0.005 -2.986 0.1 -5.972 0.241 -8.955 0.115 -2.404 0.286 -4.804 0.357 -7.21a73.75 73.75 0 0 0 -0.404 -10.826 0.618 0.618 0 0 0 -0.6 -0.6 0.604 0.604 0 0 0 -0.6 0.6 71.625 71.625 0 0 1 0.43 9.711c-0.046 2.527 -0.219 5.047 -0.346 7.57 -0.292 5.79 -0.48 11.617 0.057 17.399 0.125 1.347 0.287 2.69 0.475 4.03a30 30 0 0 0 0.75 3.997c0.209 0.742 1.367 0.427 1.157 -0.319Z"/><path class="a" d="M43.408 63.475a7.85 7.85 0 0 0 -0.804 0.884 15.25 15.25 0 0 0 1.379 1.275l0.135 0.1c0.781 -1.109 1.811 -1.775 3.034 -2.264a14.15 14.15 0 0 1 5.71 -1.025c1.929 0.064 4.059 0.67 5.498 2.042 1.175 -1.349 3.37 -2.395 5.065 -2.818a15.3 15.3 0 0 1 5.125 -0.273 8.3 8.3 0 0 1 2.957 0.844l0.039 -0.038c0.3 -0.285 0.9 -0.884 1.409 -1.424 -1.843 -1.394 -2.877 -1.602 -5.05 -1.813 -1.654 -0.161 -3.534 -0.215 -5.15 0.189s-3.692 1.079 -4.841 2.357c-1.294 -0.912 -3.104 -1.429 -5.05 -1.493a14.15 14.15 0 0 0 -5.71 1.025 10.225 10.225 0 0 0 -2.345 1.25 16.25 16.25 0 0 0 -1.401 1.183"/><path class="e" d="M66.82 69.233c1.25 -1.113 5.196 -4.819 6.255 -5.878 -0.869 -0.9 -2.53 -1.774 -4.525 -1.96a15.3 15.3 0 0 0 -5.125 0.273c-1.694 0.423 -3.889 1.47 -5.065 2.818 -1.438 -1.373 -3.568 -1.978 -5.498 -2.042a14.15 14.15 0 0 0 -5.71 1.025c-1.475 0.589 -2.667 1.435 -3.484 3.003 1.131 0.989 5.322 4.21 6.498 5.144Z"/><path class="a" d="M61.325 66.904q-0.102 -0.083 -0.207 -0.163c-0.886 -0.685 -1.53 -0.792 -2.44 -0.283l-0.489 0.425c-0.373 -0.395 -0.689 -0.723 -0.824 -0.84a1.522 1.522 0 0 0 -1.46 -0.328c-0.575 0.214 -0.817 0.529 -0.817 1.011l-0.055 0.41c-0.305 -0.323 -0.58 -0.602 -0.79 -0.789 -0.178 -0.159 -1.043 -0.586 -1.619 -0.153 -0.508 0.382 -0.587 0.892 -0.292 1.341a1.75 1.75 0 0 1 0.085 0.161l-0.129 -0.067a1.311 1.311 0 0 0 -1.854 0.668 1.883 1.883 0 0 0 0.148 1.231c0.373 0.722 2.004 2.531 2.884 3.461 2.016 1.425 5.234 0.433 7.811 -0.166a3.4 3.4 0 0 0 1.021 -0.44c0.964 -0.669 1.46 -1.491 2.248 -2.361a6.125 6.125 0 0 0 0.884 -1.072c0.257 -0.5 0.468 -1.046 0.325 -1.59a1.2 1.2 0 0 0 -0.45 -0.715c-0.384 -0.253 -0.896 -0.132 -1.321 0.042a6.575 6.575 0 0 0 -1.75 1.059 8.15 8.15 0 0 0 -0.907 -0.842"/><path class="d" d="M61.995 71.865c-0.548 0.377 -1.248 0.466 -1.881 0.619 -0.747 0.18 -1.495 0.356 -2.253 0.483 -1.296 0.217 -2.768 0.321 -3.935 -0.39 -0.661 -0.403 -1.265 0.635 -0.606 1.036 1.4 0.852 3.098 0.786 4.659 0.544 0.81 -0.125 1.609 -0.313 2.405 -0.504 0.75 -0.181 1.567 -0.305 2.217 -0.752a0.615 0.615 0 0 0 0.215 -0.821 0.605 0.605 0 0 0 -0.821 -0.215"/><path class="d" d="M63.127 67.9a7.675 7.675 0 0 0 -2.14 -1.975 2.518 2.518 0 0 0 -1.264 -0.383 2.825 2.825 0 0 0 -1.348 0.4 0.6 0.6 0 1 0 0.606 1.036c0.069 -0.038 0.199 -0.105 0.229 -0.118 -0.034 0.015 0.062 -0.025 0.072 -0.028q0.056 -0.019 0.113 -0.037a1.625 1.625 0 0 1 0.247 -0.056c-0.118 0.016 0.068 0.003 0.107 0.004 0.015 0 0.16 0.01 0.078 0.002 -0.072 -0.007 0.038 0.008 0.051 0.011a1.75 1.75 0 0 1 0.211 0.06c0.033 0.012 0.118 0.05 0.044 0.016a2.75 2.75 0 0 1 0.359 0.201 6.5 6.5 0 0 1 0.85 0.677 6.75 6.75 0 0 1 0.748 0.798 0.619 0.619 0 0 0 0.821 0.215 0.604 0.604 0 0 0 0.215 -0.821Z"/><path class="d" d="M60.525 68.488c-0.617 -0.581 -1.17 -1.239 -1.75 -1.857 -0.287 -0.306 -0.573 -0.617 -0.875 -0.909a2.235 2.235 0 0 0 -1.921 -0.644 1.721 1.721 0 0 0 -1.491 1.648c-0.017 0.772 1.183 0.772 1.2 0q0 -0.061 0.005 -0.122 -0.013 0.095 0.008 -0.01 0.034 -0.1 -0.004 -0.011a0.75 0.75 0 0 1 0.053 -0.094c-0.059 0.092 0.068 -0.067 0.096 -0.087 -0.06 0.046 0.13 -0.069 0.153 -0.08a0.792 0.792 0 0 1 0.737 0.019c0.367 0.175 0.656 0.573 0.93 0.862 0.669 0.707 1.3 1.466 2.01 2.133 0.562 0.529 1.412 -0.318 0.849 -0.849Z"/><path class="d" d="M51.621 71.608c-2.048 -1.62 -4.236 -3.063 -6.329 -4.625q-0.204 -0.152 -0.407 -0.306l-0.175 -0.134 -0.083 -0.064c-0.075 -0.058 0.107 0.084 -0.017 -0.013 -0.175 -0.137 -0.35 -0.275 -0.517 -0.42l0.094 0.727a5.44 5.44 0 0 1 1.734 -1.992 9.625 9.625 0 0 1 2.722 -1.195c2.063 -0.604 4.334 -0.786 6.425 -0.211a6.775 6.775 0 0 1 2.869 1.534 0.608 0.608 0 0 0 0.849 0c1.194 -1.345 3 -2.198 4.718 -2.643a12.9 12.9 0 0 1 3.49 -0.362 10.975 10.975 0 0 1 3.248 0.455 6 6 0 0 1 2.41 1.42v-0.849c-1.87 1.866 -3.872 3.613 -5.83 5.386q-0.633 0.573 -1.27 1.143c-0.578 0.515 0.273 1.361 0.849 0.849q2.996 -2.67 5.928 -5.413c0.394 -0.368 0.79 -0.735 1.172 -1.116a0.61 0.61 0 0 0 0 -0.849c-1.546 -1.571 -3.78 -2.097 -5.907 -2.205a13.725 13.725 0 0 0 -6.843 1.305 9.1 9.1 0 0 0 -2.813 2.031h0.849c-1.645 -1.542 -3.94 -2.19 -6.155 -2.224a14.6 14.6 0 0 0 -3.91 0.482 11.65 11.65 0 0 0 -3.184 1.283 6.685 6.685 0 0 0 -2.384 2.565 0.611 0.611 0 0 0 0.094 0.727c0.868 0.754 1.828 1.415 2.758 2.091 1.179 0.858 2.367 1.705 3.547 2.562q0.389 0.283 0.775 0.568 0.145 0.107 0.289 0.217c0.022 0.017 0.17 0.13 0.091 0.069s0.045 0.035 0.068 0.053a0.619 0.619 0 0 0 0.849 0 0.604 0.604 0 0 0 0 -0.849Z"/><path class="d" d="M44.285 65.115c0.153 0.117 -0.025 -0.024 -0.052 -0.047 -0.064 -0.053 -0.125 -0.108 -0.189 -0.163q-0.205 -0.181 -0.406 -0.367a5.75 5.75 0 0 1 -0.61 -0.603v0.849a10.6 10.6 0 0 1 5.056 -3.448 12.8 12.8 0 0 1 6.522 -0.525 7.95 7.95 0 0 1 3.002 1.216 0.603 0.603 0 0 0 0.727 -0.094 6.335 6.335 0 0 1 2.379 -1.518 14.5 14.5 0 0 1 2.882 -0.827 14.85 14.85 0 0 1 3.445 -0.097 16 16 0 0 1 2.904 0.382 7.75 7.75 0 0 1 2.707 1.421l-0.121 -0.942c-0.459 0.484 -0.925 0.963 -1.409 1.424 -0.56 0.534 0.29 1.382 0.849 0.849 0.483 -0.461 0.95 -0.939 1.409 -1.424a0.611 0.611 0 0 0 -0.121 -0.942 8.825 8.825 0 0 0 -2.693 -1.458 14.625 14.625 0 0 0 -3.034 -0.471 17.5 17.5 0 0 0 -3.715 0.024 14.5 14.5 0 0 0 -3.241 0.836c-1.133 0.427 -2.258 0.993 -3.088 1.896l0.727 -0.094c-1.835 -1.273 -4.209 -1.667 -6.4 -1.569 -2.35 0.105 -4.831 0.761 -6.833 2.022a11.1 11.1 0 0 0 -2.8 2.49 0.627 0.627 0 0 0 0 0.849 8.5 8.5 0 0 0 1.5 1.368 0.604 0.604 0 0 0 0.821 -0.215 0.615 0.615 0 0 0 -0.215 -0.821Z"/><path class="d" d="M52.59 67.11a1.93 1.93 0 0 0 -2.083 0.144 1.732 1.732 0 0 0 -0.716 1.522 2.9 2.9 0 0 0 0.662 1.642c0.378 0.507 0.786 0.993 1.202 1.469q0.673 0.771 1.377 1.515c0.531 0.563 1.379 -0.287 0.849 -0.849q-0.65 -0.688 -1.275 -1.4c-0.413 -0.469 -0.862 -0.99 -1.186 -1.437a3.1 3.1 0 0 1 -0.333 -0.515 1.25 1.25 0 0 1 -0.098 -0.505c0 -0.017 0.009 -0.205 -0.001 -0.125 0.003 -0.02 0.053 -0.214 0.018 -0.114s0.036 -0.058 0.048 -0.078c0.075 -0.125 -0.078 0.076 0.03 -0.039a1.4 1.4 0 0 1 0.164 -0.156c-0.077 0.059 0.071 -0.039 0.08 -0.043a0.695 0.695 0 0 1 0.657 0.003 0.615 0.615 0 0 0 0.821 -0.215 0.605 0.605 0 0 0 -0.215 -0.821Z"/><path class="d" d="M57.782 69.262c-0.58 -0.628 -1.145 -1.27 -1.723 -1.902a39.75 39.75 0 0 0 -0.867 -0.925 4.375 4.375 0 0 0 -0.74 -0.675c-0.875 -0.555 -2.093 -0.467 -2.668 0.467 -0.656 1.066 0.303 2.032 0.941 2.812a31.5 31.5 0 0 0 2.26 2.528c0.55 0.543 1.4 -0.305 0.849 -0.849a26.75 26.75 0 0 1 -1.784 -1.948c-0.287 -0.345 -0.57 -0.694 -0.854 -1.041a3.35 3.35 0 0 1 -0.347 -0.498 1.25 1.25 0 0 1 -0.072 -0.138c-0.004 -0.011 -0.034 -0.142 -0.02 -0.08 0.013 0.054 0.017 -0.102 -0.002 -0.015a0.51 0.51 0 0 1 0.561 -0.39c0.11 0.007 -0.066 -0.014 0.042 0.005 0.033 0.005 0.065 0.013 0.097 0.021a1.75 1.75 0 0 1 0.239 0.077c-0.088 -0.036 0.068 0.035 0.098 0.053 0.023 0.013 0.048 0.032 0.072 0.044 0.096 0.046 -0.076 -0.085 -0.029 -0.023a8.25 8.25 0 0 0 0.64 0.633 46 46 0 0 1 0.76 0.817c0.569 0.623 1.125 1.255 1.698 1.875a0.6 0.6 0 0 0 0.849 -0.849Z"/><path class="d" d="M62.952 67.939a6.925 6.925 0 0 1 1.053 -0.613c0.24 -0.111 0.615 -0.3 0.887 -0.217 0.214 0.065 0.29 0.36 0.306 0.556a1.938 1.938 0 0 1 -0.325 1.05 4.25 4.25 0 0 1 -0.615 0.734c-0.25 0.267 -0.484 0.545 -0.716 0.827a8.325 8.325 0 0 1 -1.548 1.589 0.617 0.617 0 0 0 -0.215 0.821 0.605 0.605 0 0 0 0.821 0.215c0.813 -0.576 1.403 -1.321 2.038 -2.075 0.279 -0.331 0.586 -0.635 0.867 -0.964a3.95 3.95 0 0 0 0.756 -1.333c0.318 -0.944 0.045 -2.275 -1.042 -2.573 -0.977 -0.268 -2.106 0.408 -2.873 0.946a0.617 0.617 0 0 0 -0.215 0.821 0.605 0.605 0 0 0 0.821 0.215Z"/><path class="d" d="M38.204 29.964a4.838 4.838 0 0 0 2.33 0.539 3.788 3.788 0 0 0 2.35 -0.693 0.603 0.603 0 0 0 0 -0.849 0.615 0.615 0 0 0 -0.849 0c0.182 -0.141 0.039 -0.032 -0.007 -0.002s-0.095 0.058 -0.144 0.084c-0.041 0.021 -0.218 0.092 -0.054 0.031 -0.066 0.025 -0.132 0.05 -0.2 0.072a3.5 3.5 0 0 1 -0.557 0.127c0.088 -0.013 -0.02 0.002 -0.054 0.005q-0.082 0.008 -0.164 0.013 -0.198 0.013 -0.396 0.011a5.25 5.25 0 0 1 -0.517 -0.026c-0.005 0 -0.2 -0.028 -0.08 -0.009a4 4 0 0 1 -0.52 -0.116c-0.073 -0.022 -0.144 -0.048 -0.216 -0.072 -0.154 -0.053 0.086 0.045 -0.052 -0.021a6.25 6.25 0 0 1 -0.265 -0.132 0.613 0.613 0 0 0 -0.821 0.215 0.607 0.607 0 0 0 0.215 0.821Z"/><path class="d" d="M40.231 24.472a11 11 0 0 1 0.258 1.179l-0.021 -0.16a0.75 0.75 0 0 1 0.004 0.163l0.021 -0.16a0.4 0.4 0 0 1 -0.018 0.073l0.06 -0.143a0.25 0.25 0 0 1 -0.025 0.047l0.094 -0.121a0.25 0.25 0 0 1 -0.038 0.038l0.121 -0.094a0.75 0.75 0 0 1 -0.093 0.05l0.143 -0.06a0.7 0.7 0 0 1 -0.157 0.046l0.16 -0.021a0.625 0.625 0 0 1 -0.148 0l0.16 0.021c-0.056 -0.008 -0.111 -0.021 -0.166 -0.029a0.45 0.45 0 0 0 -0.239 -0.011 0.45 0.45 0 0 0 -0.223 0.071 0.6 0.6 0 0 0 -0.215 0.821 0.575 0.575 0 0 0 0.359 0.275c0.126 0.017 0.25 0.05 0.378 0.055a1.2 1.2 0 0 0 0.556 -0.132 0.8 0.8 0 0 0 0.445 -0.528 1.325 1.325 0 0 0 -0.005 -0.57 13 13 0 0 0 -0.25 -1.129 0.6 0.6 0 1 0 -1.157 0.319Z"/><path class="d" d="M33.995 21.135c-0.197 0.64 -0.069 2.111 1.143 2.236 1.602 -0.01 1.687 -1.789 1.148 -2.625 -0.442 -0.685 -1.74 -0.97 -2.291 0.389"/><path class="d" d="M46.821 21.135c0.197 0.64 0.069 2.111 -1.143 2.236 -1.602 -0.01 -1.687 -1.789 -1.148 -2.625 0.442 -0.685 1.74 -0.97 2.291 0.389"/></svg>