<svg width="50px" height="50px" viewBox="0 0 128.125 128.125" data-name="Layer 2" id="Layer_2" xmlns="http://www.w3.org/2000/svg"><defs><style>.cls-1{fill:#f8881b;}.cls-2{fill:#f89a3e;}.cls-3{fill:#f08013;}.cls-4{fill:#67baeb;}.cls-5{fill:#46a1f8;}.cls-6{fill:#f4c23f;}.cls-7{fill:#fad564;}.cls-8{fill:#f4a93f;}.cls-9{fill:#de3226;}.cls-10{fill:#b11a31;}.cls-11{fill:#83d0fb;}.cls-12{fill:#f44533;}</style></defs><title/><path class="cls-1" d="M67.787 28.85a9.125 9.125 0 0 1 -5.775 11.537 9.031 9.031 0 0 1 -1.781 0.4l3.869 11.606 -12.431 4.138a8.988 8.988 0 0 0 -0.35 -4.356C49.731 47.394 44.563 44.813 39.781 46.4a9.131 9.131 0 0 0 -3.438 15.238l-12.425 4.138 -10.494 -31.506a9.137 9.137 0 0 1 5.787 -11.563l31.506 -10.494 3.862 11.606a9.144 9.144 0 0 1 13.206 5.031"/><path class="cls-2" d="M67.787 28.85a9.125 9.125 0 0 0 -5.419 -5.65 9.131 9.131 0 0 1 -3.35 15.325 8.969 8.969 0 0 1 -1.775 0.4l3.862 11.606 -9.425 3.138a8.969 8.969 0 0 1 -0.013 2.862l12.431 -4.138 -3.869 -11.606a9.031 9.031 0 0 0 1.781 -0.4 9.125 9.125 0 0 0 5.775 -11.537"/><path class="cls-3" d="M18.969 37.756a9.137 9.137 0 0 1 5.787 -11.563l27.563 -9.181 -1.6 -4.8 -31.506 10.494a9.137 9.137 0 0 0 -5.787 11.563l10.494 31.506 3.938 -1.313Z"/><path class="cls-4" d="M115.169 73.563h-12.863a9.125 9.125 0 1 1 -17.431 3.769 9.044 9.044 0 0 1 0.813 -3.769h-12.869V61.331a9.125 9.125 0 1 0 0 -17.887V31.212h33.206a9.144 9.144 0 0 1 9.144 9.144Z"/><path class="cls-5" d="M75.956 63.3a11.656 11.656 0 0 0 2.256 0.225A11.35 11.35 0 0 0 89.563 52.175c0 -6.269 -5.081 -11.344 -11.35 -11.344a11.656 11.656 0 0 0 -2.256 0.219V31.212h-3.138v12.231a9.119 9.119 0 1 1 0 17.887V73.563h3.138Z"/><path class="cls-6" d="M59.913 94.737a9.125 9.125 0 0 0 9.119 9.125 9.019 9.019 0 0 0 3.788 -0.825v12.875H39.612a9.144 9.144 0 0 1 -9.144 -9.144V73.563h13.1a9.125 9.125 0 1 1 16.15 0h13.1v12.875a9.019 9.019 0 0 0 -3.788 -0.825 9.125 9.125 0 0 0 -9.119 9.125"/><path class="cls-7" d="M59.719 73.563a9.125 9.125 0 0 0 -16.106 -8.581 9.131 9.131 0 0 1 12.894 12h13.094v8.65a8.944 8.944 0 0 1 3.219 0.806v-12.875Z"/><path class="cls-8" d="M44.031 111.838a9.144 9.144 0 0 1 -9.144 -9.144V73.563h-4.419v33.206a9.144 9.144 0 0 0 9.144 9.144h33.206v-4.075Z"/><path class="cls-9" d="M115.169 73.563v33.206a9.144 9.144 0 0 1 -9.144 9.144h-33.206v-12.875a9.019 9.019 0 0 1 -3.788 0.825 9.125 9.125 0 0 1 0 -18.25 9.019 9.019 0 0 1 3.788 0.825v-12.875H85.688a9.125 9.125 0 1 0 17.431 3.769 9.144 9.144 0 0 0 -0.813 -3.769Z"/><path class="cls-10" d="M95.581 86.319a9.438 9.438 0 0 0 1.587 0.138 9.131 9.131 0 0 0 8.306 -12.894h-3.169a9.144 9.144 0 0 1 0.813 3.769c0 4.494 -3.256 8.231 -7.537 8.988"/><path class="cls-10" d="M75.994 86.438v-12.875h-3.175v12.075a9.037 9.037 0 0 1 3.175 0.8"/><path class="cls-10" d="M63.081 94.737a9.125 9.125 0 0 1 7.537 -8.988 9.5 9.5 0 0 0 -1.587 -0.138 9.125 9.125 0 0 0 0 18.25 9.5 9.5 0 0 0 1.587 -0.138c-4.281 -0.756 -7.537 -4.494 -7.537 -8.988"/><path class="cls-10" d="M72.819 103.838v12.075h3.175v-12.875a9.037 9.037 0 0 1 -3.175 0.8"/><path class="cls-11" height="329.42" rx="55.9" ry="55.9" width="111.8" x="1730.9" y="723" d="M111.675 45.188H111.675A3.494 3.494 0 0 1 115.169 48.681V62.283A3.494 3.494 0 0 1 111.675 65.776H111.675A3.494 3.494 0 0 1 108.181 62.283V48.681A3.494 3.494 0 0 1 111.675 45.188z"/><path class="cls-12" height="277.54" rx="55.9" ry="55.9" width="111.8" x="1730.9" y="1438.9" d="M111.675 89.931H111.675A3.494 3.494 0 0 1 115.169 93.425V103.784A3.494 3.494 0 0 1 111.675 107.278H111.675A3.494 3.494 0 0 1 108.181 103.784V93.425A3.494 3.494 0 0 1 111.675 89.931z"/></svg>