<svg version="1.1" id="Layer_1" xmlns="http://www.w3.org/2000/svg" xmlns:xlink="http://www.w3.org/1999/xlink" x="0px" y="0px" viewBox="0 0 50 50" style="enable-background:new 0 0 512 512;" xml:space="preserve" width="50" height="50"><path style="fill:#324A5E;" cx="256" cy="256" r="256" d="M50 25A25 25 0 0 1 25 50A25 25 0 0 1 0 25A25 25 0 0 1 50 25z"/><path style="fill:#2B3B4E;" d="m49.243 31.125 -8.764 -8.764 -0.926 1.178 -12.746 -12.746 -10.902 11.743 -7.266 10.444 17.012 17.012c11.406 -0.291 20.911 -8.222 23.592 -18.866"/><g><path style="fill:#FFD15D;" d="M33.428 23.606a0.589 0.589 0 0 1 -0.506 -0.287l-6.723 -11.247 -8.915 9.603a0.589 0.589 0 0 1 -0.833 0.031 0.589 0.589 0 0 1 -0.031 -0.833l9.449 -10.179a0.593 0.593 0 0 1 0.493 -0.185 0.59 0.59 0 0 1 0.444 0.284l7.126 11.921a0.589 0.589 0 0 1 -0.505 0.892"/><path style="fill:#FFD15D;" d="m33.933 22.714 -7.126 -11.921a0.588 0.588 0 0 0 -0.423 -0.279l-0.178 1.571 6.715 11.234a0.589 0.589 0 0 0 0.808 0.204 0.589 0.589 0 0 0 0.204 -0.808"/></g><path x="95.046" y="212.219" transform="rotate(-173.988 251.49 283.332)" style="fill:#B5F1F4;" width="312.881" height="142.219" d="M9.282 20.725H39.837V34.613H9.282V20.725z"/><path style="fill:#84DBFF;" points="414.501,228.976 258.289,212.558 242.281,353.88 399.634,370.419 " d="M40.479 22.361L25.224 20.758L23.66 34.559L39.027 36.174Z"/><g><path style="fill:#2B9ED8;" d="m23.674 22.795 -4.144 -0.436a0.589 0.589 0 0 0 -0.647 0.524l-0.871 8.288a0.589 0.589 0 0 0 0.524 0.648l4.144 0.436q0.032 0.003 0.062 0.003a0.589 0.589 0 0 0 0.061 -1.175l-3.558 -0.374 0.312 -2.972 3.558 0.374q0.032 0.003 0.062 0.003a0.589 0.589 0 0 0 0.061 -1.175l-3.558 -0.374 0.312 -2.972 3.558 0.374c0.322 0.033 0.614 -0.201 0.648 -0.524a0.59 0.59 0 0 0 -0.525 -0.648"/><path style="fill:#2B9ED8;" d="M16.494 22.828c-0.449 -0.555 -1.088 -0.901 -1.798 -0.976l-2.072 -0.218c-0.324 -0.032 -0.614 0.201 -0.648 0.524l-0.871 8.288a0.589 0.589 0 0 0 0.587 0.651 0.589 0.589 0 0 0 0.585 -0.528l0.374 -3.558 0.844 0.089 1.583 4.036a0.589 0.589 0 0 0 0.549 0.374 0.589 0.589 0 0 0 0.548 -0.805l-1.392 -3.55a2.656 2.656 0 0 0 1.316 -0.569c0.555 -0.449 0.901 -1.088 0.976 -1.798 0.075 -0.71 -0.132 -1.407 -0.581 -1.962m-0.591 1.838a1.484 1.484 0 0 1 -0.546 1.005 1.481 1.481 0 0 1 -1.096 0.325l-1.486 -0.156 0.312 -2.972 1.486 0.156a1.484 1.484 0 0 1 1.005 0.546 1.484 1.484 0 0 1 0.325 1.096"/></g><g><path style="fill:#2498C6;" d="M30.581 23.521c-0.323 -0.035 -0.614 0.201 -0.648 0.524l-0.61 5.805 -2.396 -6.386a0.589 0.589 0 0 0 -0.626 -0.377 0.59 0.59 0 0 0 -0.511 0.523l-0.871 8.288a0.589 0.589 0 0 0 0.524 0.648c0.323 0.033 0.614 -0.201 0.648 -0.524l0.61 -5.805 2.396 6.386a0.589 0.589 0 0 0 1.138 -0.145l0.871 -8.288a0.589 0.589 0 0 0 -0.524 -0.648"/><path style="fill:#2498C6;" d="m37.927 24.293 -5.023 -0.528c-0.322 -0.033 -0.614 0.201 -0.648 0.524a0.589 0.589 0 0 0 0.524 0.648l1.925 0.202 -0.809 7.702a0.589 0.589 0 0 0 0.587 0.651 0.589 0.589 0 0 0 0.585 -0.528l0.809 -7.702 1.925 0.202q0.031 0.003 0.062 0.003a0.589 0.589 0 0 0 0.585 -0.528 0.589 0.589 0 0 0 -0.524 -0.648"/></g></svg>