<svg version="1.1" id="Uploaded to svgrepo.com" xmlns="http://www.w3.org/2000/svg" xmlns:xlink="http://www.w3.org/1999/xlink" width="25px" height="25px" viewBox="0 0 1 1" xml:space="preserve"><path class="bentblocks_een" d="M0.812 0.36A0.187 0.187 0 0 0 0.625 0.188a0.187 0.187 0 0 0 -0.094 0.025 0.187 0.187 0 0 0 -0.234 0.038A0.187 0.187 0 0 0 0.125 0.438a0.188 0.188 0 0 0 0.188 0.188h0.188c0 0.104 0.021 0.188 0.125 0.188a0.187 0.187 0 0 0 0.187 -0.172c0.003 -0.003 0.061 -0.058 0.06 -0.14 0 -0.041 -0.019 -0.089 -0.06 -0.14M0.188 0.438a0.126 0.126 0 0 1 0.115 -0.124c0.001 0 0.002 0 0.003 -0.001l0.041 0.041a0.093 0.093 0 0 0 0.018 0.106l0.044 -0.044a0.031 0.031 0 0 1 0 -0.044 0.032 0.032 0 0 1 0.044 0l0.044 -0.044c-0.028 -0.028 -0.071 -0.033 -0.106 -0.018l-0.031 -0.031A0.124 0.124 0 0 1 0.438 0.25c0.041 0 0.073 0.025 0.094 0.025S0.584 0.25 0.625 0.25a0.126 0.126 0 0 1 0.124 0.115 0.063 0.063 0 0 0 0.021 0.042c0.011 0.01 0.02 0.022 0.027 0.035 0.001 0.001 0.015 0.027 0.015 0.058 0.001 0.05 -0.022 0.114 -0.125 0.125 -0.039 0.004 -0.074 -0.018 -0.097 -0.046l0.038 -0.038c0.012 0.006 0.026 0.009 0.04 0.009 0.025 0 0.049 -0.01 0.066 -0.027l-0.044 -0.044a0.032 0.032 0 0 1 -0.044 0 0.031 0.031 0 0 1 0 -0.044l-0.044 -0.044a0.094 0.094 0 0 0 -0.018 0.106S0.521 0.563 0.516 0.563H0.313c-0.069 0 -0.125 -0.056 -0.125 -0.125m0.438 0.313c-0.028 0 -0.06 0 -0.062 -0.11A0.186 0.186 0 0 0 0.688 0.688c0.017 0 0.033 -0.002 0.049 -0.007A0.126 0.126 0 0 1 0.625 0.75"/></svg>
