<svg version="1.1" id="Layer_1" xmlns="http://www.w3.org/2000/svg" xmlns:xlink="http://www.w3.org/1999/xlink" x="0px" y="0px" viewBox="0 0 50 50" style="enable-background:new 0 0 512 512;" xml:space="preserve" width="50" height="50"><path style="fill:#FF646E;" d="M32.158 7.328h-7.175V2.155h7.175c0.54 0 0.81 0.652 0.428 1.034l-1.552 1.552 1.552 1.552c0.382 0.382 0.111 1.034 -0.428 1.034"/><path style="fill:#734B46;" d="M25 1.293a0.862 0.862 0 0 0 -0.862 0.862v8.621h1.724V2.155A0.862 0.862 0 0 0 25 1.293"/><path style="fill:#FFC855;" points="485.517,286.897 256,180.966 26.483,286.897 26.483,454.621 485.517,454.621 " d="M47.414 28.017L25 17.672L2.586 28.017L2.586 44.397L47.414 44.397Z"/><path style="fill:#FFAA4B;" d="M2.586 31.155 25 20.81l22.414 10.345v-1.899L25.361 19.078a0.865 0.865 0 0 0 -0.722 0L2.586 29.256z"/><path style="fill:#FF646E;" d="M48.275 29.741a0.859 0.859 0 0 1 -0.361 -0.079L25 19.086 2.085 29.662c-0.432 0.199 -0.945 0.011 -1.144 -0.422 -0.199 -0.432 -0.011 -0.945 0.422 -1.144l23.276 -10.743a0.865 0.865 0 0 1 0.722 0l23.276 10.743c0.432 0.199 0.621 0.711 0.422 1.144a0.863 0.863 0 0 1 -0.783 0.501"/><path style="fill:#FFE678;" points="361.931,180.966 256,119.172 150.069,180.966 150.069,454.621 361.931,454.621 " d="M35.345 17.672L25 11.638L14.655 17.672L14.655 44.397L35.345 44.397Z"/><path style="fill:#00BEA5;" d="M47.414 48.707H2.586c-0.952 0 -1.724 -0.772 -1.724 -1.724v-2.586h48.276v2.586c0 0.952 -0.772 1.724 -1.724 1.724"/><path style="fill:#009D93;" d="M49.138 45.259H0.862a0.862 0.862 0 0 1 0 -1.724h48.276a0.862 0.862 0 0 1 0.862 0.862 0.862 0.862 0 0 1 -0.862 0.862"/><path style="fill:#FFC855;" points="150.069,200.014 256,138.22 361.931,200.014 361.931,180.966 256,119.172 150.069,180.966 
	" d="M14.655 19.533L25 13.498L35.345 19.533L35.345 17.672L25 11.638L14.655 17.672Z"/><path style="fill:#FF646E;" d="M36.206 18.175a0.859 0.859 0 0 1 -0.433 -0.117L25 11.774l-10.773 6.284a0.863 0.863 0 0 1 -1.179 -0.31 0.862 0.862 0 0 1 0.31 -1.179l11.207 -6.538a0.862 0.862 0 0 1 0.869 0l11.207 6.538a0.862 0.862 0 0 1 0.31 1.179 0.862 0.862 0 0 1 -0.746 0.428"/><path style="fill:#B97850;" d="M31.034 43.534H18.966v-8.621a0.862 0.862 0 0 1 0.862 -0.862h10.345a0.862 0.862 0 0 1 0.862 0.862z"/><path style="fill:#AAE1FF;" d="M21.121 21.552c-1.19 0 -2.155 0.965 -2.155 2.155v6.034a0.862 0.862 0 0 0 0.862 0.862h2.586a0.862 0.862 0 0 0 0.862 -0.862v-6.034c0 -1.19 -0.965 -2.155 -2.155 -2.155"/><path style="fill:#8CD2FF;" d="M21.121 21.552c-1.19 0 -2.155 0.965 -2.155 2.155V25c0 -1.19 0.965 -2.155 2.155 -2.155s2.155 0.965 2.155 2.155v-1.293c0 -1.19 -0.965 -2.155 -2.155 -2.155"/><path x="194.207" y="251.586" style="fill:#FFFFFF;" width="44.138" height="17.655" d="M18.966 24.569H23.276V26.293H18.966V24.569z"/><path style="fill:#AAE1FF;" d="M9.052 31.034c-1.19 0 -2.155 0.965 -2.155 2.155v6.034a0.862 0.862 0 0 0 0.862 0.862h2.586a0.862 0.862 0 0 0 0.862 -0.862v-6.034c0 -1.19 -0.965 -2.155 -2.155 -2.155"/><path style="fill:#8CD2FF;" d="M9.052 31.034c-1.19 0 -2.155 0.965 -2.155 2.155v1.293c0 -1.19 0.965 -2.155 2.155 -2.155s2.155 0.965 2.155 2.155v-1.293c0 -1.19 -0.965 -2.155 -2.155 -2.155"/><path x="70.621" y="348.69" style="fill:#FFFFFF;" width="44.138" height="17.655" d="M6.897 34.052H11.207V35.776H6.897V34.052z"/><path style="fill:#AAE1FF;" d="M40.948 31.034c-1.19 0 -2.155 0.965 -2.155 2.155v6.034a0.862 0.862 0 0 0 0.862 0.862h2.586a0.862 0.862 0 0 0 0.862 -0.862v-6.034c0 -1.19 -0.965 -2.155 -2.155 -2.155"/><path style="fill:#8CD2FF;" d="M40.948 31.034c-1.19 0 -2.155 0.965 -2.155 2.155v1.293c0 -1.19 0.965 -2.155 2.155 -2.155s2.155 0.965 2.155 2.155v-1.293c0 -1.19 -0.965 -2.155 -2.155 -2.155"/><path x="397.241" y="348.69" style="fill:#FFFFFF;" width="44.138" height="17.655" d="M38.793 34.052H43.103V35.776H38.793V34.052z"/><path style="fill:#AAE1FF;" d="M28.879 21.552c-1.19 0 -2.155 0.965 -2.155 2.155v6.034a0.862 0.862 0 0 0 0.862 0.862h2.586a0.862 0.862 0 0 0 0.862 -0.862v-6.034c0 -1.19 -0.965 -2.155 -2.155 -2.155"/><path style="fill:#8CD2FF;" d="M28.879 21.552c-1.19 0 -2.155 0.965 -2.155 2.155V25c0 -1.19 0.965 -2.155 2.155 -2.155s2.155 0.965 2.155 2.155v-1.293c0 -1.19 -0.965 -2.155 -2.155 -2.155"/><path x="273.655" y="251.586" style="fill:#FFFFFF;" width="44.138" height="17.655" d="M26.724 24.569H31.034V26.293H26.724V24.569z"/><g><path x="150.069" y="410.483" style="fill:#FFC855;" width="44.138" height="35.31" d="M14.655 40.086H18.966V43.534H14.655V40.086z"/><path x="317.793" y="410.483" style="fill:#FFC855;" width="44.138" height="35.31" d="M31.034 40.086H35.345V43.534H31.034V40.086z"/></g><g><path x="361.931" y="410.483" style="fill:#FFAA4B;" width="123.586" height="35.31" d="M35.345 40.086H47.414V43.534H35.345V40.086z"/><path x="26.483" y="410.483" style="fill:#FFAA4B;" width="123.586" height="35.31" d="M2.586 40.086H14.655V43.534H2.586V40.086z"/></g><path x="247.172" y="348.69" style="fill:#734B46;" width="17.655" height="97.103" d="M24.138 34.052H25.862V43.534H24.138V34.052z"/><g><path style="fill:#AAE1FF;" d="M21.552 40.086a0.862 0.862 0 0 0 0.862 -0.862v-2.586a0.862 0.862 0 0 0 -1.724 0v2.586a0.862 0.862 0 0 0 0.862 0.862"/><path style="fill:#AAE1FF;" d="M28.448 40.086a0.862 0.862 0 0 0 0.862 -0.862v-2.586a0.862 0.862 0 0 0 -1.724 0v2.586a0.862 0.862 0 0 0 0.862 0.862"/></g><g><path style="fill:#8CD2FF;" d="M21.552 35.776a0.862 0.862 0 0 0 -0.862 0.862v1.724a0.862 0.862 0 0 1 1.724 0v-1.724a0.862 0.862 0 0 0 -0.862 -0.862"/><path style="fill:#8CD2FF;" d="M28.448 35.776a0.862 0.862 0 0 0 -0.862 0.862v1.724a0.862 0.862 0 0 1 1.724 0v-1.724a0.862 0.862 0 0 0 -0.862 -0.862"/></g></svg>